<svg width="13" height="12" viewBox="0 0 13 12" fill="none" xmlns="http://www.w3.org/2000/svg">
<path fill-rule="evenodd" clip-rule="evenodd" d="M2.28405 3C2.28936 3 2.29468 3 2.3 3H2.7C2.70532 3 2.71064 3 2.71595 3C2.84214 2.99999 2.96504 2.99997 3.06912 3.00848C3.18341 3.01781 3.31828 3.03985 3.45399 3.109C3.64216 3.20487 3.79514 3.35785 3.89101 3.54601C3.96016 3.68172 3.98219 3.81659 3.99153 3.93089C4.00003 4.03497 4.00002 4.15786 4 4.28405C4 4.28936 4 4.29468 4 4.3L4 9.71595C4.00002 9.84214 4.00003 9.96504 3.99153 10.0691C3.98219 10.1834 3.96016 10.3183 3.89101 10.454C3.79514 10.6422 3.64215 10.7951 3.45399 10.891C3.31828 10.9602 3.18341 10.9822 3.06912 10.9915C2.96504 11 2.84214 11 2.71594 11H2.28406C2.15787 11 2.03497 11 1.93089 10.9915C1.81659 10.9822 1.68172 10.9602 1.54601 10.891C1.35785 10.7951 1.20487 10.6422 1.109 10.454C1.03985 10.3183 1.01781 10.1834 1.00848 10.0691C0.999972 9.96504 0.999986 9.84214 1 9.71595L1 4.3C1 4.29468 1 4.28937 1 4.28405C0.999986 4.15786 0.999972 4.03497 1.00848 3.93089C1.01781 3.81659 1.03985 3.68172 1.109 3.54601C1.20487 3.35785 1.35785 3.20487 1.54601 3.109C1.68172 3.03985 1.81659 3.01781 1.93089 3.00848C2.03497 2.99997 2.15786 2.99999 2.28405 3Z" fill="#CED4DA"/>
<path fill-rule="evenodd" clip-rule="evenodd" d="M6.28405 1C6.28936 1 6.29468 1 6.3 1L6.7 1C6.70532 1 6.71064 1 6.71595 1C6.84214 0.999986 6.96504 0.999972 7.06912 1.00848C7.18341 1.01781 7.31828 1.03985 7.45399 1.109C7.64216 1.20487 7.79514 1.35785 7.89101 1.54601C7.96016 1.68172 7.98219 1.81659 7.99153 1.93089C8.00003 2.03497 8.00002 2.15786 8 2.28405C8 2.28936 8 2.29468 8 2.3L8 9.71595C8.00002 9.84214 8.00003 9.96504 7.99153 10.0691C7.98219 10.1834 7.96016 10.3183 7.89101 10.454C7.79514 10.6422 7.64215 10.7951 7.45399 10.891C7.31828 10.9602 7.18341 10.9822 7.06912 10.9915C6.96504 11 6.84215 11 6.71596 11H6.28404C6.15786 11 6.03496 11 5.93089 10.9915C5.81659 10.9822 5.68172 10.9602 5.54601 10.891C5.35785 10.7951 5.20487 10.6422 5.109 10.454C5.03985 10.3183 5.01781 10.1834 5.00848 10.0691C4.99997 9.96504 4.99999 9.84214 5 9.71595L5 2.3C5 2.29468 5 2.28936 5 2.28405C4.99999 2.15786 4.99997 2.03497 5.00848 1.93089C5.01781 1.81659 5.03985 1.68172 5.109 1.54601C5.20487 1.35785 5.35785 1.20487 5.54601 1.109C5.68172 1.03985 5.81659 1.01781 5.93089 1.00848C6.03497 0.999972 6.15786 0.999986 6.28405 1Z" fill="#CED4DA"/>
<path fill-rule="evenodd" clip-rule="evenodd" d="M10.2841 5C10.2894 5 10.2947 5 10.3 5H10.7C10.7053 5 10.7106 5 10.716 5C10.8421 4.99999 10.965 4.99997 11.0691 5.00848C11.1834 5.01781 11.3183 5.03985 11.454 5.109C11.6422 5.20487 11.7951 5.35785 11.891 5.54601C11.9602 5.68172 11.9822 5.81659 11.9915 5.93089C12 6.03497 12 6.15786 12 6.28405C12 6.28936 12 6.29468 12 6.3L12 9.71595C12 9.84214 12 9.96504 11.9915 10.0691C11.9822 10.1834 11.9602 10.3183 11.891 10.454C11.7951 10.6422 11.6422 10.7951 11.454 10.891C11.3183 10.9602 11.1834 10.9822 11.0691 10.9915C10.965 11 10.8421 11 10.7159 11H10.2841C10.1579 11 10.035 11 9.93089 10.9915C9.81659 10.9822 9.68172 10.9602 9.54601 10.891C9.35785 10.7951 9.20487 10.6422 9.109 10.454C9.03985 10.3183 9.01781 10.1834 9.00848 10.0691C8.99997 9.96504 8.99999 9.84214 9 9.71595L9 6.3C9 6.29468 9 6.28937 9 6.28405C8.99999 6.15786 8.99997 6.03497 9.00848 5.93089C9.01781 5.81659 9.03985 5.68172 9.109 5.54601C9.20487 5.35785 9.35785 5.20487 9.54601 5.109C9.68172 5.03985 9.81659 5.01781 9.93089 5.00848C10.035 4.99997 10.1579 4.99999 10.2841 5Z" fill="#CED4DA"/>
</svg>
