<?xml version="1.0" encoding="UTF-8"?>
<svg xmlns="http://www.w3.org/2000/svg" xmlns:xlink="http://www.w3.org/1999/xlink" width="100px" height="100px" viewBox="0 0 100 100" version="1.1">
<g id="surface1">
<path style=" stroke:none;fill-rule:nonzero;fill:rgb(99.607843%,99.607843%,99.607843%);fill-opacity:1;" d="M 0 0 C 33 0 66 0 100 0 C 100 33 100 66 100 100 C 67 100 34 100 0 100 C 0 67 0 34 0 0 Z M 0 0 "/>
<path style=" stroke:none;fill-rule:nonzero;fill:rgb(2.745098%,2.745098%,2.745098%);fill-opacity:1;" d="M 90.8125 47.292969 C 91.070312 47.285156 91.070312 47.285156 91.332031 47.277344 C 91.894531 47.339844 92.207031 47.511719 92.667969 47.832031 C 92.722656 47.722656 92.777344 47.613281 92.832031 47.5 C 93.546875 47.5 94.261719 47.5 95 47.5 C 95.015625 48.566406 95.027344 49.636719 95.035156 50.703125 C 95.039062 51.066406 95.042969 51.429688 95.050781 51.789062 C 95.058594 52.3125 95.0625 52.835938 95.066406 53.359375 C 95.070312 53.519531 95.070312 53.679688 95.074219 53.847656 C 95.074219 54.871094 94.921875 55.644531 94.332031 56.5 C 93.339844 57.492188 92.46875 57.859375 91.09375 57.90625 C 90.148438 57.882812 89.425781 57.75 88.667969 57.167969 C 87.667969 56.085938 87.667969 56.085938 87.667969 55.332031 C 87.984375 55.289062 88.304688 55.246094 88.625 55.207031 C 88.804688 55.183594 88.980469 55.160156 89.164062 55.136719 C 89.800781 55.175781 89.910156 55.378906 90.332031 55.832031 C 91.082031 55.996094 91.777344 55.972656 92.425781 55.5625 C 92.710938 55.09375 92.785156 54.707031 92.832031 54.167969 C 92.71875 54.246094 92.601562 54.328125 92.484375 54.414062 C 91.5625 54.898438 90.410156 54.828125 89.417969 54.550781 C 88.476562 54.128906 88.027344 53.5 87.65625 52.539062 C 87.355469 51.496094 87.277344 50.277344 87.652344 49.25 C 88.394531 47.996094 89.34375 47.3125 90.8125 47.292969 Z M 90.8125 47.292969 "/>
<path style=" stroke:none;fill-rule:nonzero;fill:rgb(2.352941%,2.352941%,2.352941%);fill-opacity:1;" d="M 68.667969 44.5 C 69.4375 44.5 70.207031 44.5 71 44.5 C 71 45.820312 71 47.140625 71 48.5 C 72.375 48.5 73.75 48.5 75.167969 48.5 C 75.167969 47.179688 75.167969 45.859375 75.167969 44.5 C 75.9375 44.5 76.707031 44.5 77.5 44.5 C 77.5 47.964844 77.5 51.429688 77.5 55 C 76.730469 55 75.960938 55 75.167969 55 C 75.167969 53.570312 75.167969 52.140625 75.167969 50.667969 C 73.792969 50.667969 72.417969 50.667969 71 50.667969 C 71 52.097656 71 53.527344 71 55 C 70.230469 55 69.460938 55 68.667969 55 C 68.667969 51.535156 68.667969 48.070312 68.667969 44.5 Z M 68.667969 44.5 "/>
<path style=" stroke:none;fill-rule:nonzero;fill:rgb(2.352941%,2.352941%,2.352941%);fill-opacity:1;" d="M 39.167969 44.5 C 44.929688 44.5 44.929688 44.5 46.167969 45.5 C 46.902344 46.316406 47.148438 47.105469 47.089844 48.195312 C 46.90625 49.15625 46.460938 49.996094 45.664062 50.578125 C 44.328125 51.285156 42.980469 51.179688 41.5 51.167969 C 41.5 52.433594 41.5 53.695312 41.5 55 C 40.730469 55 39.960938 55 39.167969 55 C 39.167969 51.535156 39.167969 48.070312 39.167969 44.5 Z M 39.167969 44.5 "/>
<path style=" stroke:none;fill-rule:nonzero;fill:rgb(96.078432%,32.941177%,2.745098%);fill-opacity:1;" d="M 11 42 C 11.675781 42.046875 12.007812 42.257812 12.480469 42.730469 C 12.597656 42.851562 12.71875 42.96875 12.84375 43.089844 C 12.96875 43.222656 13.097656 43.351562 13.226562 43.484375 C 13.359375 43.617188 13.492188 43.746094 13.628906 43.882812 C 13.90625 44.164062 14.183594 44.445312 14.460938 44.722656 C 14.886719 45.15625 15.3125 45.585938 15.742188 46.011719 C 16.011719 46.285156 16.28125 46.554688 16.550781 46.828125 C 16.679688 46.957031 16.808594 47.085938 16.941406 47.21875 C 17.058594 47.339844 17.175781 47.457031 17.296875 47.582031 C 17.398438 47.6875 17.503906 47.792969 17.609375 47.898438 C 17.832031 48.167969 17.832031 48.167969 17.832031 48.5 C 17.929688 48.539062 18.023438 48.582031 18.121094 48.625 C 19.214844 49.230469 20.070312 50.382812 20.867188 51.328125 C 21.144531 51.660156 21.144531 51.660156 21.421875 51.867188 C 21.863281 52.234375 22.128906 52.496094 22.253906 53.070312 C 22.277344 53.535156 22.269531 53.992188 22.25 54.457031 C 22.25 54.617188 22.246094 54.777344 22.246094 54.941406 C 22.21875 56.113281 22.21875 56.113281 21.832031 56.5 C 21.082031 56.414062 20.648438 55.910156 20.128906 55.40625 C 20.023438 55.308594 19.921875 55.210938 19.816406 55.113281 C 18.742188 54.09375 17.6875 53.0625 16.628906 52.027344 C 16.128906 51.539062 15.625 51.054688 15.117188 50.574219 C 14.5 49.992188 13.890625 49.402344 13.289062 48.808594 C 13.058594 48.582031 12.828125 48.359375 12.589844 48.144531 C 11.375 47.015625 10.5625 46.136719 10.496094 44.417969 C 10.523438 42.476562 10.523438 42.476562 11 42 Z M 11 42 "/>
<path style=" stroke:none;fill-rule:nonzero;fill:rgb(2.745098%,2.745098%,2.745098%);fill-opacity:1;" d="M 84.832031 47.832031 C 85.789062 48.507812 86.449219 49.15625 86.667969 50.332031 C 86.820312 51.707031 86.574219 52.746094 85.792969 53.875 C 84.933594 54.730469 84.007812 55.183594 82.792969 55.207031 C 81.464844 55.183594 80.617188 54.695312 79.625 53.835938 C 78.777344 52.867188 78.757812 51.960938 78.785156 50.726562 C 78.875 49.679688 79.261719 48.925781 80 48.167969 C 81.445312 47.164062 83.277344 46.921875 84.832031 47.832031 Z M 84.832031 47.832031 "/>
<path style=" stroke:none;fill-rule:nonzero;fill:rgb(2.745098%,2.745098%,2.745098%);fill-opacity:1;" d="M 53.332031 47.832031 C 54.289062 48.503906 54.957031 49.15625 55.167969 50.332031 C 55.308594 51.730469 55.113281 52.703125 54.292969 53.863281 C 53.609375 54.5625 52.953125 55.019531 51.972656 55.089844 C 51.734375 55.089844 51.492188 55.089844 51.25 55.082031 C 51.128906 55.085938 51.011719 55.089844 50.886719 55.089844 C 49.832031 55.082031 49.136719 54.761719 48.34375 54.042969 C 48.269531 53.949219 48.191406 53.855469 48.113281 53.761719 C 48.035156 53.667969 47.957031 53.574219 47.875 53.480469 C 47.183594 52.449219 47.238281 51.367188 47.332031 50.167969 C 47.542969 49.292969 48.035156 48.488281 48.777344 47.972656 C 50.183594 47.136719 51.890625 46.992188 53.332031 47.832031 Z M 53.332031 47.832031 "/>
<path style=" stroke:none;fill-rule:nonzero;fill:rgb(2.745098%,2.745098%,2.745098%);fill-opacity:1;" d="M 23.332031 48.5 C 23.925781 48.550781 24.207031 48.816406 24.609375 49.226562 C 24.785156 49.40625 24.785156 49.40625 24.964844 49.585938 C 25.089844 49.714844 25.214844 49.84375 25.34375 49.976562 C 25.472656 50.109375 25.601562 50.242188 25.734375 50.378906 C 26.292969 50.941406 26.84375 51.507812 27.398438 52.074219 C 27.800781 52.488281 28.207031 52.898438 28.613281 53.3125 C 28.800781 53.503906 28.800781 53.503906 28.988281 53.699219 C 29.964844 54.691406 30.816406 55.136719 32.167969 55.5 C 32.332031 55.582031 32.332031 55.582031 32.5 55.667969 C 32.53125 56.675781 32.53125 56.675781 32.5 57 C 32.074219 57.425781 31.914062 57.375 31.324219 57.375 C 31.058594 57.378906 31.058594 57.378906 30.789062 57.378906 C 30.601562 57.378906 30.410156 57.378906 30.214844 57.378906 C 29.921875 57.378906 29.921875 57.378906 29.625 57.378906 C 29.210938 57.378906 28.796875 57.378906 28.386719 57.375 C 27.753906 57.375 27.121094 57.375 26.484375 57.378906 C 26.085938 57.378906 25.6875 57.378906 25.285156 57.378906 C 25 57.378906 25 57.378906 24.710938 57.378906 C 24.535156 57.378906 24.359375 57.378906 24.175781 57.375 C 24.023438 57.375 23.867188 57.375 23.707031 57.375 C 23.332031 57.332031 23.332031 57.332031 23 57 C 22.957031 56.652344 22.957031 56.652344 22.957031 56.21875 C 22.957031 56.054688 22.953125 55.894531 22.953125 55.726562 C 22.953125 55.550781 22.953125 55.375 22.957031 55.191406 C 22.957031 55.011719 22.957031 54.832031 22.953125 54.648438 C 22.953125 54.265625 22.957031 53.886719 22.957031 53.503906 C 22.957031 52.917969 22.957031 52.335938 22.953125 51.75 C 22.953125 51.378906 22.953125 51.011719 22.957031 50.640625 C 22.953125 50.464844 22.953125 50.289062 22.953125 50.109375 C 22.953125 49.945312 22.957031 49.78125 22.957031 49.617188 C 22.957031 49.472656 22.957031 49.328125 22.957031 49.179688 C 23 48.832031 23 48.832031 23.332031 48.5 Z M 23.332031 48.5 "/>
<path style=" stroke:none;fill-rule:nonzero;fill:rgb(94.901961%,30.980393%,1.568628%);fill-opacity:1;" d="M 10.667969 47 C 11.761719 47.90625 12.765625 48.894531 13.777344 49.890625 C 13.867188 49.980469 13.957031 50.070312 14.050781 50.164062 C 14.53125 50.640625 15.011719 51.113281 15.492188 51.589844 C 15.886719 51.984375 16.285156 52.375 16.683594 52.765625 C 17.167969 53.238281 17.648438 53.714844 18.125 54.191406 C 18.308594 54.371094 18.492188 54.554688 18.675781 54.734375 C 18.933594 54.984375 19.1875 55.234375 19.4375 55.488281 C 19.585938 55.632812 19.730469 55.777344 19.878906 55.921875 C 20.167969 56.332031 20.167969 56.332031 20.140625 56.792969 C 20 57.167969 20 57.167969 19.832031 57.332031 C 19.28125 57.414062 18.722656 57.425781 18.167969 57.449219 C 18.011719 57.460938 17.859375 57.472656 17.703125 57.488281 C 16.988281 57.507812 16.519531 57.488281 15.960938 57.019531 C 15.714844 56.738281 15.472656 56.445312 15.238281 56.152344 C 14.792969 55.617188 14.308594 55.195312 13.773438 54.75 C 10.621094 52.027344 10.621094 52.027344 10.394531 50.226562 C 10.363281 49.136719 10.460938 48.070312 10.667969 47 Z M 10.667969 47 "/>
<path style=" stroke:none;fill-rule:nonzero;fill:rgb(3.921569%,3.921569%,3.921569%);fill-opacity:1;" d="M 60.144531 47.542969 C 61.429688 48.261719 61.429688 48.261719 61.605469 48.855469 C 61.636719 49.007812 61.636719 49.007812 61.667969 49.167969 C 61.460938 49.289062 61.25 49.40625 61.042969 49.519531 C 60.925781 49.585938 60.808594 49.652344 60.691406 49.71875 C 60.332031 49.832031 60.332031 49.832031 59.976562 49.707031 C 59.667969 49.5 59.667969 49.5 59.332031 49.167969 C 58.886719 49.121094 58.453125 49.152344 58 49.167969 C 57.980469 49.492188 57.980469 49.492188 58.167969 49.832031 C 58.714844 50.042969 59.253906 50.1875 59.820312 50.328125 C 60.644531 50.554688 61.09375 50.828125 61.667969 51.5 C 61.722656 51.554688 61.777344 51.609375 61.832031 51.667969 C 61.90625 52.417969 61.925781 53.109375 61.636719 53.8125 C 61.210938 54.3125 60.753906 54.707031 60.167969 55 C 57.667969 55.167969 57.667969 55.167969 56.667969 54.5 C 55.667969 53.425781 55.667969 53.425781 55.667969 52.667969 C 55.878906 52.582031 56.089844 52.5 56.300781 52.417969 C 56.421875 52.371094 56.539062 52.324219 56.660156 52.277344 C 57 52.167969 57 52.167969 57.5 52.167969 C 57.769531 52.574219 57.769531 52.574219 58 53 C 58.167969 53.207031 58.167969 53.207031 58.511719 53.183594 C 58.648438 53.179688 58.785156 53.179688 58.925781 53.175781 C 59.066406 53.175781 59.203125 53.175781 59.34375 53.171875 C 59.449219 53.171875 59.558594 53.167969 59.667969 53.167969 C 59.585938 52.753906 59.585938 52.753906 59.5 52.332031 C 59.332031 52.285156 59.164062 52.234375 58.988281 52.1875 C 56.589844 51.464844 56.589844 51.464844 56 50.5 C 55.84375 49.644531 55.851562 48.9375 56.269531 48.167969 C 57.386719 47.226562 58.765625 46.992188 60.144531 47.542969 Z M 60.144531 47.542969 "/>
<path style=" stroke:none;fill-rule:nonzero;fill:rgb(1.960784%,1.960784%,1.960784%);fill-opacity:1;" d="M 63.5 45.332031 C 64.214844 45.332031 64.929688 45.332031 65.667969 45.332031 C 65.667969 46.046875 65.667969 46.761719 65.667969 47.5 C 66.273438 47.5 66.875 47.5 67.5 47.5 C 67.5 48.105469 67.5 48.710938 67.5 49.332031 C 66.894531 49.332031 66.289062 49.332031 65.667969 49.332031 C 65.691406 49.878906 65.714844 50.421875 65.738281 50.96875 C 65.746094 51.125 65.753906 51.277344 65.757812 51.4375 C 65.765625 51.585938 65.773438 51.734375 65.78125 51.886719 C 65.785156 52.027344 65.792969 52.164062 65.800781 52.304688 C 65.824219 52.695312 65.824219 52.695312 66 53.167969 C 66.742188 53.085938 66.742188 53.085938 67.5 53 C 67.5 53.660156 67.5 54.320312 67.5 55 C 65.023438 55.171875 65.023438 55.171875 64.28125 54.542969 C 63.632812 53.871094 63.457031 53.285156 63.46875 52.355469 C 63.46875 52.078125 63.46875 52.078125 63.46875 51.792969 C 63.472656 51.601562 63.476562 51.40625 63.480469 51.207031 C 63.480469 51.011719 63.480469 50.816406 63.484375 50.613281 C 63.488281 50.132812 63.492188 49.648438 63.5 49.167969 C 63.113281 49.167969 62.730469 49.167969 62.332031 49.167969 C 62.332031 48.617188 62.332031 48.066406 62.332031 47.5 C 62.71875 47.5 63.101562 47.5 63.5 47.5 C 63.5 46.785156 63.5 46.070312 63.5 45.332031 Z M 63.5 45.332031 "/>
<path style=" stroke:none;fill-rule:nonzero;fill:rgb(13.333334%,30.588236%,99.607843%);fill-opacity:1;" d="M 5.523438 47.769531 C 6.207031 47.863281 6.605469 48.246094 7.101562 48.691406 C 7.203125 48.78125 7.308594 48.871094 7.414062 48.964844 C 7.742188 49.265625 8.066406 49.566406 8.386719 49.875 C 8.492188 49.976562 8.601562 50.082031 8.714844 50.1875 C 10.070312 51.507812 10.933594 52.5625 10.992188 54.496094 C 10.941406 55.402344 10.851562 56.28125 10.667969 57.167969 C 9.59375 56.289062 8.625 55.316406 7.648438 54.339844 C 7.363281 54.050781 7.074219 53.761719 6.785156 53.476562 C 6.601562 53.292969 6.417969 53.109375 6.238281 52.925781 C 6.152344 52.839844 6.066406 52.753906 5.976562 52.667969 C 5.023438 51.707031 5.023438 51.707031 4.960938 51.125 C 4.960938 50.980469 4.960938 50.839844 4.960938 50.691406 C 4.960938 50.457031 4.960938 50.457031 4.960938 50.21875 C 4.964844 50.058594 4.964844 49.894531 4.96875 49.730469 C 4.96875 49.566406 4.96875 49.402344 4.96875 49.234375 C 4.976562 47.867188 4.976562 47.867188 5.523438 47.769531 Z M 5.523438 47.769531 "/>
<path style=" stroke:none;fill-rule:nonzero;fill:rgb(97.647059%,74.509805%,18.431373%);fill-opacity:1;" d="M 16.332031 46.832031 C 16.523438 46.984375 16.710938 47.136719 16.894531 47.292969 C 17 47.375 17.105469 47.460938 17.210938 47.550781 C 17.515625 47.847656 17.652344 48.121094 17.832031 48.5 C 18.050781 48.617188 18.273438 48.726562 18.5 48.832031 C 19.355469 49.597656 20.128906 50.453125 20.867188 51.328125 C 21.144531 51.660156 21.144531 51.660156 21.421875 51.867188 C 21.863281 52.234375 22.128906 52.496094 22.253906 53.070312 C 22.277344 53.535156 22.269531 53.992188 22.25 54.457031 C 22.25 54.617188 22.246094 54.777344 22.246094 54.941406 C 22.21875 56.113281 22.21875 56.113281 21.832031 56.5 C 20.632812 56.359375 19.550781 54.996094 18.707031 54.199219 C 18.59375 54.089844 18.484375 53.984375 18.367188 53.875 C 16.984375 52.535156 16.054688 51.464844 15.996094 49.492188 C 16.046875 48.589844 16.140625 47.714844 16.332031 46.832031 Z M 16.332031 46.832031 "/>
<path style=" stroke:none;fill-rule:nonzero;fill:rgb(97.647059%,74.509805%,18.82353%);fill-opacity:1;" d="M 16.667969 42 C 17.511719 42.039062 18.007812 42.53125 18.601562 43.074219 C 18.703125 43.167969 18.808594 43.261719 18.914062 43.359375 C 19.242188 43.664062 19.5625 43.96875 19.886719 44.28125 C 19.992188 44.386719 20.101562 44.488281 20.214844 44.597656 C 22.429688 46.769531 22.429688 46.769531 22.5 48.464844 C 22.378906 50.289062 22.378906 50.289062 22 50.667969 C 21.636719 50.734375 21.636719 50.734375 21.167969 50.667969 C 20.792969 50.367188 20.476562 50.078125 20.148438 49.734375 C 20.054688 49.640625 19.960938 49.546875 19.863281 49.449219 C 19.5625 49.144531 19.265625 48.839844 18.96875 48.53125 C 18.765625 48.328125 18.566406 48.121094 18.363281 47.917969 C 16.457031 45.984375 16.457031 45.984375 16.460938 44.988281 C 16.460938 44.824219 16.460938 44.664062 16.460938 44.492188 C 16.464844 44.324219 16.464844 44.152344 16.46875 43.980469 C 16.46875 43.808594 16.46875 43.636719 16.46875 43.460938 C 16.476562 42.191406 16.476562 42.191406 16.667969 42 Z M 16.667969 42 "/>
<path style=" stroke:none;fill-rule:nonzero;fill:rgb(11.764706%,29.411766%,99.607843%);fill-opacity:1;" d="M 5.332031 42 C 6.507812 42.140625 7.546875 43.445312 8.375 44.230469 C 8.484375 44.332031 8.59375 44.433594 8.703125 44.539062 C 10.042969 45.835938 10.933594 46.84375 10.992188 48.769531 C 10.941406 49.640625 10.851562 50.484375 10.667969 51.332031 C 5.003906 46.496094 5.003906 46.496094 4.695312 44.769531 C 4.652344 43.949219 4.707031 43.109375 5 42.332031 C 5.109375 42.222656 5.21875 42.113281 5.332031 42 Z M 5.332031 42 "/>
<path style=" stroke:none;fill-rule:nonzero;fill:rgb(96.470588%,96.470588%,96.470588%);fill-opacity:1;" d="M 83.167969 49.167969 C 83.777344 49.507812 84.113281 49.75 84.5 50.332031 C 84.601562 51.042969 84.578125 51.660156 84.28125 52.3125 C 83.625 53.136719 83.625 53.136719 83.152344 53.246094 C 82.402344 53.253906 82.101562 53.25 81.5 52.761719 C 81.390625 52.621094 81.28125 52.480469 81.167969 52.332031 C 81.113281 52.277344 81.058594 52.222656 81 52.167969 C 80.914062 51.4375 80.828125 50.664062 81.175781 49.996094 C 81.789062 49.257812 82.222656 49.074219 83.167969 49.167969 Z M 83.167969 49.167969 "/>
<path style=" stroke:none;fill-rule:nonzero;fill:rgb(96.862745%,96.862745%,96.862745%);fill-opacity:1;" d="M 51.667969 49.167969 C 52.277344 49.507812 52.613281 49.75 53 50.332031 C 53.101562 51.039062 53.078125 51.65625 52.792969 52.3125 C 52.265625 52.949219 52.023438 53.140625 51.175781 53.25 C 50.585938 53.230469 50.5 53.167969 50.011719 52.761719 C 49.898438 52.621094 49.785156 52.480469 49.667969 52.332031 C 49.613281 52.277344 49.558594 52.222656 49.5 52.167969 C 49.414062 51.4375 49.328125 50.664062 49.675781 49.996094 C 50.289062 49.257812 50.722656 49.074219 51.667969 49.167969 Z M 51.667969 49.167969 "/>
<path style=" stroke:none;fill-rule:nonzero;fill:rgb(93.725491%,33.333334%,6.666667%);fill-opacity:1;" d="M 10.667969 52.667969 C 11.558594 53.429688 12.410156 54.195312 13.25 55.011719 C 13.375 55.125 13.496094 55.242188 13.625 55.359375 C 13.738281 55.472656 13.855469 55.585938 13.972656 55.703125 C 14.078125 55.804688 14.183594 55.90625 14.292969 56.011719 C 14.5 56.332031 14.5 56.332031 14.460938 56.777344 C 14.332031 57.167969 14.332031 57.167969 14.167969 57.332031 C 13.90625 57.347656 13.644531 57.351562 13.382812 57.351562 C 13.242188 57.347656 13.101562 57.347656 12.957031 57.347656 C 12.773438 57.347656 12.59375 57.34375 12.40625 57.34375 C 11.832031 57.339844 11.257812 57.335938 10.667969 57.332031 C 10.667969 55.792969 10.667969 54.253906 10.667969 52.667969 Z M 10.667969 52.667969 "/>
<path style=" stroke:none;fill-rule:nonzero;fill:rgb(97.647059%,74.509805%,19.607843%);fill-opacity:1;" d="M 16.5 52.832031 C 17.359375 53.570312 18.191406 54.304688 19 55.09375 C 19.117188 55.203125 19.230469 55.308594 19.351562 55.421875 C 19.457031 55.527344 19.566406 55.632812 19.675781 55.738281 C 19.773438 55.835938 19.875 55.929688 19.976562 56.023438 C 20.167969 56.332031 20.167969 56.332031 20.125 56.777344 C 20 57.167969 20 57.167969 19.832031 57.332031 C 19.574219 57.347656 19.3125 57.351562 19.050781 57.347656 C 18.894531 57.347656 18.738281 57.347656 18.574219 57.347656 C 18.328125 57.347656 18.328125 57.347656 18.074219 57.34375 C 17.90625 57.34375 17.742188 57.34375 17.570312 57.339844 C 17.15625 57.339844 16.746094 57.335938 16.332031 57.332031 C 16.277344 57.222656 16.222656 57.113281 16.167969 57 C 16.277344 57 16.386719 57 16.5 57 C 16.5 55.625 16.5 54.25 16.5 52.832031 Z M 16.5 52.832031 "/>
<path style=" stroke:none;fill-rule:nonzero;fill:rgb(16.078432%,32.549021%,99.215686%);fill-opacity:1;" d="M 5.332031 53.5 C 6.085938 53.535156 6.421875 53.84375 6.925781 54.375 C 7.054688 54.511719 7.1875 54.644531 7.320312 54.785156 C 7.675781 55.175781 8.003906 55.585938 8.332031 56 C 8.5 56.109375 8.664062 56.21875 8.832031 56.332031 C 8.6875 57.144531 8.6875 57.144531 8.5 57.332031 C 7.976562 57.375 7.453125 57.363281 6.925781 57.363281 C 6.78125 57.367188 6.632812 57.367188 6.480469 57.371094 C 6.339844 57.371094 6.199219 57.371094 6.054688 57.371094 C 5.921875 57.371094 5.792969 57.375 5.660156 57.375 C 5.332031 57.332031 5.332031 57.332031 5 57 C 4.957031 56.675781 4.957031 56.675781 4.957031 56.285156 C 4.957031 56.144531 4.953125 56.007812 4.953125 55.859375 C 4.957031 55.640625 4.957031 55.640625 4.957031 55.417969 C 4.957031 55.269531 4.957031 55.125 4.953125 54.972656 C 4.953125 54.832031 4.957031 54.691406 4.957031 54.546875 C 4.957031 54.417969 4.957031 54.289062 4.957031 54.15625 C 5 53.832031 5 53.832031 5.332031 53.5 Z M 5.332031 53.5 "/>
<path style=" stroke:none;fill-rule:nonzero;fill:rgb(96.862745%,96.862745%,96.862745%);fill-opacity:1;" d="M 91.394531 49.199219 C 91.523438 49.207031 91.652344 49.214844 91.785156 49.226562 C 92.304688 49.371094 92.511719 49.570312 92.832031 50 C 92.996094 50.757812 93.046875 51.621094 92.65625 52.316406 C 92.214844 52.730469 91.742188 52.894531 91.15625 52.949219 C 90.5 52.832031 90.5 52.832031 90 52.4375 C 89.582031 51.84375 89.558594 51.265625 89.59375 50.558594 C 89.695312 50.007812 89.921875 49.707031 90.332031 49.332031 C 90.738281 49.132812 90.949219 49.160156 91.394531 49.199219 Z M 91.394531 49.199219 "/>
<path style=" stroke:none;fill-rule:nonzero;fill:rgb(96.078432%,96.078432%,96.078432%);fill-opacity:1;" d="M 41.5 46.5 C 43.78125 46.429688 43.78125 46.429688 44.5 47 C 44.6875 47.5625 44.6875 47.5625 44.667969 48.167969 C 44.335938 48.789062 44.335938 48.789062 43.832031 49 C 43.042969 49.070312 42.296875 49.039062 41.5 49 C 41.5 48.175781 41.5 47.351562 41.5 46.5 Z M 41.5 46.5 "/>
<path style=" stroke:none;fill-rule:nonzero;fill:rgb(91.764706%,91.764706%,91.764706%);fill-opacity:1;" d="M 25.65625 53.613281 C 26.167969 53.667969 26.167969 53.667969 26.488281 53.855469 C 26.667969 54.167969 26.667969 54.167969 26.644531 54.675781 C 26.5 55.167969 26.5 55.167969 26 55.5 C 25.445312 55.445312 25.230469 55.398438 24.832031 55 C 24.792969 54.5 24.792969 54.5 24.832031 54 C 25.167969 53.667969 25.167969 53.667969 25.65625 53.613281 Z M 25.65625 53.613281 "/>
</g>
</svg>
