<svg version="1.1" viewBox="0.0 0.0 755.9055118110236 75.59055118110236" fill="none" stroke="none" stroke-linecap="square" stroke-miterlimit="10" xmlns:xlink="http://www.w3.org/1999/xlink" xmlns="http://www.w3.org/2000/svg"><clipPath id="p.0"><path d="m0 0l755.9055 0l0 75.59055l-755.9055 0l0 -75.59055z" clip-rule="nonzero"/></clipPath><g clip-path="url(#p.0)"><path fill="#ffffff" d="m0 0l755.9055 0l0 75.59055l-755.9055 0z" fill-rule="evenodd"/><path fill="#000000" fill-opacity="0.0" d="m0.72440946 3.456693l757.63776 0l0 83.21259l-757.63776 0z" fill-rule="evenodd"/><path fill="#1c1e21" d="m14.935896 17.656065l5.234375 22.156248l0.078125 0l5.96875 -22.156248l3.84375 0l5.890627 22.156248l0.078125 0l5.40625 -22.156248l3.5625 0l-7.125 26.640623l-3.703125 0l-6.093752 -22.406248l-0.0625 0l-6.171875 22.406248l-3.703125 0l-6.8125 -26.640623l3.609375 0zm36.05768 0l0 10.1875l0.0625 0q0.703125 -1.5625 2.359375 -2.421875q1.65625 -0.859375 3.75 -0.859375q3.484375 0 5.0625 1.78125q1.578125 1.78125 1.578125 5.109375l0 12.843748l-3.171875 0l0 -13.171873q0 -1.640625 -1.046875 -2.703125q-1.046875 -1.078125 -2.90625 -1.078125q-2.6875 0 -4.1875 1.65625q-1.5 1.640625 -1.5 4.265623l0 11.03125l-3.171875 0l0 -26.640623l3.171875 0zm25.478882 6.90625q3.9375 0 5.578125 1.40625q1.65625 1.390625 1.65625 3.75q0 10.046873 0 11.140623q0 1.09375 1.0 1.09375q0.21875 0 0.46875 -0.046875q0.265625 -0.0625 0.5 -0.140625l0 2.453125q-0.4375 0.265625 -1.015625 0.390625q-0.5625 0.140625 -1.25 0.140625q-1.3125 0 -2.0 -0.734375q-0.6875 -0.734375 -0.6875 -2.25q-1.265625 1.5 -2.984375 2.25q-1.703125 0.734375 -3.8125 0.734375q-3.0 0 -4.703125 -1.40625q-1.6875 -1.421875 -1.6875 -4.0q0 -2.609375 1.65625 -4.125q1.671875 -1.53125 7.8125 -2.296875q2.078125 -0.265625 2.8125 -0.796875q0.734375 -0.5312481 0.734375 -1.5937481q0 -1.59375 -1.03125 -2.390625q-1.03125 -0.796875 -3.265625 -0.796875q-2.359375 0 -3.53125 0.890625q-1.171875 0.890625 -1.265625 2.78125l-3.171875 0q0.140625 -3.21875 2.25 -4.828125q2.125 -1.625 5.9375 -1.625zm-5.578125 14.546873q0 1.34375 0.984375 2.09375q0.984375 0.75 2.75 0.75q2.6875 0 4.28125 -1.328125q1.609375 -1.34375 1.609375 -2.984375l0 -3.3125q-0.796875 0.5625 -2.078125 0.765625q-1.28125 0.203125 -3.390625 0.484375q-2.109375 0.3125 -3.140625 1.15625q-1.015625 0.84375 -1.015625 2.375zm22.143036 -19.890623l0 5.78125l3.84375 0l0 2.796875l-3.84375 0l0 12.093748q0 1.4375 0.953125 1.515625q0.96875 0.078125 2.0 0.078125l0.890625 0l0 2.8125l-2.625 0q-2.609375 0 -3.5 -0.921875q-0.890625 -0.9375 -0.890625 -3.125l0 -12.453123l-3.296875 0l0 -2.796875l3.296875 0l0 -5.78125l3.171875 0zm21.064636 -1.5625l0 3.875l-3.171875 0l0 -3.875l3.171875 0zm0 7.34375l0 19.296873l-3.171875 0l0 -19.296873l3.171875 0zm11.355621 -0.4375q3.90625 0 5.796875 1.515625q1.90625 1.5 2.078125 4.515625l-3.171875 0l0 -0.046875q-0.125 -1.53125 -1.34375 -2.359375q-1.203125 -0.84375 -3.109375 -0.84375q-1.921875 0 -3.03125 0.65625q-1.09375 0.640625 -1.09375 1.8125q0 1.046875 0.96875 1.734375q0.984375 0.6718731 2.953125 1.0781231l2.984375 0.6875q2.8125 0.609375 4.265625 1.90625q1.453125 1.28125 1.453125 3.453125q0 2.84375 -2.203125 4.46875q-2.203125 1.609375 -6.015625 1.609375q-3.703125 0 -5.875 -1.65625q-2.15625 -1.65625 -2.3125 -4.890625l3.203125 0q0.046875 1.8125 1.40625 2.78125q1.375 0.96875 3.765625 0.96875q2.296875 0 3.484375 -0.734375q1.1875 -0.734375 1.1875 -2.15625q0 -1.296875 -1.1875 -2.046875q-1.171875 -0.75 -4.8125 -1.484375q-3.65625 -0.71875 -5.140625 -2.015625q-1.484375 -1.296875 -1.484375 -3.468748q0 -2.53125 2.0625 -4.0q2.0625 -1.484375 5.171875 -1.484375zm27.035019 -5.34375l0 5.78125l3.84375 0l0 2.796875l-3.84375 0l0 12.093748q0 1.4375 0.953125 1.515625q0.96875 0.078125 2.0 0.078125l0.890625 0l0 2.8125l-2.625 0q-2.609375 0 -3.5 -0.921875q-0.890625 -0.9375 -0.890625 -3.125l0 -12.453123l-3.296875 0l0 -2.796875l3.296875 0l0 -5.78125l3.171875 0zm10.521805 -1.5625l0 10.1875l0.0625 0q0.703125 -1.5625 2.359375 -2.421875q1.65625 -0.859375 3.75 -0.859375q3.484375 0 5.0625 1.78125q1.578125 1.78125 1.578125 5.109375l0 12.843748l-3.171875 0l0 -13.171873q0 -1.640625 -1.046875 -2.703125q-1.046875 -1.078125 -2.90625 -1.078125q-2.6875 0 -4.1875 1.65625q-1.5 1.640625 -1.5 4.265623l0 11.03125l-3.171875 0l0 -26.640623l3.171875 0zm25.603882 6.90625q4.15625 0 6.453125 2.984375q2.296875 2.984375 2.296875 7.671873l0 0.390625l-14.453125 0l0 0.234375q0 2.75 1.59375 4.4375q1.609375 1.671875 4.421875 1.671875q2.109375 0 3.359375 -0.984375q1.25 -0.984375 1.640625 -2.796875l3.125 0q-0.640625 3.203125 -2.8125 4.890625q-2.15625 1.6875 -5.421875 1.6875q-3.046875 0 -5.15625 -1.375q-2.09375 -1.375 -3.109375 -3.828125q-1.0 -2.453125 -1.0 -5.015625q0 -4.265623 2.5625 -7.109373q2.578125 -2.859375 6.5 -2.859375zm-5.703125 8.234373l11.078125 0q-0.140625 -2.359373 -1.703125 -3.906248q-1.5625 -1.546875 -3.890625 -1.546875q-2.1875 0 -3.734375 1.484375q-1.546875 1.46875 -1.75 3.968748z" fill-rule="nonzero"/><path fill="#010000" fill-opacity="0.0" d="m208.63232 7.9710283l276.1332 0l0 47.042915l-276.1332 0l0 -47.042915z" fill-rule="nonzero"/><path fill="#2a63b8" d="m215.4292 19.218565l0 5.78125l3.84375 0l0 2.796875l-3.84375 0l0 12.093748q0 1.4375 0.953125 1.515625q0.96875 0.078125 2.0 0.078125l0.890625 0l0 2.8125l-2.625 0q-2.609375 0 -3.5 -0.921875q-0.890625 -0.9375 -0.890625 -3.125l0 -12.453123l-3.296875 0l0 -2.796875l3.296875 0l0 -5.78125l3.171875 0zm15.222321 5.34375q4.375 0 6.859375 2.828125q2.5 2.8125 2.5 7.281248q0 4.5 -2.546875 7.296875q-2.546875 2.78125 -6.8125 2.78125q-4.1875 0 -6.78125 -2.734375q-2.59375 -2.75 -2.59375 -7.34375q0 -4.593748 2.53125 -7.343748q2.546875 -2.765625 6.84375 -2.765625zm-6.015625 10.109373q0 3.3125 1.6875 5.296875q1.703125 1.984375 4.328125 1.984375q2.609375 0 4.3125 -1.984375q1.703125 -2.0 1.703125 -5.296875q0 -3.296873 -1.703125 -5.312498q-1.6875 -2.015625 -4.34375 -2.015625q-2.5625 0 -4.28125 1.984375q-1.703125 1.96875 -1.703125 5.343748zm23.52826 -15.453123l0 5.78125l3.84375 0l0 2.796875l-3.84375 0l0 12.093748q0 1.4375 0.953125 1.515625q0.96875 0.078125 2.0 0.078125l0.890625 0l0 2.8125l-2.625 0q-2.609375 0 -3.5 -0.921875q-0.890625 -0.9375 -0.890625 -3.125l0 -12.453123l-3.296875 0l0 -2.796875l3.296875 0l0 -5.78125l3.171875 0zm15.24054 5.34375q3.9375 0 5.578125 1.40625q1.65625 1.390625 1.65625 3.75q0 10.046873 0 11.140623q0 1.09375 1.0 1.09375q0.21875 0 0.46875 -0.046875q0.265625 -0.0625 0.5 -0.140625l0 2.453125q-0.4375 0.265625 -1.015625 0.390625q-0.5625 0.140625 -1.25 0.140625q-1.3125 0 -2.0 -0.734375q-0.6875 -0.734375 -0.6875 -2.25q-1.265625 1.5 -2.984375 2.25q-1.703125 0.734375 -3.8125 0.734375q-3.0 0 -4.703125 -1.40625q-1.6874847 -1.421875 -1.6874847 -4.0q0 -2.609375 1.6562347 -4.125q1.671875 -1.53125 7.8125 -2.296875q2.078125 -0.265625 2.8125 -0.796875q0.734375 -0.5312481 0.734375 -1.5937481q0 -1.59375 -1.03125 -2.390625q-1.03125 -0.796875 -3.265625 -0.796875q-2.359375 0 -3.53125 0.890625q-1.171875 0.890625 -1.265625 2.78125l-3.1718597 0q0.140625 -3.21875 2.2499847 -4.828125q2.125 -1.625 5.9375 -1.625zm-5.578125 14.546873q0 1.34375 0.984375 2.09375q0.984375 0.75 2.75 0.75q2.6875 0 4.28125 -1.328125q1.609375 -1.34375 1.609375 -2.984375l0 -3.3125q-0.796875 0.5625 -2.078125 0.765625q-1.28125 0.203125 -3.390625 0.484375q-2.109375 0.3125 -3.140625 1.15625q-1.015625 0.84375 -1.015625 2.375zm21.080536 -21.453123l0 26.640623l-3.171875 0l0 -26.640623l3.171875 0zm23.648468 6.90625q4.375 0 6.859375 2.828125q2.5 2.8125 2.5 7.281248q0 4.5 -2.546875 7.296875q-2.546875 2.78125 -6.8125 2.78125q-4.1875 0 -6.78125 -2.734375q-2.59375 -2.75 -2.59375 -7.34375q0 -4.593748 2.53125 -7.343748q2.546875 -2.765625 6.84375 -2.765625zm-6.015625 10.109373q0 3.3125 1.6875 5.296875q1.703125 1.984375 4.328125 1.984375q2.609375 0 4.3125 -1.984375q1.703125 -2.0 1.703125 -5.296875q0 -3.296873 -1.703125 -5.312498q-1.6875 -2.015625 -4.34375 -2.015625q-2.5625 0 -4.28125 1.984375q-1.703125 1.96875 -1.703125 5.343748zm28.731384 -10.124998q0.109375 0 0.1875 0q0.09375 0 0.25 0.015625l0 3.34375q-3.578125 0 -5.28125 1.90625q-1.703125 1.890625 -1.703125 5.843748l0 8.640625l-3.171875 0l0 -19.296873l2.984375 0l0 4.0625l0.078125 0q1.109375 -2.296875 2.734375 -3.40625q1.640625 -1.109375 3.921875 -1.109375zm19.381042 -6.890625l0 26.640623l-3.171875 0l0 -2.609375l-0.0625 0q-0.75 1.5 -2.390625 2.28125q-1.625 0.78125 -3.78125 0.78125q-4.046875 0 -6.46875 -2.796875q-2.40625 -2.8125 -2.40625 -7.359375q0 -4.453123 2.34375 -7.234373q2.34375 -2.796875 6.453125 -2.796875q1.890625 0 3.59375 0.765625q1.703125 0.765625 2.65625 2.234375l0.0625 0l0 -9.90625l3.171875 0zm-14.921875 17.140623q0 3.125 1.609375 5.140625q1.609375 2.015625 4.375 2.015625q2.796875 0 4.328125 -2.015625q1.546875 -2.015625 1.546875 -5.265625q0 -3.296873 -1.59375 -5.312498q-1.578125 -2.015625 -4.53125 -2.015625q-2.734375 0 -4.234375 2.0q-1.5 2.0 -1.5 5.453123zm27.830261 -10.234373q4.15625 0 6.453125 2.984375q2.296875 2.984375 2.296875 7.671873l0 0.390625l-14.453125 0l0 0.234375q0 2.75 1.59375 4.4375q1.609375 1.671875 4.421875 1.671875q2.109375 0 3.359375 -0.984375q1.25 -0.984375 1.640625 -2.796875l3.125 0q-0.640625 3.203125 -2.8125 4.890625q-2.15625 1.6875 -5.421875 1.6875q-3.046875 0 -5.15625 -1.375q-2.09375 -1.375 -3.109375 -3.828125q-1.0 -2.453125 -1.0 -5.015625q0 -4.265623 2.5625 -7.109373q2.578125 -2.859375 6.5 -2.859375zm-5.703125 8.234373l11.078125 0q-0.140625 -2.359373 -1.703125 -3.906248q-1.5625 -1.546875 -3.890625 -1.546875q-2.1875 0 -3.734375 1.484375q-1.546875 1.46875 -1.75 3.968748zm27.34616 -8.249998q0.109375 0 0.1875 0q0.09375 0 0.25 0.015625l0 3.34375q-3.578125 0 -5.28125 1.90625q-1.703125 1.890625 -1.703125 5.843748l0 8.640625l-3.171875 0l0 -19.296873l2.984375 0l0 4.0625l0.078125 0q1.109375 -2.296875 2.734375 -3.40625q1.640625 -1.109375 3.921875 -1.109375zm21.239014 0.015625q3.546875 0 5.75 1.671875q2.203125 1.671875 2.578125 4.953125l-3.265625 0q-0.390625 -1.875 -1.640625 -2.859375q-1.25 -0.984375 -3.140625 -0.984375q-2.953125 0 -4.484375 1.984375q-1.53125 1.96875 -1.53125 5.562498q0 3.203125 1.515625 5.140625q1.515625 1.921875 4.109375 1.921875q2.328125 0 3.65625 -1.25q1.34375 -1.25 1.65625 -3.453125l3.234375 0q-0.515625 3.609375 -2.703125 5.5625q-2.1875 1.9375 -5.796875 1.9375q-4.21875 0 -6.625 -2.640625q-2.40625 -2.65625 -2.40625 -7.21875q0 -4.734373 2.4375 -7.531248q2.4375 -2.796875 6.65625 -2.796875zm20.330536 0q4.375 0 6.859375 2.828125q2.5 2.8125 2.5 7.281248q0 4.5 -2.546875 7.296875q-2.546875 2.78125 -6.8125 2.78125q-4.1875 0 -6.78125 -2.734375q-2.59375 -2.75 -2.59375 -7.34375q0 -4.593748 2.53125 -7.343748q2.546875 -2.765625 6.84375 -2.765625zm-6.015625 10.109373q0 3.3125 1.6875 5.296875q1.703125 1.984375 4.328125 1.984375q2.609375 0 4.3125 -1.984375q1.703125 -2.0 1.703125 -5.296875q0 -3.296873 -1.703125 -5.312498q-1.6875 -2.015625 -4.34375 -2.015625q-2.5625 0 -4.28125 1.984375q-1.703125 1.96875 -1.703125 5.343748zm22.293884 -9.671873l0 13.156248q0 1.640625 1.046875 2.71875q1.046875 1.078125 2.890625 1.078125q2.734375 0 4.21875 -1.671875q1.484375 -1.671875 1.484375 -4.265625l0 -11.015623l3.171875 0l0 19.296873l-2.984375 0l0 -3.0625l-0.078125 0q-1.0625 1.84375 -2.65625 2.6875q-1.578125 0.828125 -3.640625 0.828125q-3.359375 0 -5.0 -1.734375q-1.625 -1.75 -1.625 -5.15625l0 -12.859373l3.171875 0zm26.932007 -0.4375q3.484375 0 5.0625 1.78125q1.578125 1.78125 1.578125 5.109375l0 12.843748l-3.171875 0l0 -13.171873q0 -1.640625 -1.046875 -2.703125q-1.046875 -1.078125 -2.90625 -1.078125q-2.6875 0 -4.1875 1.65625q-1.5 1.640625 -1.5 4.265623l0 11.03125l-3.171875 0l0 -19.296873l2.984375 0l0 3.0625l0.078125 0q1.046875 -1.8125 2.59375 -2.65625q1.546875 -0.84375 3.6875 -0.84375zm15.822632 -5.34375l0 5.78125l3.84375 0l0 2.796875l-3.84375 0l0 12.093748q0 1.4375 0.953125 1.515625q0.96875 0.078125 2.0 0.078125l0.890625 0l0 2.8125l-2.625 0q-2.609375 0 -3.5 -0.921875q-0.890625 -0.9375 -0.890625 -3.125l0 -12.453123l-3.296875 0l0 -2.796875l3.296875 0l0 -5.78125l3.171875 0z" fill-rule="nonzero"/><path fill="#1c1e21" d="m503.93338 24.562315q3.90625 0 5.796875 1.515625q1.90625 1.5 2.078125 4.515625l-3.171875 0l0 -0.046875q-0.125 -1.53125 -1.34375 -2.359375q-1.203125 -0.84375 -3.109375 -0.84375q-1.921875 0 -3.03125 0.65625q-1.09375 0.640625 -1.09375 1.8125q0 1.046875 0.96875 1.734375q0.984375 0.6718731 2.953125 1.0781231l2.984375 0.6875q2.8125 0.609375 4.265625 1.90625q1.4531555 1.28125 1.4531555 3.453125q0 2.84375 -2.2031555 4.46875q-2.203125 1.609375 -6.015625 1.609375q-3.703125 0 -5.875 -1.65625q-2.15625 -1.65625 -2.3125 -4.890625l3.203125 0q0.046875 1.8125 1.40625 2.78125q1.375 0.96875 3.765625 0.96875q2.296875 0 3.484375 -0.734375q1.1875 -0.734375 1.1875 -2.15625q0 -1.296875 -1.1875 -2.046875q-1.171875 -0.75 -4.8125 -1.484375q-3.65625 -0.71875 -5.140625 -2.015625q-1.484375 -1.296875 -1.484375 -3.468748q0 -2.53125 2.0625 -4.0q2.0625 -1.484375 5.171875 -1.484375zm21.773468 0q4.140625 0 6.515625 2.84375q2.375 2.84375 2.375 7.296873q0 4.484375 -2.375 7.265625q-2.359375 2.78125 -6.421875 2.78125q-1.8125 0 -3.53125 -0.734375q-1.71875 -0.75 -2.734375 -2.28125l-0.0625 0l0 9.96875l-3.171875 0l0 -26.703123l3.171875 0l0 2.625l0.0625 0q0.75 -1.5 2.359375 -2.28125q1.625 -0.78125 3.8125 -0.78125zm-6.34375 10.078123q0 3.34375 1.609375 5.328125q1.625 1.984375 4.46875 1.984375q2.765625 0 4.265625 -1.96875q1.515625 -1.96875 1.515625 -5.5q0 -3.109373 -1.59375 -5.124998q-1.59375 -2.015625 -4.40625 -2.015625q-2.78125 0 -4.328125 2.046875q-1.53125 2.03125 -1.53125 5.249998zm22.29895 -16.984373l0 26.640623l-3.171875 0l0 -26.640623l3.171875 0zm8.293152 0l0 3.875l-3.171875 0l0 -3.875l3.171875 0zm0 7.34375l0 19.296873l-3.171875 0l0 -19.296873l3.171875 0zm9.355652 -5.78125l0 5.78125l3.84375 0l0 2.796875l-3.84375 0l0 12.093748q0 1.4375 0.953125 1.515625q0.96875 0.078125 2.0 0.078125l0.890625 0l0 2.8125l-2.625 0q-2.609375 0 -3.5 -0.921875q-0.890625 -0.9375 -0.890625 -3.125l0 -12.453123l-3.296875 0l0 -2.796875l3.296875 0l0 -5.78125l3.171875 0zm21.002075 -1.5625l0 9.96875l0.0625 0q0.75 -1.5 2.34375 -2.28125q1.59375 -0.78125 3.828125 -0.78125q4.140625 0 6.515625 2.84375q2.375 2.84375 2.375 7.296873q0 4.484375 -2.375 7.265625q-2.359375 2.78125 -6.421875 2.78125q-1.8125 0 -3.53125 -0.734375q-1.71875 -0.75 -2.734375 -2.28125l-0.0625 0l0 2.5625l-3.171875 0l0 -26.640623l3.171875 0zm-0.109375 16.984373q0 3.34375 1.609375 5.328125q1.625 1.984375 4.46875 1.984375q2.765625 0 4.265625 -1.96875q1.515625 -1.96875 1.515625 -5.5q0 -3.109373 -1.59375 -5.124998q-1.59375 -2.015625 -4.40625 -2.015625q-2.78125 0 -4.328125 2.046875q-1.53125 2.03125 -1.53125 5.249998zm20.439636 -9.640623l5.640625 15.781248l0.078125 0l5.40625 -15.781248l3.375 0l-8.203125 21.359373q-1.296875 3.328125 -2.5 4.5q-1.1875 1.171875 -3.296875 1.171875q-0.578125 0 -1.125 -0.078125q-0.546875 -0.078125 -1.078125 -0.25l0 -2.921875q0.453125 0.140625 0.90625 0.28125q0.46875 0.15625 0.953125 0.15625q1.921875 0 2.6875 -1.9375q0.765625 -1.921875 1.234375 -3.09375l-7.65625 -19.187498l3.578125 0z" fill-rule="nonzero"/><path fill="#010000" fill-opacity="0.0" d="m625.8032 7.9710283l101.6499 0l0 47.042915l-101.6499 0l0 -47.042915z" fill-rule="nonzero"/><path fill="#e69138" d="m634.6001 24.562315q3.90625 0 5.796875 1.515625q1.90625 1.5 2.078125 4.515625l-3.171875 0l0 -0.046875q-0.125 -1.53125 -1.34375 -2.359375q-1.203125 -0.84375 -3.109375 -0.84375q-1.921875 0 -3.03125 0.65625q-1.09375 0.640625 -1.09375 1.8125q0 1.046875 0.96875 1.734375q0.984375 0.6718731 2.953125 1.0781231l2.984375 0.6875q2.8125 0.609375 4.265625 1.90625q1.453125 1.28125 1.453125 3.453125q0 2.84375 -2.203125 4.46875q-2.203125 1.609375 -6.015625 1.609375q-3.703125 0 -5.875 -1.65625q-2.15625 -1.65625 -2.3125 -4.890625l3.203125 0q0.046875 1.8125 1.40625 2.78125q1.375 0.96875 3.765625 0.96875q2.296875 0 3.484375 -0.734375q1.1875 -0.734375 1.1875 -2.15625q0 -1.296875 -1.1875 -2.046875q-1.171875 -0.75 -4.8125 -1.484375q-3.65625 -0.71875 -5.140625 -2.015625q-1.484375 -1.296875 -1.484375 -3.468748q0 -2.53125 2.0625 -4.0q2.0625 -1.484375 5.171875 -1.484375zm16.664062 -5.34375l0 5.78125l3.84375 0l0 2.796875l-3.84375 0l0 12.093748q0 1.4375 0.953125 1.515625q0.96875 0.078125 2.0 0.078125l0.890625 0l0 2.8125l-2.625 0q-2.609375 0 -3.5 -0.921875q-0.890625 -0.9375 -0.890625 -3.125l0 -12.453123l-3.296875 0l0 -2.796875l3.296875 0l0 -5.78125l3.171875 0zm15.24054 5.34375q3.9375 0 5.578125 1.40625q1.65625 1.390625 1.65625 3.75q0 10.046873 0 11.140623q0 1.09375 1.0 1.09375q0.21875 0 0.46875 -0.046875q0.265625 -0.0625 0.5 -0.140625l0 2.453125q-0.4375 0.265625 -1.015625 0.390625q-0.5625 0.140625 -1.25 0.140625q-1.3125 0 -2.0 -0.734375q-0.6875 -0.734375 -0.6875 -2.25q-1.265625 1.5 -2.984375 2.25q-1.703125 0.734375 -3.8125 0.734375q-3.0 0 -4.703125 -1.40625q-1.6875 -1.421875 -1.6875 -4.0q0 -2.609375 1.65625 -4.125q1.671875 -1.53125 7.8125 -2.296875q2.078125 -0.265625 2.8125 -0.796875q0.734375 -0.5312481 0.734375 -1.5937481q0 -1.59375 -1.03125 -2.390625q-1.03125 -0.796875 -3.265625 -0.796875q-2.359375 0 -3.53125 0.890625q-1.171875 0.890625 -1.265625 2.78125l-3.171875 0q0.140625 -3.21875 2.25 -4.828125q2.125 -1.625 5.9375 -1.625zm-5.578125 14.546873q0 1.34375 0.984375 2.09375q0.984375 0.75 2.75 0.75q2.6875 0 4.28125 -1.328125q1.609375 -1.34375 1.609375 -2.984375l0 -3.3125q-0.796875 0.5625 -2.078125 0.765625q-1.28125 0.203125 -3.390625 0.484375q-2.109375 0.3125 -3.140625 1.15625q-1.015625 0.84375 -1.015625 2.375zm22.143066 -19.890623l0 5.78125l3.84375 0l0 2.796875l-3.84375 0l0 12.093748q0 1.4375 0.953125 1.515625q0.96875 0.078125 2.0 0.078125l0.890625 0l0 2.8125l-2.625 0q-2.609375 0 -3.5 -0.921875q-0.890625 -0.9375 -0.890625 -3.125l0 -12.453123l-3.296875 0l0 -2.796875l3.296875 0l0 -5.78125l3.171875 0zm10.52179 5.78125l0 13.156248q0 1.640625 1.046875 2.71875q1.046875 1.078125 2.890625 1.078125q2.734375 0 4.21875 -1.671875q1.484375 -1.671875 1.484375 -4.265625l0 -11.015623l3.171875 0l0 19.296873l-2.984375 0l0 -3.0625l-0.078125 0q-1.0625 1.84375 -2.65625 2.6875q-1.578125 0.828125 -3.640625 0.828125q-3.359375 0 -5.0 -1.734375q-1.625 -1.75 -1.625 -5.15625l0 -12.859373l3.171875 0zm23.994507 -0.4375q3.90625 0 5.796875 1.515625q1.90625 1.5 2.078125 4.515625l-3.171875 0l0 -0.046875q-0.125 -1.53125 -1.34375 -2.359375q-1.203125 -0.84375 -3.109375 -0.84375q-1.921875 0 -3.03125 0.65625q-1.09375 0.640625 -1.09375 1.8125q0 1.046875 0.96875 1.734375q0.984375 0.6718731 2.953125 1.0781231l2.984375 0.6875q2.8125 0.609375 4.265625 1.90625q1.453125 1.28125 1.453125 3.453125q0 2.84375 -2.203125 4.46875q-2.203125 1.609375 -6.015625 1.609375q-3.703125 0 -5.875 -1.65625q-2.15625 -1.65625 -2.3125 -4.890625l3.203125 0q0.046875 1.8125 1.40625 2.78125q1.375 0.96875 3.765625 0.96875q2.296875 0 3.484375 -0.734375q1.1875 -0.734375 1.1875 -2.15625q0 -1.296875 -1.1875 -2.046875q-1.171875 -0.75 -4.8125 -1.484375q-3.65625 -0.71875 -5.140625 -2.015625q-1.484375 -1.296875 -1.484375 -3.468748q0 -2.53125 2.0625 -4.0q2.0625 -1.484375 5.171875 -1.484375z" fill-rule="nonzero"/><path fill="#1c1e21" d="m737.8281 17.01544q3.59375 0 5.734375 2.015625q2.15625 2.015625 2.15625 5.453125q0 1.84375 -0.8125 3.359375q-0.796875 1.5 -2.6875 3.21875q-1.296875 1.1874981 -1.90625 2.078123q-0.59375 0.875 -0.828125 1.625q-0.234375 0.734375 -0.234375 1.90625l0 1.140625l-3.171875 0l0 -1.609375q0 -1.765625 0.71875 -3.1875q0.71875 -1.4218731 2.5625 -3.124998q1.96875 -1.8125 2.484375 -2.96875q0.515625 -1.15625 0.515625 -2.3125q0 -2.171875 -1.1875 -3.484375q-1.171875 -1.3125 -3.34375 -1.3125q-2.46875 0 -3.8125 1.640625q-1.34375 1.625 -1.34375 4.5l-3.203125 0l0 -0.390625q0 -3.578125 2.265625 -6.0625q2.28125 -2.484375 6.09375 -2.484375zm1.875 23.140623l0 4.140625l-4.15625 0l0 -4.140625l4.15625 0z" fill-rule="nonzero"/><path fill="#2a63b8" d="m208.63232 46.723354l276.1332 0l0 3.3600006l-276.1332 0l0 -3.3600006z" fill-rule="nonzero"/><path fill="#e69138" d="m625.8032 46.723354l101.6499 0l0 3.3600006l-101.6499 0l0 -3.3600006z" fill-rule="nonzero"/><path fill="#000000" fill-opacity="0.0" d="m277.8819 37.795277l129.00787 0l0 45.25984l-129.00787 0z" fill-rule="evenodd"/><path fill="#2a63b8" d="m319.22644 55.994026q1.21875 0 1.984375 0.5q0.765625 0.484375 1.046875 1.375q0.5625 -0.890625 1.46875 -1.375q0.90625 -0.5 2.0 -0.5q1.859375 0 2.75 0.84375q0.90625 0.84375 0.90625 2.28125l0 8.15625l-1.8125 0l0 -7.3125q0 -1.1875 -0.515625 -1.78125q-0.5 -0.59375 -1.625 -0.59375q-1.34375 0 -2.109375 0.796875q-0.75 0.78125 -0.75 1.96875l0 6.921875l-1.828125 0l0 -7.3125q0 -1.1875 -0.5 -1.78125q-0.5 -0.59375 -1.5625 -0.59375q-0.859375 0 -1.53125 0.421875q-0.671875 0.40625 -1.046875 1.140625q-0.375 0.71875 -0.375 1.21875l0 6.90625l-1.8125 0l0 -11.03125l1.71875 0l0 1.625l0.03125 0q0.625 -0.953125 1.515625 -1.40625q0.890625 -0.46875 2.046875 -0.46875zm17.474731 0q2.375 0 3.671875 1.71875q1.3125 1.703125 1.3125 4.375l0 0.21875l-8.25 0l0 0.140625q0 1.5625 0.90625 2.53125q0.921875 0.953125 2.53125 0.953125q1.203125 0 1.921875 -0.5625q0.71875 -0.5625 0.9375 -1.59375l1.78125 0q-0.359375 1.828125 -1.609375 2.796875q-1.234375 0.96875 -3.09375 0.96875q-1.734375 0 -2.9375 -0.78125q-1.203125 -0.796875 -1.78125 -2.1875q-0.578125 -1.40625 -0.578125 -2.875q0 -2.4375 1.46875 -4.0625q1.46875 -1.640625 3.71875 -1.640625zm-3.265625 4.703125l6.328125 0q-0.078125 -1.34375 -0.96875 -2.21875q-0.890625 -0.890625 -2.21875 -0.890625q-1.25 0 -2.140625 0.84375q-0.890625 0.84375 -1.0 2.265625zm12.658661 -7.75l0 3.296875l2.1875 0l0 1.609375l-2.1875 0l0 6.90625q0 0.8125 0.546875 0.859375q0.546875 0.046875 1.140625 0.046875l0.5 0l0 1.609375l-1.5 0q-1.484375 0 -2.0 -0.53125q-0.5 -0.53125 -0.5 -1.78125l0 -7.109375l-1.890625 0l0 -1.609375l1.890625 0l0 -3.296875l1.8125 0zm9.685852 3.046875q0.0625 0 0.109375 0q0.046875 0 0.140625 0l0 1.921875q-2.046875 0 -3.03125 1.078125q-0.96875 1.078125 -0.96875 3.34375l0 4.9375l-1.8125 0l0 -11.03125l1.71875 0l0 2.328125l0.03125 0q0.640625 -1.3125 1.5625 -1.9375q0.9375 -0.640625 2.25 -0.640625zm3.5243225 -3.9375l0 2.21875l-1.8125 0l0 -2.21875l1.8125 0zm0 4.1875l0 11.03125l-1.8125 0l0 -11.03125l1.8125 0zm7.425934 -0.25q2.015625 0 3.28125 0.96875q1.265625 0.953125 1.46875 2.828125l-1.859375 0q-0.21875 -1.078125 -0.9375 -1.640625q-0.71875 -0.5625 -1.796875 -0.5625q-1.6875 0 -2.5625 1.140625q-0.875 1.125 -0.875 3.171875q0 1.828125 0.859375 2.9375q0.875 1.09375 2.359375 1.09375q1.328125 0 2.09375 -0.703125q0.765625 -0.71875 0.9375 -1.984375l1.84375 0q-0.296875 2.0625 -1.546875 3.1875q-1.25 1.109375 -3.3125 1.109375q-2.40625 0 -3.78125 -1.515625q-1.375 -1.515625 -1.375 -4.125q0 -2.703125 1.390625 -4.296875q1.390625 -1.609375 3.8125 -1.609375z" fill-rule="nonzero"/><path fill="#000000" fill-opacity="0.0" d="m610.5171 39.417324l129.00787 0l0 42.015743l-129.00787 0z" fill-rule="evenodd"/><path fill="#e69138" d="m641.79565 53.024822l0 13.312496l-1.59375 0l0 -1.296875l-0.03125 0q-0.375 0.734375 -1.1875 1.140625q-0.8125 0.390625 -1.890625 0.390625q-2.015625 0 -3.234375 -1.40625q-1.203125 -1.4062462 -1.203125 -3.6718712q0 -2.234375 1.171875 -3.625q1.171875 -1.390625 3.21875 -1.390625q0.953125 0 1.796875 0.390625q0.859375 0.375 1.328125 1.109375l0.03125 0l0 -4.953125l1.59375 0zm-7.46875 8.5625q0 1.5625 0.8125 2.5781212q0.8125 1.0 2.1875 1.0q1.390625 0 2.15625 -1.0q0.78125 -1.0156212 0.78125 -2.6406212q0 -1.640625 -0.796875 -2.640625q-0.78125 -1.015625 -2.265625 -1.015625q-1.359375 0 -2.125 1.0q-0.75 0.984375 -0.75 2.71875zm11.59021 -8.5625l0 1.9375l-1.59375 0l0 -1.9375l1.59375 0zm0 3.671875l0 9.640621l-1.59375 0l0 -9.640621l1.59375 0zm7.1135864 -0.21875q1.046875 0 1.71875 0.421875q0.671875 0.421875 0.921875 1.21875q0.5 -0.78125 1.28125 -1.203125q0.796875 -0.4375 1.765625 -0.4375q1.625 0 2.40625 0.734375q0.78125 0.734375 0.78125 2.0l0 7.124996l-1.578125 0l0 -6.390621q0 -1.046875 -0.453125 -1.5625q-0.4375 -0.515625 -1.421875 -0.515625q-1.1875 0 -1.859375 0.6875q-0.65625 0.6875 -0.65625 1.71875l0 6.062496l-1.59375 0l0 -6.390621q0 -1.046875 -0.4375 -1.5625q-0.4375 -0.515625 -1.359375 -0.515625q-0.765625 0 -1.34375 0.359375q-0.578125 0.359375 -0.90625 1.0q-0.328125 0.625 -0.328125 1.0625l0 6.046871l-1.59375 0l0 -9.640621l1.5 0l0 1.421875l0.03125 0q0.546875 -0.84375 1.3125 -1.234375q0.78125 -0.40625 1.8125 -0.40625zm15.273621 0q2.078125 0 3.21875 1.5q1.15625 1.484375 1.15625 3.828125l0 0.1875l-7.234375 0l0 0.109375q0 1.390625 0.796875 2.2343712q0.8125 0.828125 2.21875 0.828125q1.046875 0 1.671875 -0.484375q0.625 -0.5 0.828125 -1.4062462l1.5625 0q-0.328125 1.6093712 -1.40625 2.4531212q-1.078125 0.84375 -2.71875 0.84375q-1.515625 0 -2.578125 -0.6875q-1.046875 -0.6875 -1.546875 -1.9062462q-0.5 -1.234375 -0.5 -2.515625q0 -2.140625 1.28125 -3.5625q1.296875 -1.421875 3.25 -1.421875zm-2.859375 4.109375l5.546875 0q-0.078125 -1.171875 -0.859375 -1.9375q-0.765625 -0.78125 -1.9375 -0.78125q-1.09375 0 -1.875 0.734375q-0.765625 0.734375 -0.875 1.984375zm13.536072 -4.109375q1.75 0 2.53125 0.890625q0.796875 0.890625 0.796875 2.546875l0 6.421871l-1.59375 0l0 -6.593746q0 -0.8125 -0.53125 -1.34375q-0.515625 -0.53125 -1.4375 -0.53125q-1.34375 0 -2.09375 0.828125q-0.75 0.8125 -0.75 2.125l0 5.515621l-1.59375 0l0 -9.640621l1.5 0l0 1.53125l0.03125 0q0.53125 -0.90625 1.296875 -1.328125q0.78125 -0.421875 1.84375 -0.421875zm8.922607 0q1.9375 0 2.890625 0.75q0.953125 0.75 1.03125 2.265625l-1.578125 0l0 -0.03125q-0.0625 -0.765625 -0.671875 -1.171875q-0.609375 -0.421875 -1.5625 -0.421875q-0.953125 0 -1.515625 0.328125q-0.546875 0.3125 -0.546875 0.90625q0 0.515625 0.484375 0.859375q0.5 0.328125 1.484375 0.546875l1.484375 0.328125q1.40625 0.3125 2.125 0.953125q0.734375 0.640625 0.734375 1.734375q0 1.4218712 -1.109375 2.2343712q-1.09375 0.8125 -2.984375 0.8125q-1.859375 0 -2.953125 -0.828125q-1.078125 -0.84375 -1.140625 -2.4531212l1.59375 0q0.03125 0.9062462 0.703125 1.3906212q0.6875 0.484375 1.875 0.484375q1.15625 0 1.75 -0.359375q0.59375 -0.375 0.59375 -1.0781212q0 -0.65625 -0.59375 -1.03125q-0.59375 -0.375 -2.40625 -0.734375q-1.828125 -0.359375 -2.578125 -1.015625q-0.734375 -0.65625 -0.734375 -1.734375q0 -1.265625 1.03125 -2.0q1.03125 -0.734375 2.59375 -0.734375zm7.796875 -3.453125l0 1.9375l-1.59375 0l0 -1.9375l1.59375 0zm0 3.671875l0 9.640621l-1.59375 0l0 -9.640621l1.59375 0zm6.6292114 -0.21875q2.1875 0 3.421875 1.40625q1.25 1.40625 1.25 3.640625q0 2.25 -1.28125 3.6562462q-1.265625 1.390625 -3.390625 1.390625q-2.09375 0 -3.390625 -1.375q-1.296875 -1.3749962 -1.296875 -3.6718712q0 -2.296875 1.265625 -3.671875q1.265625 -1.375 3.421875 -1.375zm-3.015625 5.046875q0 1.65625 0.84375 2.6562462q0.859375 0.984375 2.171875 0.984375q1.296875 0 2.140625 -0.984375q0.859375 -0.9999962 0.859375 -2.6562462q0 -1.640625 -0.84375 -2.640625q-0.84375 -1.015625 -2.171875 -1.015625q-1.28125 0 -2.140625 0.984375q-0.859375 0.984375 -0.859375 2.671875zm14.228394 -5.046875q1.75 0 2.53125 0.890625q0.796875 0.890625 0.796875 2.546875l0 6.421871l-1.59375 0l0 -6.593746q0 -0.8125 -0.53125 -1.34375q-0.515625 -0.53125 -1.4375 -0.53125q-1.34375 0 -2.09375 0.828125q-0.75 0.8125 -0.75 2.125l0 5.515621l-1.59375 0l0 -9.640621l1.5 0l0 1.53125l0.03125 0q0.53125 -0.90625 1.296875 -1.328125q0.78125 -0.421875 1.84375 -0.421875z" fill-rule="nonzero"/></g></svg>