<svg version="1.1" id="Layer_1" xmlns="http://www.w3.org/2000/svg" xmlns:xlink="http://www.w3.org/1999/xlink" x="0px" y="0px" viewBox="0 0 82.9 95.6" style="enable-background:new 0 0 82.9 95.6;" xml:space="preserve">
 <style type="text/css">
  .st0{fill:#FF6492;}
	.st1{fill:#141446;}
	.st2{fill:#A14474;}
	.st3{fill:#7A77FF;}
 </style>
 <g>
  <path class="st0" d="M82.9,24L41.5,0v16.6l41.4,23.9V24L82.9,24z">
  </path>
  <path class="st1" d="M82.9,40.6l-12.4,7.3L41.4,31l-16.6,9.6l-12.4-6.7l29-17.2C41.4,16.6,82.9,40.6,82.9,40.6z">
  </path>
  <path class="st2" d="M24.9,40.6l-12.4-6.7v14C12.4,47.8,24.9,40.6,24.9,40.6z">
  </path>
  <path class="st1" d="M0,71.6l41.4-23.8l41.4,23.8l-41.4,24L0,71.6z">
  </path>
  <path class="st0" d="M82.9,55.1L41.4,30.8v17.1l41.4,23.8V55.1z">
  </path>
  <path class="st3" d="M12.4,47.8v-14l29-17.2V0L0,24v47.6l41.4-23.8V30.8L12.4,47.8z">
  </path>
 </g>
</svg>