<svg xmlns="http://www.w3.org/2000/svg" width="80" height="80"><defs><linearGradient id="a" x1="0%" x2="100%" y1="100%" y2="0%"><stop offset="0%" stop-color="#4D27A8"/><stop offset="100%" stop-color="#A166FF"/></linearGradient></defs><g fill="none" fill-rule="evenodd"><path fill="url(#a)" d="M0 0h80v80H0z"/><path fill="#FFF" d="M38.295 27.227c4.492 0 6.953 1.006 7.401 1.51-.448.506-2.909 1.512-7.4 1.512-4.493 0-6.954-1.006-7.402-1.511.448-.505 2.909-1.511 7.401-1.511Zm-.511 8.055a.509.509 0 0 1 .222-.96c.08 0 .154.022.223.058l-.445.902Zm5.783 8.309c-.074.06-.245.177-.596.318a7.845 7.845 0 0 1-1.103.337c-1.115.262-2.487.406-3.863.406-3.008 0-5.104-.65-5.556-1.053L31.116 31.15c2.044.836 5.054 1.113 7.18 1.113 2.088 0 5.033-.269 7.076-1.073l-.797 5.475c-1.502-.567-3.376-1.389-5.151-2.253a1.484 1.484 0 0 0-1.418-1.088c-.818 0-1.483.676-1.483 1.505 0 .831.665 1.506 1.483 1.506.194 0 .378-.04.547-.109 2.481 1.225 4.33 2.011 5.722 2.496l-.708 4.868ZM28.872 28.847l1.607 15.003c.113 2.784 7.22 2.817 7.526 2.817 1.522 0 3.052-.164 4.31-.458.515-.12.981-.264 1.385-.426 1.174-.471 1.789-1.114 1.832-1.909l.669-4.598c.455.094.827.135 1.124.135.934 0 1.18-.383 1.35-.647.179-.278.23-.62.147-.963-.19-.79-1.305-1.83-2.05-2.447l.941-6.469-.009-.001c.004-.05.02-.096.02-.146 0-2.784-5.927-3.526-9.429-3.526-3.502 0-9.43.742-9.43 3.526 0 .037.014.07.016.108h-.01Zm8.964-8.787c8.65 0 15.689 7.144 15.689 15.925 0 8.78-7.038 15.924-15.69 15.924s-15.69-7.143-15.69-15.924c0-8.781 7.038-15.925 15.69-15.925Zm-24.85 21.775v2.015h8.932v-.12c2.856 6.02 8.908 10.194 15.918 10.194 9.744 0 17.674-8.047 17.674-17.94 0-9.892-7.93-17.94-17.674-17.94-7.583 0-14.045 4.88-16.55 11.701h-8.3v2.015h7.69a18.148 18.148 0 0 0-.506 4.03H11v2.015h9.252c.14 1.4.454 2.743.893 4.03h-8.16Zm54.094 24.2c-1.201 1.221-3.283 1.228-4.483.011L51.933 55.221a23.996 23.996 0 0 0 4.56-4.545l10.599 10.81c.596.606.925 1.414.923 2.273a3.213 3.213 0 0 1-.935 2.276Zm1.417-5.972L57.662 49.01a24.094 24.094 0 0 0 3.803-13.025c0-13.226-10.6-23.985-23.63-23.985-9.362 0-17.852 5.62-21.631 14.317l1.816.812c3.461-7.966 11.239-13.114 19.816-13.114 11.935 0 21.644 9.855 21.644 21.97 0 12.113-9.71 21.97-21.644 21.97-7.974 0-15.279-4.43-19.067-11.561l-1.747.957c4.134 7.783 12.11 12.618 20.814 12.618a23.22 23.22 0 0 0 12.424-3.595l10.934 11.098A5.07 5.07 0 0 0 64.828 69c1.38 0 2.679-.547 3.653-1.537a5.231 5.231 0 0 0 1.519-3.7 5.224 5.224 0 0 0-1.503-3.7Z"/></g></svg>