<svg width="451" height="480" viewBox="0 0 451 480" fill="none" xmlns="http://www.w3.org/2000/svg">
<path fill-rule="evenodd" clip-rule="evenodd" d="M112.529 62.2103L0.528999 124.593L0.264 130.883L0 137.173L110.577 198.673C171.394 232.498 222.149 260.562 223.366 261.037C225.211 261.757 242.486 252.493 327.32 205.287C383.278 174.149 429.279 148.673 429.545 148.673C429.811 148.673 430.027 159.81 430.025 173.423L430.022 198.173L328.287 255.137C272.334 286.468 225.872 312.102 225.039 312.102C224.206 312.102 175.399 285.16 116.58 252.232L9.635 192.362L5.082 194.768L0.528999 197.173L0.268 239.796L0.00799942 282.419L111.651 344.296C173.055 378.328 223.831 406.303 224.488 406.463C225.145 406.622 270.648 381.833 325.606 351.375C380.563 320.917 426.541 295.458 427.779 294.8L430.029 293.603V318.398V343.194L328.279 400.148C272.317 431.472 225.852 457.102 225.024 457.102C224.195 457.102 175.391 430.162 116.57 397.235L9.621 337.369L5.075 339.771L0.528999 342.173L0.286999 348.673L0.0450001 355.173L112.537 417.404L225.029 479.634L337.489 417.404L449.949 355.173L449.989 312.44L450.029 269.707L445.236 267.278L440.443 264.849L333.486 324.743C274.66 357.685 225.854 384.637 225.029 384.636C224.204 384.634 177.854 359.055 122.029 327.793L20.529 270.953L20.262 246.313C20.114 232.761 20.168 221.673 20.381 221.673C20.594 221.673 66.727 247.101 122.9 278.18L225.032 334.686L337.495 272.43L449.958 210.173L449.993 168.171L450.029 126.17L445.507 123.771C441.72 121.762 440.58 121.557 438.489 122.509C437.116 123.135 388.531 150.216 330.523 182.69L225.054 241.734L127.121 186.954C73.258 156.824 29.49 131.863 29.859 131.484C30.227 131.105 74.291 106.446 127.778 76.6882L225.027 22.5812L304.144 66.6242L383.261 110.667L389.145 107.53L395.029 104.394L395.005 99.2842L394.981 94.1732L310.44 47.1732C263.943 21.3232 225.591 0.0952462 225.214 0.000246166C224.837 -0.0957538 174.129 27.8993 112.529 62.2103Z" fill="#FF3620"/>
</svg>
