<svg xmlns="http://www.w3.org/2000/svg" id="Ebene_1" version="1.1" viewBox="0 0 70 70"><defs><style>.st0{fill:#2eafff}.st1{fill:#1a1a1a}</style></defs><circle cx="35" cy="35" r="34.5" class="st1"/><path d="M47.1,28.5h-2.5c-2.3-4-6.6-6.6-11.6-6.6h0c-7.4,0-13.4,6-13.4,13.4h0c0,7.4,6,13.4,13.4,13.4h0c5.4,0,10.1-3.2,12.2-7.9h1.8c3.4,0,6.2-2.8,6.2-6.2h0c0-3.5-2.8-6.2-6.2-6.2ZM47.1,36.8h-4.7l-.5,1.4c-1.2,3.7-4.7,6.5-8.9,6.5-5.2,0-9.4-4.2-9.4-9.4,0-5.2,4.2-9.4,9.4-9.4,3.8,0,7,2.2,8.5,5.4l.5,1.2h5c1.2,0,2.1,1,2.1,2.1s-1,2.1-2.1,2.1Z" class="st0"/></svg>