<svg width="800" height="800" viewBox="0 0 800 800" fill="none" xmlns="http://www.w3.org/2000/svg">
<g clip-path="url(#clip0_6554_3524)">
<path d="M42.7578 509.61C42.7578 509.61 262.004 662.471 275.358 670.114C288.235 677.726 307.081 679.525 323.619 673.251C340.173 666.977 352.589 652.629 356.265 638.281C360.404 623.933 410.512 365.684 410.512 365.684C410.973 362.1 412.342 351.797 406.819 341.924C399.004 328.483 381.542 321.317 365.912 325.777C357.313 328.273 349.946 333.867 345.235 341.478C342.465 346.399 337.419 354.488 328.219 361.654C321.327 367.037 314.435 370.174 311.219 371.512C283.173 382.738 251.912 373.311 233.989 350.905C222.958 337.003 203.189 331.62 185.712 338.341C177.45 341.563 170.443 347.355 165.725 354.862C161.007 362.369 158.829 371.193 159.512 380.032C162.742 407.836 146.65 435.624 118.142 446.835C103.562 452.414 87.5211 452.891 72.6347 448.189C69.4039 447.281 57.927 444.605 46.4347 450.88C32.1885 458.046 24.8347 475.085 28.5116 490.325C31.2655 500.629 39.5424 507.365 42.7578 509.61Z" fill="#FF9538"/>
<path d="M408.205 174.699C408.205 174.699 486.359 426.658 491.866 440.114C497.389 454.016 511.174 466.565 528.174 471.486C545.189 476.423 564.035 472.394 575.989 463.428C587.943 454.462 789.743 280.056 789.743 280.056C796.004 274.593 800.22 267.163 801.697 258.988C804.005 243.748 794.343 227.601 779.635 221.772C771.178 218.67 761.893 218.67 753.435 221.772C748.374 224.017 739.174 227.155 727.682 227.601C718.497 228.062 711.605 226.263 707.928 225.355C678.959 217.282 659.651 191.292 659.651 163.042C659.369 154.222 656.273 145.722 650.815 138.786C645.356 131.849 637.822 126.84 629.312 124.489C610.928 119.552 592.082 127.18 582.435 141.974C567.251 166.179 537.374 178.282 507.959 170.208C492.328 165.733 479.451 156.322 471.189 144.219C468.882 141.512 461.528 132.547 448.666 130.317C433.035 127.626 416.02 136.591 409.589 150.493C404.528 161.258 407.282 171.1 408.205 174.699Z" fill="#FF9538"/>
</g>
<defs>
<clipPath id="clip0_6554_3524">
<rect width="800" height="569" fill="white" transform="translate(0 115)"/>
</clipPath>
</defs>
</svg>
