<svg xmlns="http://www.w3.org/2000/svg" xmlns:xlink="http://www.w3.org/1999/xlink" viewBox="0 0 79.688 85" fill="#fff" fill-rule="evenodd" stroke="#000" stroke-linecap="round" stroke-linejoin="round"><use xlink:href="#A" x="2.344" y="2.5"/><symbol id="A" overflow="visible"><g stroke="none"><path d="M68.744 11.283L75 14.21v51.421l-6.256 2.938L58.843 40l9.9-28.717z" fill="#5294cf"/><path d="M6.245 11.283L0 14.21v51.421l6.245 2.938L21.875 40 6.245 11.283zm31.25 49.888l31.249 7.376V11.283l-31.249 7.376v42.512z" fill="#205b99"/><g fill="#5294cf"><path d="M37.494 61.171L6.245 68.548V11.283l31.249 7.376v42.512z"/><path d="M44.991 80l11.953-5.78V5.78L44.991 0 33.126 38.042 44.991 80z"/></g><path d="M29.998 80l-11.942-5.78V5.78L29.998 0l10.625 40-10.625 40z" fill="#205b99"/><path d="M29.998 0h15.004v80H29.998z" fill="#2e73b8"/></g></symbol></svg>