<svg width="512" height="512" viewBox="0 0 512 512" fill="none" xmlns="http://www.w3.org/2000/svg">
<g clip-path="url(#clip0_1_23)">
<path d="M199.694 453.872C207.233 448.871 187.483 450.757 185.844 447.395C178.026 446.743 170.287 445.343 162.735 443.214C148.558 439.607 114.96 416.897 111.436 395.58C107.912 374.264 111.436 332.861 126.432 308.594C136.01 293.723 148.331 280.813 162.735 270.552C162.735 270.552 133.48 200.947 130.939 148.394C128.399 95.8412 132.169 1.7217 166.914 7.44411e-06C201.66 -1.72169 195.514 85.9209 190.024 142.901C186.501 180.758 185.926 218.832 188.303 256.779C202.913 252.104 218.121 249.564 233.456 249.236C246.942 248.929 260.417 250.195 273.61 253.008C273.61 253.008 284.428 172.17 320.648 121.831C356.869 71.4914 394.401 19.6765 418.986 34.352C443.57 49.0274 412.348 101.498 390.632 128.799C368.916 156.101 331.22 197.093 318.682 218.984C310.476 233.557 303.222 248.646 296.966 264.158C319.334 275.655 337.639 293.74 349.412 315.972C366.375 351.062 368.014 394.597 358.836 412.961C354.054 421.473 347.455 428.824 339.509 434.493C331.563 440.161 322.465 444.007 312.863 445.756C302.046 446.575 256.238 457.89 256.238 457.89L199.694 453.872Z" fill="white"/>
<path d="M279.675 253.663C279.675 253.663 306.963 182.336 331.466 142.163C355.968 101.99 388.829 71.7374 399.154 77.8863C409.48 84.0352 378.012 121.749 350.641 158.396C328.165 190.858 307.8 224.734 289.672 259.812L279.675 253.663Z" fill="#DD00A1"/>
<path d="M170.192 265.961L177.977 259.812C177.977 259.812 176.912 188.485 177.977 145.033C179.043 101.58 181.337 47.3877 166.833 47.9616C152.328 48.5355 142.248 90.1841 147.903 149.46C152.084 188.846 159.539 227.815 170.192 265.961Z" fill="#DD00A1"/>
<path d="M145.69 419.028C154.47 419.028 161.588 411.907 161.588 403.123C161.588 394.339 154.47 387.218 145.69 387.218C136.91 387.218 129.792 394.339 129.792 403.123C129.792 411.907 136.91 419.028 145.69 419.028Z" fill="#F9D8D2"/>
<path d="M333.514 419.028C342.294 419.028 349.412 411.907 349.412 403.123C349.412 394.339 342.294 387.218 333.514 387.218C324.734 387.218 317.616 394.339 317.616 403.123C317.616 411.907 324.734 419.028 333.514 419.028Z" fill="#F9D8D2"/>
<path d="M265.989 401.729C265.706 401.481 265.342 401.345 264.965 401.345C264.588 401.345 264.224 401.481 263.941 401.729C263.941 401.729 259.27 409.928 252.386 410.42C250.056 410.342 247.766 409.793 245.654 408.807C243.542 407.82 241.65 406.417 240.094 404.681V393.531C244.519 391.153 251.648 383.774 251.648 381.233C251.042 378.5 249.457 376.083 247.193 374.437C244.929 372.791 242.142 372.03 239.356 372.297C231.162 372.297 225.425 377.626 225.425 382.053C225.425 386.48 234.439 392.137 236.98 393.859V405.747C235.722 407.414 234.119 408.79 232.28 409.781C230.441 410.771 228.411 411.353 226.327 411.486C219.771 411.486 214.854 402.631 214.854 402.549C214.662 402.197 214.343 401.933 213.961 401.81C213.579 401.688 213.165 401.718 212.805 401.893C212.48 402.068 212.232 402.359 212.11 402.708C211.989 403.058 212.003 403.44 212.15 403.779C212.15 404.271 217.968 414.355 226.327 414.355C228.672 414.275 230.976 413.71 233.092 412.694C235.207 411.678 237.089 410.233 238.619 408.452C242.082 411.977 246.719 414.107 251.648 414.437H252.796C255.745 413.875 258.532 412.665 260.956 410.892C263.38 409.12 265.379 406.83 266.809 404.189C267.074 403.914 267.222 403.546 267.222 403.164C267.222 402.782 267.074 402.414 266.809 402.139C266.572 401.94 266.291 401.8 265.989 401.729Z" fill="#10110E"/>
<path d="M162.735 270.552C162.735 270.552 140.363 213.163 135.61 182.746C130.857 152.329 127.416 102.564 133.152 69.1958C135.456 53.7328 138.713 38.4271 142.904 23.3659C142.904 23.3659 132.169 101.17 136.184 135.194C140.2 169.218 162.735 270.552 162.735 270.552Z" fill="#E5E5E5"/>
<path d="M273.61 252.926C273.61 252.926 290 166.103 313.847 131.915C337.694 97.7268 367.605 56.57 382.273 46.0759L397.188 35.5817C397.188 35.5817 337.038 98.3827 313.847 150.362C290.656 202.34 273.61 252.926 273.61 252.926Z" fill="#E5E5E5"/>
<path d="M178.059 351.308C175.596 351.308 173.188 352.039 171.139 353.408C169.091 354.778 167.494 356.724 166.551 359.001C165.609 361.278 165.362 363.784 165.843 366.201C166.323 368.619 167.51 370.839 169.252 372.582C170.994 374.325 173.213 375.512 175.629 375.992C178.046 376.473 180.55 376.226 182.826 375.283C185.102 374.34 187.048 372.743 188.416 370.693C189.785 368.644 190.515 366.235 190.515 363.77C190.516 360.493 189.226 357.348 186.925 355.016C184.625 352.683 181.498 351.351 178.223 351.308H178.059ZM181.337 362.868C180.657 362.868 179.991 362.666 179.425 362.288C178.859 361.91 178.418 361.372 178.157 360.743C177.897 360.113 177.829 359.421 177.962 358.753C178.094 358.085 178.422 357.472 178.904 356.99C179.385 356.508 179.998 356.18 180.666 356.048C181.333 355.915 182.026 355.983 182.654 356.244C183.283 356.504 183.821 356.945 184.199 357.512C184.577 358.078 184.779 358.744 184.779 359.425C184.79 359.877 184.712 360.327 184.549 360.749C184.386 361.171 184.141 361.557 183.829 361.884C183.517 362.211 183.144 362.474 182.73 362.657C182.317 362.84 181.871 362.94 181.419 362.95L181.337 362.868Z" fill="#10110E"/>
<path d="M300.571 351.308C298.108 351.292 295.695 352.007 293.637 353.363C291.58 354.719 289.971 356.655 289.013 358.925C288.056 361.196 287.792 363.7 288.257 366.121C288.722 368.541 289.894 370.769 291.624 372.523C293.355 374.278 295.566 375.479 297.979 375.976C300.392 376.473 302.898 376.242 305.18 375.314C307.463 374.386 309.418 372.802 310.801 370.761C312.183 368.721 312.929 366.317 312.945 363.852C312.956 362.216 312.645 360.593 312.029 359.077C311.413 357.561 310.504 356.181 309.355 355.016C308.206 353.851 306.839 352.924 305.332 352.288C303.825 351.652 302.207 351.319 300.571 351.308ZM304.259 362.868C303.807 362.879 303.357 362.801 302.935 362.638C302.514 362.475 302.128 362.23 301.801 361.918C301.474 361.606 301.211 361.232 301.028 360.818C300.845 360.405 300.746 359.959 300.735 359.507C300.734 358.6 301.083 357.727 301.709 357.07C302.334 356.414 303.189 356.024 304.095 355.981C304.547 355.971 304.997 356.049 305.419 356.212C305.84 356.375 306.226 356.62 306.553 356.932C306.88 357.244 307.143 357.617 307.326 358.031C307.509 358.445 307.608 358.891 307.619 359.343C307.63 359.784 307.553 360.224 307.395 360.636C307.236 361.048 306.997 361.424 306.693 361.744C306.389 362.064 306.024 362.32 305.621 362.499C305.217 362.678 304.782 362.776 304.341 362.786L304.259 362.868Z" fill="#10110E"/>
<path opacity="0.2" d="M241.651 451.823C305.465 451.823 357.197 414.529 357.197 368.525C357.197 322.521 305.465 285.228 241.651 285.228C177.836 285.228 126.105 322.521 126.105 368.525C126.105 414.529 177.836 451.823 241.651 451.823Z" fill="#8ACCCE"/>
<path d="M381.536 322.203V267.109C385.839 266.126 389.702 263.757 392.529 260.365C395.357 256.973 396.993 252.747 397.188 248.334C396.618 243.002 394.098 238.069 390.111 234.484C386.125 230.9 380.954 228.917 375.594 228.917C370.234 228.917 365.064 230.9 361.077 234.484C357.091 238.069 354.571 243.002 354.001 248.334C354.232 252.761 355.902 256.991 358.757 260.38C361.612 263.769 365.496 266.132 369.817 267.109V320.81H368.178C351.789 263.912 303.358 228.33 240.094 228.33C176.83 228.33 128.153 263.584 112.091 320.81H106.601C100.682 320.54 94.8929 322.604 90.4794 326.56C86.0659 330.516 83.3803 336.046 83 341.962V384.102C83.3388 390.041 86.0093 395.605 90.4299 399.582C94.8505 403.559 100.663 405.628 106.601 405.337H114.058C120.316 421.486 130.414 435.865 143.477 447.231L132.906 456.824C132.265 457.367 131.738 458.032 131.354 458.779C130.97 459.527 130.738 460.342 130.669 461.18C130.601 462.018 130.698 462.86 130.955 463.66C131.212 464.46 131.625 465.202 132.169 465.842C156.179 494.783 195.432 511.754 239.766 511.754C284.1 511.754 323.435 495.357 347.445 465.842C348.549 464.535 349.09 462.845 348.952 461.14C348.814 459.435 348.007 457.854 346.708 456.742L336.055 446.985C349.085 435.689 359.181 421.397 365.474 405.337H373.669C379.612 405.627 385.427 403.544 389.837 399.548C394.247 395.551 396.891 389.966 397.188 384.021V341.962C397.044 337.424 395.444 333.053 392.626 329.495C389.807 325.937 385.919 323.38 381.536 322.203ZM240.094 289.409C298.605 289.409 346.134 327.942 346.134 375.248C346.134 426.489 292.786 449.035 240.094 449.035C187.401 449.035 134.053 426.325 134.053 374.838C134.053 327.942 181.337 288.999 240.094 288.999V289.409Z" fill="white"/>
<path d="M385.469 370.247H369.817V362.048C369.817 351.609 368.746 341.197 366.621 330.976H373.341C376.263 330.773 379.147 331.738 381.359 333.659C383.571 335.58 384.931 338.301 385.141 341.224L385.469 370.247Z" fill="#515151"/>
<path d="M373.669 395.007H365.474C367.03 389.135 368.18 383.163 368.916 377.134H385.305V384.102C385.284 385.545 384.979 386.97 384.407 388.294C383.835 389.619 383.008 390.818 381.973 391.823C380.939 392.828 379.716 393.619 378.375 394.151C377.035 394.684 375.602 394.946 374.16 394.925H373.669V395.007Z" fill="#515151"/>
<path d="M240.094 500.932C200.841 500.932 165.849 486.83 143.887 461.743L154.54 451.823C179.724 468.639 209.499 477.231 239.766 476.418C270.043 477.308 299.84 468.708 324.992 451.823L336.055 461.743C314.338 486.83 279.675 500.932 240.094 500.932Z" fill="#515151"/>
<path d="M106.601 331.386H113.567C111.509 341.615 110.465 352.023 110.452 362.458C110.289 365.189 110.289 367.926 110.452 370.657H95.2102V341.962C95.1662 339.214 96.2097 336.561 98.1132 334.579C100.017 332.598 102.626 331.45 105.372 331.386H106.601Z" fill="#515151"/>
<path d="M240.094 281.948C226.812 282.023 213.604 283.927 200.841 287.605V244.727C213.614 241.142 226.828 239.375 240.094 239.48C253.387 239.375 266.628 241.142 279.429 244.727V287.851C266.696 283.883 253.43 281.892 240.094 281.948Z" fill="black"/>
<path d="M94.8005 377.134H111.19C111.993 383.105 113.17 389.019 114.714 394.843H106.519C103.597 395.046 100.713 394.081 98.5009 392.159C96.2887 390.238 94.9285 387.518 94.7185 384.594V377.134H94.8005Z" fill="#515151"/>
<path d="M375.635 257.189C381.066 257.189 385.469 253.225 385.469 248.334C385.469 243.444 381.066 239.48 375.635 239.48C370.204 239.48 365.802 243.444 365.802 248.334C365.802 253.225 370.204 257.189 375.635 257.189Z" fill="#515151"/>
</g>
<defs>
<clipPath id="clip0_1_23">
<rect width="345" height="512" fill="white" transform="translate(83)"/>
</clipPath>
</defs>
</svg>
