<svg width="138" height="138" viewBox="0 0 138 138" fill="none" xmlns="http://www.w3.org/2000/svg">
<path d="M138 69C138 107.108 107.108 138 69 138C30.8924 138 0 107.108 0 69C0 30.8924 30.8924 0 69 0C107.108 0 138 30.8924 138 69Z" fill="#F5F8FA"/>
<path opacity="0.7" d="M17 23.1538C17 20.8597 18.621 19 20.6207 19H118.379C120.379 19 122 20.8597 122 23.1538V41.8462C122 44.1403 120.379 46 118.379 46H20.6207C18.621 46 17 44.1403 17 41.8462V23.1538Z" fill="white"/>
<path opacity="0.7" fill-rule="evenodd" clip-rule="evenodd" d="M118.379 20H20.6207C19.2979 20 18 21.2786 18 23.1538V41.8462C18 43.7214 19.2979 45 20.6207 45H118.379C119.702 45 121 43.7214 121 41.8462V23.1538C121 21.2786 119.702 20 118.379 20ZM20.6207 19C18.621 19 17 20.8597 17 23.1538V41.8462C17 44.1403 18.621 46 20.6207 46H118.379C120.379 46 122 44.1403 122 41.8462V23.1538C122 20.8597 120.379 19 118.379 19H20.6207Z" fill="#BFCCD6"/>
<g opacity="0.7">
<path fill-rule="evenodd" clip-rule="evenodd" d="M33 28.75C36.31 28.75 39 27.9063 39 26.875C39 25.8437 36.31 25 33 25C29.68 25 27 25.8437 27 26.875C27 27.9063 29.68 28.75 33 28.75ZM27 28.3L27 32.5C27 33.5312 29.69 34.375 33 34.375C36.31 34.375 39 33.5312 39 32.5V28.3C37.78 29.125 35.56 29.6875 33 29.6875C30.44 29.6875 28.22 29.125 27 28.3ZM27 33.925V38.125C27 39.1562 29.69 40 33 40C36.31 40 39 39.1562 39 38.125V33.925C37.78 34.75 35.56 35.3125 33 35.3125C30.44 35.3125 28.22 34.75 27 33.925Z" fill="#A7B6C2"/>
</g>
<path opacity="0.7" d="M48 32.5C48 31.1193 49.1193 30 50.5 30H103.5C104.881 30 106 31.1193 106 32.5V32.5C106 33.8807 104.881 35 103.5 35H50.5C49.1193 35 48 33.8807 48 32.5V32.5Z" fill="#BFCCD6" fill-opacity="0.6"/>
<path opacity="0.7" d="M17 58.1538C17 55.8597 18.621 54 20.6207 54H118.379C120.379 54 122 55.8597 122 58.1538V76.8462C122 79.1403 120.379 81 118.379 81H20.6207C18.621 81 17 79.1403 17 76.8462V58.1538Z" fill="white"/>
<path opacity="0.7" fill-rule="evenodd" clip-rule="evenodd" d="M118.379 55H20.6207C19.2979 55 18 56.2786 18 58.1538V76.8462C18 78.7214 19.2979 80 20.6207 80H118.379C119.702 80 121 78.7214 121 76.8462V58.1538C121 56.2786 119.702 55 118.379 55ZM20.6207 54C18.621 54 17 55.8597 17 58.1538V76.8462C17 79.1403 18.621 81 20.6207 81H118.379C120.379 81 122 79.1403 122 76.8462V58.1538C122 55.8597 120.379 54 118.379 54H20.6207Z" fill="#848D94"/>
<g opacity="0.7">
<path fill-rule="evenodd" clip-rule="evenodd" d="M33 63.75C36.31 63.75 39 62.9063 39 61.875C39 60.8437 36.31 60 33 60C29.68 60 27 60.8437 27 61.875C27 62.9063 29.68 63.75 33 63.75ZM27 63.3L27 67.5C27 68.5312 29.69 69.375 33 69.375C36.31 69.375 39 68.5312 39 67.5V63.3C37.78 64.125 35.56 64.6875 33 64.6875C30.44 64.6875 28.22 64.125 27 63.3ZM27 68.925V73.125C27 74.1562 29.69 75 33 75C36.31 75 39 74.1562 39 73.125V68.925C37.78 69.75 35.56 70.3125 33 70.3125C30.44 70.3125 28.22 69.75 27 68.925Z" fill="#5C7080"/>
</g>
<path opacity="0.7" d="M48 67.5C48 66.1193 49.1193 65 50.5 65H103.5C104.881 65 106 66.1193 106 67.5V67.5C106 68.8807 104.881 70 103.5 70H50.5C49.1193 70 48 68.8807 48 67.5V67.5Z" fill="#BFCCD6"/>
<path opacity="0.7" d="M17 93.1538C17 90.8597 18.621 89 20.6207 89H118.379C120.379 89 122 90.8597 122 93.1538V111.846C122 114.14 120.379 116 118.379 116H20.6207C18.621 116 17 114.14 17 111.846V93.1538Z" fill="white"/>
<path opacity="0.7" fill-rule="evenodd" clip-rule="evenodd" d="M118.379 90H20.6207C19.2979 90 18 91.2786 18 93.1538V111.846C18 113.721 19.2979 115 20.6207 115H118.379C119.702 115 121 113.721 121 111.846V93.1538C121 91.2786 119.702 90 118.379 90ZM20.6207 89C18.621 89 17 90.8597 17 93.1538V111.846C17 114.14 18.621 116 20.6207 116H118.379C120.379 116 122 114.14 122 111.846V93.1538C122 90.8597 120.379 89 118.379 89H20.6207Z" fill="#BFCCD6"/>
<g opacity="0.7">
<path fill-rule="evenodd" clip-rule="evenodd" d="M33 98.75C36.31 98.75 39 97.9063 39 96.875C39 95.8437 36.31 95 33 95C29.68 95 27 95.8437 27 96.875C27 97.9063 29.68 98.75 33 98.75ZM27 98.3L27 102.5C27 103.531 29.69 104.375 33 104.375C36.31 104.375 39 103.531 39 102.5V98.3C37.78 99.125 35.56 99.6875 33 99.6875C30.44 99.6875 28.22 99.125 27 98.3ZM27 103.925V108.125C27 109.156 29.69 110 33 110C36.31 110 39 109.156 39 108.125V103.925C37.78 104.75 35.56 105.312 33 105.312C30.44 105.312 28.22 104.75 27 103.925Z" fill="#C0CBD4"/>
</g>
<path opacity="0.7" d="M48 102.5C48 101.119 49.1193 100 50.5 100H103.5C104.881 100 106 101.119 106 102.5V102.5C106 103.881 104.881 105 103.5 105H50.5C49.1193 105 48 103.881 48 102.5V102.5Z" fill="#BFCCD6" fill-opacity="0.6"/>
</svg>
