<svg width="37" height="37" viewBox="0 0 37 37" fill="none" xmlns="http://www.w3.org/2000/svg">
<path d="M2 6.16667C2 5.0616 2.43899 4.00179 3.22039 3.22039C4.00179 2.43899 5.0616 2 6.16667 2H31.1667C32.2717 2 33.3315 2.43899 34.1129 3.22039C34.8943 4.00179 35.3333 5.0616 35.3333 6.16667V31.1667C35.3333 32.2717 34.8943 33.3315 34.1129 34.1129C33.3315 34.8943 32.2717 35.3333 31.1667 35.3333H6.16667C5.0616 35.3333 4.00179 34.8943 3.22039 34.1129C2.43899 33.3315 2 32.2717 2 31.1667V6.16667Z" fill="#0F9D58" fill-opacity="0.11" stroke="#0F9D58" stroke-width="3" stroke-linecap="round" stroke-linejoin="round"/>
<path d="M7.66675 14.6667L29.6667 14.6667Z" fill="#0F9D58" fill-opacity="0.11"/>
<path d="M7.66675 14.6667L29.6667 14.6667" stroke="#0F9D58" stroke-width="3" stroke-linecap="round" stroke-linejoin="round"/>
<path d="M14.6667 7.66675L14.6667 29.6667Z" fill="#0F9D58" fill-opacity="0.11"/>
<path d="M14.6667 7.66675L14.6667 29.6667" stroke="#0F9D58" stroke-width="3" stroke-linecap="round" stroke-linejoin="round"/>
</svg>
