<svg width="24" height="24" viewBox="0 0 24 24" fill="none" xmlns="http://www.w3.org/2000/svg">
  <path d="M20.5 5.5V22C20.5 22.3978 20.342 22.7794 20.0607 23.0607C19.7794 23.342 19.3978 23.5 19 23.5H5C4.60218 23.5 4.22064 23.342 3.93934 23.0607C3.65804 22.7794 3.5 22.3978 3.5 22V2C3.5 1.60218 3.65804 1.22064 3.93934 0.93934C4.22064 0.658035 4.60218 0.5 5 0.5H15.5L20.5 5.5Z" stroke="black" stroke-width="1.5" stroke-linecap="round" stroke-linejoin="round"/>
  <path d="M15.5 0.5V4C15.5 4.39782 15.658 4.77936 15.9393 5.06066C16.2206 5.34196 16.6022 5.5 17 5.5H20.5" stroke="black" stroke-width="2" stroke-linecap="round" stroke-linejoin="round"/>
  <path d="M16.5 9.5H7.5V18.5H16.5V9.5Z" stroke="black" stroke-width="1.5" stroke-linecap="round" stroke-linejoin="round"/>
  <path d="M7.5 12.5H16.5" stroke="black" stroke-width="1.5" stroke-linecap="round" stroke-linejoin="round"/>
  <path d="M7.5 15.5H16.5" stroke="black" stroke-width="1.5" stroke-linecap="round" stroke-linejoin="round"/>
  <path d="M11 9.5V18.5" stroke="black" stroke-width="1.5" stroke-linecap="round" stroke-linejoin="round"/>
</svg>
