<svg width="169" height="169" viewBox="0 0 169 169" fill="none" xmlns="http://www.w3.org/2000/svg">
<g clip-path="url(#clip0_2133_3626)">
<path d="M5.82187 5.82187L5.46832 5.46832L5.82187 5.82187C9.22941 2.41433 13.851 0.5 18.67 0.5H149.83C154.649 0.5 159.27 2.41431 162.678 5.82191C166.086 9.22939 168 13.851 168 18.67V149.83C168 154.649 166.086 159.27 162.678 162.678C159.27 166.086 154.649 168 149.83 168H18.67C13.851 168 9.22939 166.086 5.82186 162.678C2.41431 159.27 0.5 154.649 0.5 149.83V18.67C0.5 13.851 2.41433 9.22941 5.82187 5.82187ZM19.07 75.51H19.0705L55.5 75.4702V149.43C55.5 149.648 55.5867 149.856 55.7401 150.01C55.8932 150.163 56.1014 150.25 56.32 150.25H74.65C74.8686 150.25 75.0768 150.163 75.2299 150.01C75.3832 149.856 75.4699 149.648 75.47 149.43C75.47 149.43 75.47 149.43 75.47 149.43L75.5099 75.5H149.43C149.648 75.5 149.856 75.4133 150.01 75.2599C150.163 75.1068 150.25 74.8986 150.25 74.68V56.32C150.25 56.1014 150.163 55.8932 150.01 55.7401C149.856 55.5867 149.648 55.5 149.43 55.5H75.4801L75.51 19.0704V19.07C75.51 18.8526 75.4237 18.644 75.2699 18.4901C75.116 18.3363 74.9074 18.25 74.69 18.25H56.32C56.1026 18.25 55.894 18.3363 55.7401 18.4901C55.5863 18.644 55.5 18.8526 55.5 19.07V55.5H19.07C18.8526 55.5 18.644 55.5863 18.4901 55.7401C18.3363 55.894 18.25 56.1026 18.25 56.32V74.69C18.25 74.9074 18.3363 75.116 18.4901 75.2699C18.644 75.4237 18.8526 75.51 19.07 75.51Z" fill="black" stroke="black"/>
<path d="M55.68 74.47H55.6795L19.25 74.5098V56.5H55.68C55.8974 56.5 56.106 56.4137 56.2599 56.2599C56.4137 56.106 56.5 55.8974 56.5 55.68V19.25H74.5099L74.48 55.6796V55.68C74.48 55.8974 74.5663 56.106 74.7201 56.2599C74.874 56.4137 75.0826 56.5 75.3 56.5H149.25V74.5H75.33C75.1126 74.5 74.904 74.5863 74.7501 74.7401C74.5964 74.8939 74.5101 75.1024 74.51 75.3197C74.51 75.3198 74.51 75.3199 74.51 75.32L74.4701 149.25H56.5V75.29C56.5 75.0726 56.4137 74.864 56.2599 74.7101C56.106 74.5563 55.8974 74.47 55.68 74.47Z" fill="white" stroke="black"/>
</g>
<defs>
<clipPath id="clip0_2133_3626">
<rect width="169" height="169" fill="white"/>
</clipPath>
</defs>
</svg>
