<svg width="169" height="169" viewBox="0 0 169 169" fill="none" xmlns="http://www.w3.org/2000/svg">
<path d="M168.5 149.83C168.5 154.782 166.533 159.53 163.032 163.032C159.53 166.533 154.782 168.5 149.83 168.5H18.67C13.7184 168.5 8.96962 166.533 5.46832 163.032C1.96701 159.53 0 154.782 0 149.83V18.67C0 13.7184 1.96701 8.96962 5.46832 5.46832C8.96962 1.96701 13.7184 0 18.67 0H149.83C154.782 0 159.53 1.96701 163.032 5.46832C166.533 8.96962 168.5 13.7184 168.5 18.67V149.83ZM75.01 75.32C75.01 75.2351 75.0437 75.1537 75.1037 75.0937C75.1637 75.0337 75.2451 75 75.33 75H149.43C149.515 75 149.596 74.9663 149.656 74.9063C149.716 74.8463 149.75 74.7649 149.75 74.68V56.32C149.75 56.2351 149.716 56.1537 149.656 56.0937C149.596 56.0337 149.515 56 149.43 56H75.3C75.2151 56 75.1337 55.9663 75.0737 55.9063C75.0137 55.8463 74.98 55.7649 74.98 55.68L75.01 19.07C75.01 18.9851 74.9763 18.9037 74.9163 18.8437C74.8563 18.7837 74.7749 18.75 74.69 18.75H56.32C56.2351 18.75 56.1537 18.7837 56.0937 18.8437C56.0337 18.9037 56 18.9851 56 19.07V55.68C56 55.7649 55.9663 55.8463 55.9063 55.9063C55.8463 55.9663 55.7649 56 55.68 56H19.07C18.9851 56 18.9037 56.0337 18.8437 56.0937C18.7837 56.1537 18.75 56.2351 18.75 56.32V74.69C18.75 74.7749 18.7837 74.8563 18.8437 74.9163C18.9037 74.9763 18.9851 75.01 19.07 75.01L55.68 74.97C55.7649 74.97 55.8463 75.0037 55.9063 75.0637C55.9663 75.1237 56 75.2051 56 75.29V149.43C56 149.515 56.0337 149.596 56.0937 149.656C56.1537 149.716 56.2351 149.75 56.32 149.75H74.65C74.7349 149.75 74.8163 149.716 74.8763 149.656C74.9363 149.596 74.97 149.515 74.97 149.43L75.01 75.32Z" fill="#0F9D58"/>
<path d="M75.01 75.32L74.97 149.43C74.97 149.515 74.9363 149.596 74.8763 149.656C74.8163 149.716 74.7349 149.75 74.65 149.75H56.32C56.2351 149.75 56.1537 149.716 56.0937 149.656C56.0337 149.596 56 149.515 56 149.43V75.29C56 75.2051 55.9663 75.1237 55.9063 75.0637C55.8463 75.0037 55.7649 74.97 55.68 74.97L19.07 75.01C18.9851 75.01 18.9037 74.9763 18.8437 74.9163C18.7837 74.8563 18.75 74.7749 18.75 74.69V56.32C18.75 56.2351 18.7837 56.1537 18.8437 56.0937C18.9037 56.0337 18.9851 56 19.07 56H55.68C55.7649 56 55.8463 55.9663 55.9063 55.9063C55.9663 55.8463 56 55.7649 56 55.68V19.07C56 18.9851 56.0337 18.9037 56.0937 18.8437C56.1537 18.7837 56.2351 18.75 56.32 18.75H74.69C74.7749 18.75 74.8563 18.7837 74.9163 18.8437C74.9763 18.9037 75.01 18.9851 75.01 19.07L74.98 55.68C74.98 55.7649 75.0137 55.8463 75.0737 55.9063C75.1337 55.9663 75.2151 56 75.3 56H149.43C149.515 56 149.596 56.0337 149.656 56.0937C149.716 56.1537 149.75 56.2351 149.75 56.32V74.68C149.75 74.7649 149.716 74.8463 149.656 74.9063C149.596 74.9663 149.515 75 149.43 75H75.33C75.2451 75 75.1637 75.0337 75.1037 75.0937C75.0437 75.1537 75.01 75.2351 75.01 75.32Z" fill="white"/>
</svg>
