<?xml version="1.0" encoding="UTF-8"?>
<svg xmlns="http://www.w3.org/2000/svg" xmlns:xlink="http://www.w3.org/1999/xlink" width="36px" height="36px" viewBox="0 0 36 36" version="1.1">
<g id="surface1">
<path style=" stroke:none;fill-rule:nonzero;fill:rgb(97.647059%,97.647059%,98.039216%);fill-opacity:1;" d="M 0 0 C 11.878906 0 23.761719 0 36 0 C 36 11.878906 36 23.761719 36 36 C 24.121094 36 12.238281 36 0 36 C 0 24.121094 0 12.238281 0 0 Z M 0 0 "/>
<path style=" stroke:none;fill-rule:nonzero;fill:rgb(8.627451%,8.627451%,8.627451%);fill-opacity:1;" d="M 14.011719 19.230469 C 14.019531 20.863281 14.03125 22.496094 14.039062 24.179688 C 14.058594 24.179688 14.078125 24.179688 14.101562 24.179688 C 14.152344 24.230469 14.203125 24.277344 14.25 24.328125 C 14.304688 24.386719 14.394531 24.363281 14.46875 24.363281 C 14.492188 24.363281 14.511719 24.363281 14.53125 24.363281 C 14.597656 24.367188 14.667969 24.367188 14.734375 24.367188 C 14.785156 24.367188 14.832031 24.367188 14.878906 24.367188 C 15.011719 24.367188 15.144531 24.367188 15.277344 24.367188 C 15.414062 24.371094 15.550781 24.371094 15.691406 24.371094 C 15.949219 24.371094 16.210938 24.375 16.472656 24.375 C 16.769531 24.378906 17.066406 24.378906 17.363281 24.378906 C 17.976562 24.382812 18.589844 24.386719 19.199219 24.390625 C 19.199219 24.460938 19.203125 24.53125 19.203125 24.601562 C 19.203125 24.640625 19.203125 24.679688 19.203125 24.722656 C 19.199219 24.835938 19.1875 24.9375 19.171875 25.050781 C 19.148438 25.050781 19.128906 25.050781 19.109375 25.050781 C 19.109375 25.070312 19.109375 25.09375 19.105469 25.117188 C 19.09375 25.34375 19.050781 25.550781 18.988281 25.769531 C 18.96875 25.769531 18.949219 25.769531 18.929688 25.769531 C 18.925781 25.800781 18.921875 25.832031 18.917969 25.859375 C 18.902344 25.980469 18.867188 26.089844 18.824219 26.203125 C 18.808594 26.238281 18.796875 26.277344 18.78125 26.316406 C 18.769531 26.34375 18.761719 26.371094 18.75 26.398438 C 18.730469 26.398438 18.710938 26.398438 18.691406 26.398438 C 18.683594 26.417969 18.675781 26.4375 18.671875 26.457031 C 18.660156 26.492188 18.660156 26.492188 18.648438 26.53125 C 18.640625 26.554688 18.632812 26.578125 18.621094 26.605469 C 18.601562 26.671875 18.601562 26.671875 18.570312 26.730469 C 18.550781 26.730469 18.53125 26.730469 18.511719 26.730469 C 18.5 26.757812 18.492188 26.785156 18.484375 26.8125 C 18.414062 27.019531 18.414062 27.019531 18.328125 27.058594 C 18.300781 27.109375 18.273438 27.160156 18.246094 27.210938 C 18.183594 27.3125 18.109375 27.398438 18.03125 27.484375 C 18.003906 27.515625 18.003906 27.515625 17.976562 27.542969 C 17.640625 27.925781 17.285156 28.265625 16.839844 28.519531 C 16.773438 28.558594 16.707031 28.601562 16.644531 28.640625 C 16.539062 28.710938 16.441406 28.742188 16.320312 28.769531 C 16.320312 28.789062 16.320312 28.808594 16.320312 28.828125 C 16.261719 28.851562 16.203125 28.871094 16.144531 28.890625 C 16.113281 28.902344 16.082031 28.914062 16.046875 28.921875 C 15.960938 28.949219 15.960938 28.949219 15.871094 28.949219 C 15.871094 28.96875 15.871094 28.988281 15.871094 29.011719 C 15.792969 29.03125 15.714844 29.050781 15.640625 29.070312 C 15.617188 29.074219 15.597656 29.082031 15.574219 29.085938 C 15.460938 29.117188 15.359375 29.136719 15.238281 29.128906 C 15.238281 29.148438 15.238281 29.167969 15.238281 29.191406 C 14.851562 29.265625 14.464844 29.28125 14.070312 29.285156 C 14.046875 29.285156 14.019531 29.285156 13.992188 29.285156 C 13.53125 29.28125 13.53125 29.28125 13.46875 29.21875 C 13.425781 29.210938 13.378906 29.203125 13.335938 29.195312 C 13.308594 29.1875 13.28125 29.183594 13.25 29.179688 C 13.207031 29.171875 13.207031 29.171875 13.160156 29.164062 C 12.921875 29.121094 12.683594 29.074219 12.449219 29.011719 C 12.449219 28.988281 12.449219 28.96875 12.449219 28.949219 C 12.425781 28.945312 12.402344 28.945312 12.375 28.941406 C 12.253906 28.917969 12.144531 28.875 12.03125 28.828125 C 12.03125 28.808594 12.03125 28.789062 12.03125 28.769531 C 11.992188 28.757812 11.992188 28.757812 11.953125 28.746094 C 11.835938 28.703125 11.722656 28.648438 11.609375 28.589844 C 11.609375 28.570312 11.609375 28.550781 11.609375 28.53125 C 11.585938 28.523438 11.558594 28.515625 11.53125 28.507812 C 11.417969 28.464844 11.335938 28.410156 11.238281 28.335938 C 11.222656 28.324219 11.207031 28.3125 11.1875 28.296875 C 11.148438 28.265625 11.109375 28.234375 11.070312 28.199219 C 11.070312 28.179688 11.070312 28.160156 11.070312 28.140625 C 11.054688 28.132812 11.035156 28.125 11.019531 28.121094 C 10.929688 28.070312 10.871094 28.003906 10.800781 27.929688 C 10.769531 27.90625 10.742188 27.878906 10.710938 27.855469 C 10.515625 27.691406 10.375 27.507812 10.230469 27.300781 C 10.214844 27.28125 10.203125 27.261719 10.1875 27.242188 C 10.109375 27.128906 10.109375 27.128906 10.109375 27.058594 C 10.089844 27.058594 10.070312 27.058594 10.050781 27.058594 C 10.023438 27.011719 10 26.960938 9.976562 26.914062 C 9.960938 26.886719 9.945312 26.859375 9.933594 26.832031 C 9.898438 26.761719 9.898438 26.761719 9.898438 26.699219 C 9.878906 26.699219 9.859375 26.699219 9.839844 26.699219 C 9.511719 26.023438 9.511719 26.023438 9.511719 25.800781 C 9.488281 25.800781 9.46875 25.800781 9.449219 25.800781 C 9.238281 24.78125 9.210938 23.820312 9.449219 22.800781 C 9.46875 22.800781 9.488281 22.800781 9.511719 22.800781 C 9.511719 22.78125 9.515625 22.761719 9.519531 22.742188 C 9.546875 22.597656 9.578125 22.457031 9.628906 22.320312 C 9.648438 22.320312 9.667969 22.320312 9.691406 22.320312 C 9.695312 22.296875 9.699219 22.277344 9.699219 22.253906 C 9.71875 22.167969 9.75 22.09375 9.78125 22.011719 C 9.792969 21.984375 9.804688 21.957031 9.816406 21.929688 C 9.824219 21.910156 9.832031 21.890625 9.839844 21.871094 C 9.859375 21.871094 9.878906 21.871094 9.898438 21.871094 C 9.90625 21.84375 9.917969 21.816406 9.925781 21.792969 C 9.960938 21.691406 10 21.601562 10.050781 21.511719 C 10.070312 21.511719 10.089844 21.511719 10.109375 21.511719 C 10.121094 21.480469 10.121094 21.480469 10.128906 21.449219 C 10.335938 21 10.902344 20.371094 11.347656 20.15625 C 11.410156 20.128906 11.410156 20.128906 11.460938 20.039062 C 11.515625 20.003906 11.515625 20.003906 11.578125 19.972656 C 11.601562 19.964844 11.621094 19.953125 11.644531 19.941406 C 11.699219 19.921875 11.699219 19.921875 11.761719 19.921875 C 11.761719 19.898438 11.761719 19.878906 11.761719 19.859375 C 11.933594 19.769531 11.933594 19.769531 12 19.769531 C 12 19.75 12 19.730469 12 19.710938 C 12.078125 19.679688 12.15625 19.648438 12.234375 19.621094 C 12.257812 19.613281 12.277344 19.601562 12.300781 19.59375 C 12.332031 19.582031 12.332031 19.582031 12.367188 19.570312 C 12.386719 19.5625 12.40625 19.554688 12.425781 19.546875 C 12.480469 19.53125 12.480469 19.53125 12.570312 19.53125 C 12.570312 19.511719 12.570312 19.492188 12.570312 19.46875 C 12.667969 19.445312 12.761719 19.417969 12.859375 19.394531 C 12.886719 19.386719 12.914062 19.378906 12.941406 19.375 C 13.082031 19.335938 13.203125 19.308594 13.351562 19.320312 C 13.351562 19.300781 13.351562 19.28125 13.351562 19.261719 C 13.574219 19.230469 13.777344 19.230469 14.011719 19.230469 Z M 14.011719 19.230469 "/>
<path style=" stroke:none;fill-rule:nonzero;fill:rgb(7.450981%,7.450981%,7.450981%);fill-opacity:1;" d="M 13.3125 5.933594 C 13.347656 5.933594 13.386719 5.933594 13.425781 5.933594 C 13.605469 5.933594 13.773438 5.941406 13.949219 5.96875 C 13.949219 5.988281 13.949219 6.007812 13.949219 6.03125 C 13.980469 6.03125 14.011719 6.035156 14.046875 6.039062 C 14.230469 6.058594 14.402344 6.121094 14.578125 6.179688 C 14.578125 6.199219 14.578125 6.21875 14.578125 6.238281 C 14.601562 6.242188 14.621094 6.246094 14.644531 6.25 C 14.734375 6.269531 14.808594 6.304688 14.890625 6.347656 C 14.914062 6.359375 14.941406 6.375 14.96875 6.386719 C 15 6.402344 15 6.402344 15.03125 6.421875 C 15.03125 6.441406 15.03125 6.460938 15.03125 6.480469 C 15.050781 6.488281 15.074219 6.496094 15.09375 6.503906 C 15.488281 6.675781 15.859375 7.109375 16.078125 7.46875 C 16.078125 7.488281 16.078125 7.507812 16.078125 7.53125 C 16.109375 7.539062 16.140625 7.550781 16.171875 7.558594 C 16.261719 7.714844 16.261719 7.714844 16.261719 7.800781 C 16.28125 7.800781 16.300781 7.800781 16.320312 7.800781 C 16.34375 7.863281 16.371094 7.925781 16.394531 7.988281 C 16.410156 8.023438 16.421875 8.058594 16.4375 8.09375 C 16.46875 8.191406 16.46875 8.191406 16.46875 8.308594 C 16.488281 8.308594 16.507812 8.308594 16.53125 8.308594 C 16.714844 8.957031 16.695312 9.652344 16.710938 10.320312 C 16.730469 10.320312 16.753906 10.320312 16.773438 10.320312 C 16.976562 10.316406 17.179688 10.316406 17.382812 10.3125 C 17.484375 10.3125 17.589844 10.3125 17.695312 10.3125 C 17.816406 10.308594 17.933594 10.308594 18.054688 10.308594 C 18.089844 10.308594 18.128906 10.308594 18.164062 10.304688 C 18.445312 10.304688 18.722656 10.34375 18.960938 10.5 C 18.960938 10.519531 18.960938 10.539062 18.960938 10.558594 C 18.976562 10.566406 18.996094 10.574219 19.011719 10.582031 C 19.164062 10.664062 19.269531 10.808594 19.332031 10.964844 C 19.339844 10.988281 19.34375 11.015625 19.351562 11.039062 C 19.371094 11.039062 19.390625 11.039062 19.410156 11.039062 C 19.457031 11.316406 19.503906 11.59375 19.535156 11.871094 C 19.539062 11.902344 19.539062 11.902344 19.542969 11.9375 C 19.558594 12.070312 19.5625 12.199219 19.558594 12.328125 C 19.578125 12.328125 19.597656 12.328125 19.621094 12.328125 C 19.640625 12.488281 19.664062 12.648438 19.683594 12.808594 C 19.691406 12.859375 19.699219 12.914062 19.707031 12.96875 C 19.714844 13.046875 19.726562 13.125 19.738281 13.203125 C 19.742188 13.226562 19.742188 13.25 19.746094 13.277344 C 19.765625 13.402344 19.773438 13.523438 19.769531 13.648438 C 19.789062 13.648438 19.808594 13.648438 19.828125 13.648438 C 19.851562 13.804688 19.871094 13.960938 19.894531 14.113281 C 19.902344 14.167969 19.910156 14.21875 19.914062 14.273438 C 19.925781 14.347656 19.9375 14.421875 19.945312 14.5 C 19.949219 14.523438 19.953125 14.546875 19.957031 14.570312 C 19.972656 14.695312 19.984375 14.8125 19.980469 14.941406 C 20 14.941406 20.019531 14.941406 20.039062 14.941406 C 20.140625 15.621094 20.140625 15.621094 20.011719 15.808594 C 19.929688 15.851562 19.929688 15.851562 19.859375 15.871094 C 19.859375 15.890625 19.859375 15.910156 19.859375 15.929688 C 19.761719 15.929688 19.660156 15.929688 19.558594 15.929688 C 19.558594 15.910156 19.558594 15.890625 19.558594 15.871094 C 19.527344 15.859375 19.527344 15.859375 19.492188 15.847656 C 19.390625 15.800781 19.367188 15.757812 19.320312 15.660156 C 19.320312 15.628906 19.320312 15.601562 19.320312 15.570312 C 19.300781 15.570312 19.28125 15.570312 19.261719 15.570312 C 19.238281 15.445312 19.21875 15.320312 19.199219 15.191406 C 19.195312 15.15625 19.1875 15.121094 19.183594 15.085938 C 19.15625 14.914062 19.132812 14.753906 19.140625 14.578125 C 19.121094 14.578125 19.101562 14.578125 19.078125 14.578125 C 19.054688 14.40625 19.027344 14.230469 19.003906 14.054688 C 18.996094 13.992188 18.984375 13.933594 18.976562 13.875 C 18.964844 13.789062 18.953125 13.703125 18.9375 13.617188 C 18.933594 13.589844 18.929688 13.5625 18.925781 13.535156 C 18.90625 13.390625 18.894531 13.253906 18.898438 13.109375 C 18.878906 13.109375 18.859375 13.109375 18.839844 13.109375 C 18.820312 12.960938 18.796875 12.808594 18.777344 12.660156 C 18.769531 12.609375 18.761719 12.558594 18.753906 12.507812 C 18.742188 12.433594 18.734375 12.359375 18.722656 12.285156 C 18.71875 12.265625 18.714844 12.242188 18.710938 12.21875 C 18.695312 12.085938 18.6875 11.957031 18.691406 11.820312 C 18.671875 11.820312 18.652344 11.820312 18.628906 11.820312 C 18.625 11.792969 18.621094 11.761719 18.617188 11.730469 C 18.613281 11.695312 18.609375 11.65625 18.605469 11.617188 C 18.597656 11.5625 18.597656 11.5625 18.589844 11.503906 C 18.566406 11.375 18.550781 11.308594 18.445312 11.234375 C 18.347656 11.183594 18.289062 11.179688 18.179688 11.179688 C 18.144531 11.179688 18.109375 11.179688 18.070312 11.175781 C 18.03125 11.179688 17.992188 11.179688 17.949219 11.179688 C 17.90625 11.179688 17.863281 11.179688 17.820312 11.175781 C 17.703125 11.175781 17.585938 11.175781 17.46875 11.175781 C 17.34375 11.175781 17.21875 11.175781 17.089844 11.175781 C 16.84375 11.175781 16.59375 11.175781 16.347656 11.175781 C 16.144531 11.175781 15.945312 11.175781 15.742188 11.175781 C 15.683594 11.175781 15.625 11.175781 15.570312 11.175781 C 15.539062 11.175781 15.511719 11.175781 15.480469 11.175781 C 14.933594 11.175781 14.390625 11.175781 13.84375 11.175781 C 13.34375 11.175781 12.84375 11.175781 12.34375 11.171875 C 11.832031 11.171875 11.316406 11.171875 10.804688 11.171875 C 10.515625 11.171875 10.230469 11.171875 9.941406 11.171875 C 9.695312 11.171875 9.449219 11.171875 9.207031 11.171875 C 9.082031 11.171875 8.957031 11.171875 8.832031 11.171875 C 8.714844 11.171875 8.601562 11.171875 8.488281 11.171875 C 8.445312 11.171875 8.402344 11.171875 8.363281 11.171875 C 8.113281 11.160156 8.113281 11.160156 7.894531 11.261719 C 7.832031 11.332031 7.832031 11.332031 7.800781 11.398438 C 7.78125 11.398438 7.761719 11.398438 7.738281 11.398438 C 7.734375 11.453125 7.734375 11.453125 7.730469 11.511719 C 7.683594 12.164062 7.605469 12.816406 7.53125 13.46875 C 7.511719 13.46875 7.492188 13.46875 7.46875 13.46875 C 7.472656 13.503906 7.472656 13.539062 7.472656 13.574219 C 7.472656 13.796875 7.4375 14.015625 7.410156 14.238281 C 7.402344 14.28125 7.398438 14.328125 7.394531 14.371094 C 7.378906 14.480469 7.363281 14.589844 7.351562 14.699219 C 7.332031 14.699219 7.308594 14.699219 7.289062 14.699219 C 7.289062 14.726562 7.285156 14.757812 7.285156 14.785156 C 7.269531 15.097656 7.234375 15.410156 7.199219 15.71875 C 7.191406 15.765625 7.1875 15.8125 7.179688 15.859375 C 7.167969 15.972656 7.152344 16.085938 7.140625 16.199219 C 7.121094 16.199219 7.101562 16.199219 7.078125 16.199219 C 7.078125 16.222656 7.078125 16.246094 7.078125 16.273438 C 7.054688 16.722656 6.992188 17.164062 6.929688 17.609375 C 6.910156 17.609375 6.890625 17.609375 6.871094 17.609375 C 6.867188 17.648438 6.867188 17.648438 6.867188 17.6875 C 6.851562 17.957031 6.828125 18.226562 6.796875 18.492188 C 6.792969 18.527344 6.789062 18.558594 6.78125 18.59375 C 6.78125 18.625 6.777344 18.65625 6.773438 18.691406 C 6.769531 18.71875 6.765625 18.746094 6.761719 18.773438 C 6.75 18.839844 6.75 18.839844 6.71875 18.871094 C 6.710938 18.925781 6.703125 18.984375 6.699219 19.042969 C 6.691406 19.078125 6.6875 19.113281 6.683594 19.152344 C 6.679688 19.191406 6.675781 19.234375 6.671875 19.273438 C 6.667969 19.3125 6.660156 19.355469 6.65625 19.394531 C 6.644531 19.503906 6.632812 19.613281 6.621094 19.71875 C 6.609375 19.832031 6.59375 19.941406 6.582031 20.050781 C 6.558594 20.265625 6.535156 20.484375 6.511719 20.699219 C 6.488281 20.699219 6.46875 20.699219 6.449219 20.699219 C 6.449219 20.726562 6.445312 20.753906 6.445312 20.777344 C 6.425781 21.089844 6.394531 21.394531 6.359375 21.703125 C 6.351562 21.75 6.347656 21.800781 6.339844 21.847656 C 6.328125 21.964844 6.3125 22.082031 6.300781 22.199219 C 6.28125 22.199219 6.261719 22.199219 6.238281 22.199219 C 6.242188 22.238281 6.242188 22.273438 6.242188 22.3125 C 6.242188 22.488281 6.222656 22.65625 6.199219 22.832031 C 6.195312 22.863281 6.191406 22.898438 6.1875 22.933594 C 6.175781 23.039062 6.164062 23.144531 6.148438 23.25 C 6.140625 23.324219 6.132812 23.398438 6.125 23.46875 C 6.101562 23.644531 6.082031 23.824219 6.058594 24 C 6.039062 24 6.019531 24 6 24 C 6 24.121094 5.996094 24.242188 5.996094 24.363281 C 5.996094 24.394531 5.996094 24.429688 5.996094 24.464844 C 5.992188 24.71875 5.992188 24.71875 6.058594 24.960938 C 6.089844 24.96875 6.121094 24.980469 6.148438 24.988281 C 6.171875 25.011719 6.171875 25.011719 6.191406 25.03125 C 6.296875 25.136719 6.421875 25.148438 6.5625 25.148438 C 6.613281 25.148438 6.613281 25.148438 6.664062 25.152344 C 6.71875 25.152344 6.71875 25.152344 6.777344 25.152344 C 6.8125 25.152344 6.851562 25.152344 6.890625 25.152344 C 6.988281 25.152344 7.089844 25.15625 7.1875 25.15625 C 7.328125 25.15625 7.46875 25.160156 7.609375 25.160156 C 7.683594 25.164062 7.757812 25.164062 7.832031 25.164062 C 7.867188 25.164062 7.902344 25.164062 7.933594 25.164062 C 7.964844 25.164062 7.996094 25.164062 8.023438 25.164062 C 8.101562 25.171875 8.101562 25.171875 8.191406 25.199219 C 8.191406 25.21875 8.191406 25.238281 8.191406 25.261719 C 8.214844 25.265625 8.238281 25.273438 8.261719 25.28125 C 8.351562 25.328125 8.363281 25.347656 8.398438 25.441406 C 8.40625 25.507812 8.40625 25.507812 8.40625 25.574219 C 8.40625 25.609375 8.40625 25.609375 8.40625 25.644531 C 8.398438 25.71875 8.378906 25.765625 8.339844 25.828125 C 8.289062 25.859375 8.242188 25.890625 8.191406 25.921875 C 8.179688 25.941406 8.171875 25.960938 8.160156 25.980469 C 8.039062 26.03125 7.933594 26.046875 7.804688 26.046875 C 7.773438 26.046875 7.738281 26.046875 7.703125 26.050781 C 7.667969 26.050781 7.632812 26.050781 7.59375 26.050781 C 7.539062 26.050781 7.539062 26.050781 7.480469 26.050781 C 7.402344 26.050781 7.320312 26.050781 7.242188 26.050781 C 7.160156 26.050781 7.082031 26.050781 7 26.050781 C 6.882812 26.050781 6.765625 26.050781 6.648438 26.050781 C 6.613281 26.050781 6.578125 26.050781 6.542969 26.050781 C 6.308594 26.050781 6.101562 26.015625 5.878906 25.949219 C 5.878906 25.929688 5.878906 25.910156 5.878906 25.890625 C 5.855469 25.886719 5.832031 25.878906 5.808594 25.875 C 5.5625 25.773438 5.367188 25.558594 5.25 25.320312 C 5.222656 25.230469 5.203125 25.144531 5.191406 25.050781 C 5.171875 25.050781 5.152344 25.050781 5.128906 25.050781 C 5.101562 24.957031 5.097656 24.871094 5.097656 24.773438 C 5.097656 24.746094 5.097656 24.714844 5.097656 24.683594 C 5.097656 24.652344 5.097656 24.621094 5.097656 24.589844 C 5.097656 24.558594 5.097656 24.53125 5.097656 24.496094 C 5.097656 24.339844 5.101562 24.1875 5.128906 24.03125 C 5.148438 24.03125 5.167969 24.03125 5.191406 24.03125 C 5.191406 23.984375 5.191406 23.984375 5.195312 23.9375 C 5.210938 23.617188 5.242188 23.296875 5.28125 22.976562 C 5.289062 22.929688 5.292969 22.882812 5.296875 22.835938 C 5.3125 22.726562 5.324219 22.613281 5.339844 22.5 C 5.359375 22.5 5.378906 22.5 5.398438 22.5 C 5.402344 22.472656 5.402344 22.441406 5.402344 22.410156 C 5.421875 22.046875 5.460938 21.6875 5.507812 21.328125 C 5.515625 21.269531 5.519531 21.210938 5.527344 21.152344 C 5.546875 21.011719 5.5625 20.871094 5.578125 20.730469 C 5.601562 20.730469 5.621094 20.730469 5.640625 20.730469 C 5.640625 20.699219 5.644531 20.667969 5.644531 20.636719 C 5.660156 20.324219 5.691406 20.019531 5.730469 19.710938 C 5.75 19.710938 5.769531 19.710938 5.789062 19.710938 C 5.792969 19.671875 5.792969 19.671875 5.792969 19.636719 C 5.816406 19.28125 5.855469 18.925781 5.898438 18.570312 C 5.902344 18.511719 5.910156 18.449219 5.917969 18.386719 C 5.933594 18.238281 5.953125 18.089844 5.96875 17.941406 C 5.988281 17.941406 6.007812 17.941406 6.03125 17.941406 C 6.03125 17.910156 6.03125 17.882812 6.035156 17.851562 C 6.050781 17.550781 6.082031 17.25 6.121094 16.949219 C 6.128906 16.90625 6.132812 16.863281 6.140625 16.816406 C 6.152344 16.710938 6.167969 16.605469 6.179688 16.5 C 6.199219 16.5 6.21875 16.5 6.238281 16.5 C 6.242188 16.472656 6.242188 16.441406 6.246094 16.414062 C 6.261719 16.101562 6.292969 15.792969 6.328125 15.480469 C 6.351562 15.480469 6.371094 15.480469 6.390625 15.480469 C 6.390625 15.441406 6.390625 15.441406 6.394531 15.40625 C 6.414062 15.054688 6.457031 14.707031 6.496094 14.355469 C 6.503906 14.296875 6.511719 14.238281 6.519531 14.175781 C 6.535156 14.03125 6.550781 13.886719 6.570312 13.738281 C 6.589844 13.738281 6.609375 13.738281 6.628906 13.738281 C 6.628906 13.707031 6.628906 13.671875 6.628906 13.636719 C 6.628906 13.5 6.640625 13.367188 6.65625 13.234375 C 6.660156 13.199219 6.660156 13.199219 6.664062 13.160156 C 6.671875 13.082031 6.679688 13.007812 6.691406 12.929688 C 6.695312 12.878906 6.703125 12.824219 6.707031 12.773438 C 6.722656 12.644531 6.734375 12.519531 6.75 12.390625 C 6.769531 12.390625 6.789062 12.390625 6.808594 12.390625 C 6.808594 12.371094 6.808594 12.351562 6.808594 12.332031 C 6.800781 11.097656 6.800781 11.097656 7.09375 10.78125 C 7.117188 10.757812 7.144531 10.734375 7.171875 10.710938 C 7.203125 10.667969 7.234375 10.628906 7.265625 10.589844 C 7.402344 10.433594 7.570312 10.359375 7.769531 10.320312 C 7.839844 10.316406 7.910156 10.316406 7.980469 10.316406 C 8.011719 10.316406 8.011719 10.316406 8.046875 10.316406 C 8.117188 10.316406 8.183594 10.316406 8.253906 10.316406 C 8.300781 10.316406 8.351562 10.316406 8.398438 10.316406 C 8.527344 10.316406 8.652344 10.316406 8.78125 10.316406 C 8.910156 10.316406 9.039062 10.320312 9.167969 10.320312 C 9.421875 10.320312 9.675781 10.320312 9.929688 10.320312 C 9.929688 10.285156 9.929688 10.253906 9.933594 10.21875 C 9.960938 8.976562 9.960938 8.976562 10.050781 8.550781 C 10.070312 8.550781 10.089844 8.550781 10.109375 8.550781 C 10.113281 8.523438 10.113281 8.496094 10.117188 8.46875 C 10.140625 8.296875 10.203125 8.140625 10.261719 7.980469 C 10.28125 7.980469 10.300781 7.980469 10.320312 7.980469 C 10.324219 7.960938 10.324219 7.9375 10.328125 7.917969 C 10.464844 7.367188 11.03125 6.824219 11.488281 6.515625 C 11.546875 6.480469 11.601562 6.464844 11.671875 6.449219 C 11.671875 6.429688 11.671875 6.410156 11.671875 6.390625 C 11.734375 6.359375 11.796875 6.328125 11.859375 6.300781 C 11.910156 6.273438 11.910156 6.273438 11.964844 6.25 C 12.058594 6.210938 12.058594 6.210938 12.148438 6.210938 C 12.148438 6.191406 12.148438 6.171875 12.148438 6.148438 C 12.199219 6.136719 12.246094 6.121094 12.292969 6.105469 C 12.332031 6.09375 12.332031 6.09375 12.371094 6.078125 C 12.449219 6.058594 12.449219 6.058594 12.570312 6.058594 C 12.570312 6.039062 12.570312 6.019531 12.570312 6 C 12.816406 5.9375 13.054688 5.933594 13.3125 5.933594 Z M 13.3125 5.933594 "/>
<path style=" stroke:none;fill-rule:nonzero;fill:rgb(8.235294%,8.235294%,8.235294%);fill-opacity:1;" d="M 27.90625 14.78125 C 27.929688 14.78125 27.949219 14.78125 27.972656 14.78125 C 28.042969 14.78125 28.113281 14.78125 28.183594 14.78125 C 28.234375 14.78125 28.28125 14.78125 28.332031 14.78125 C 28.433594 14.78125 28.535156 14.78125 28.640625 14.78125 C 28.773438 14.78125 28.902344 14.78125 29.035156 14.78125 C 29.136719 14.777344 29.238281 14.777344 29.339844 14.777344 C 29.386719 14.777344 29.4375 14.777344 29.484375 14.777344 C 29.550781 14.777344 29.621094 14.777344 29.6875 14.777344 C 29.726562 14.777344 29.765625 14.777344 29.804688 14.777344 C 29.921875 14.792969 29.992188 14.816406 30.089844 14.878906 C 30.160156 14.984375 30.15625 15.074219 30.15625 15.195312 C 30.15625 15.214844 30.15625 15.234375 30.15625 15.257812 C 30.15625 15.324219 30.15625 15.390625 30.15625 15.457031 C 30.15625 15.503906 30.15625 15.550781 30.15625 15.601562 C 30.160156 15.734375 30.160156 15.867188 30.160156 15.996094 C 30.160156 16.140625 30.160156 16.285156 30.160156 16.425781 C 30.160156 16.707031 30.160156 16.984375 30.160156 17.265625 C 30.160156 17.492188 30.160156 17.71875 30.160156 17.949219 C 30.160156 17.980469 30.160156 18.011719 30.160156 18.046875 C 30.160156 18.109375 30.160156 18.175781 30.160156 18.242188 C 30.160156 18.859375 30.160156 19.472656 30.160156 20.089844 C 30.160156 20.65625 30.160156 21.21875 30.160156 21.78125 C 30.160156 22.359375 30.160156 22.941406 30.160156 23.519531 C 30.160156 23.84375 30.160156 24.167969 30.160156 24.492188 C 30.160156 24.769531 30.160156 25.046875 30.160156 25.324219 C 30.160156 25.464844 30.160156 25.605469 30.160156 25.746094 C 30.160156 25.875 30.160156 26.003906 30.160156 26.136719 C 30.160156 26.183594 30.160156 26.226562 30.160156 26.273438 C 30.160156 26.339844 30.160156 26.402344 30.160156 26.464844 C 30.160156 26.519531 30.160156 26.519531 30.160156 26.574219 C 30.148438 26.683594 30.117188 26.753906 30.058594 26.851562 C 29.941406 26.921875 29.820312 26.917969 29.6875 26.917969 C 29.652344 26.917969 29.652344 26.917969 29.621094 26.917969 C 29.546875 26.917969 29.476562 26.917969 29.402344 26.917969 C 29.351562 26.917969 29.300781 26.917969 29.25 26.917969 C 29.144531 26.917969 29.039062 26.917969 28.933594 26.917969 C 28.800781 26.917969 28.664062 26.917969 28.527344 26.921875 C 28.425781 26.921875 28.320312 26.921875 28.214844 26.921875 C 28.167969 26.921875 28.117188 26.921875 28.066406 26.921875 C 27.996094 26.921875 27.925781 26.921875 27.855469 26.921875 C 27.835938 26.921875 27.816406 26.921875 27.796875 26.921875 C 27.660156 26.921875 27.5625 26.894531 27.449219 26.820312 C 27.378906 26.71875 27.382812 26.625 27.382812 26.503906 C 27.382812 26.484375 27.382812 26.464844 27.382812 26.441406 C 27.382812 26.375 27.382812 26.308594 27.382812 26.242188 C 27.382812 26.195312 27.382812 26.144531 27.382812 26.097656 C 27.382812 25.964844 27.378906 25.832031 27.378906 25.699219 C 27.378906 25.554688 27.378906 25.414062 27.378906 25.269531 C 27.378906 24.957031 27.378906 24.644531 27.378906 24.332031 C 27.378906 24.136719 27.378906 23.9375 27.378906 23.742188 C 27.378906 23.203125 27.378906 22.664062 27.378906 22.121094 C 27.378906 22.085938 27.378906 22.050781 27.378906 22.015625 C 27.378906 21.945312 27.378906 21.875 27.378906 21.804688 C 27.378906 21.769531 27.378906 21.734375 27.378906 21.699219 C 27.378906 21.664062 27.378906 21.628906 27.378906 21.59375 C 27.378906 21.027344 27.375 20.464844 27.375 19.898438 C 27.375 19.316406 27.375 18.738281 27.375 18.15625 C 27.375 17.832031 27.375 17.503906 27.371094 17.179688 C 27.371094 16.902344 27.371094 16.625 27.371094 16.347656 C 27.371094 16.203125 27.371094 16.0625 27.371094 15.921875 C 27.371094 15.792969 27.371094 15.664062 27.371094 15.53125 C 27.371094 15.484375 27.371094 15.4375 27.371094 15.390625 C 27.371094 15.328125 27.371094 15.265625 27.371094 15.199219 C 27.371094 15.164062 27.371094 15.128906 27.371094 15.09375 C 27.394531 14.972656 27.445312 14.929688 27.539062 14.851562 C 27.660156 14.78125 27.769531 14.78125 27.90625 14.78125 Z M 27.90625 14.78125 "/>
<path style=" stroke:none;fill-rule:nonzero;fill:rgb(8.235294%,8.235294%,8.235294%);fill-opacity:1;" d="M 23.382812 19.160156 C 23.40625 19.160156 23.429688 19.160156 23.449219 19.160156 C 23.527344 19.160156 23.601562 19.160156 23.675781 19.160156 C 23.726562 19.160156 23.78125 19.160156 23.832031 19.15625 C 23.941406 19.15625 24.050781 19.15625 24.160156 19.15625 C 24.296875 19.15625 24.4375 19.15625 24.578125 19.15625 C 24.683594 19.152344 24.792969 19.152344 24.898438 19.152344 C 24.949219 19.152344 25.003906 19.152344 25.054688 19.152344 C 25.125 19.152344 25.199219 19.152344 25.269531 19.152344 C 25.300781 19.152344 25.300781 19.152344 25.332031 19.152344 C 25.449219 19.152344 25.496094 19.167969 25.585938 19.242188 C 25.664062 19.339844 25.683594 19.382812 25.683594 19.5 C 25.683594 19.527344 25.683594 19.550781 25.683594 19.578125 C 25.683594 19.605469 25.683594 19.632812 25.683594 19.664062 C 25.683594 19.691406 25.683594 19.722656 25.683594 19.753906 C 25.683594 19.851562 25.683594 19.953125 25.683594 20.054688 C 25.683594 20.125 25.683594 20.195312 25.683594 20.269531 C 25.6875 20.460938 25.6875 20.65625 25.6875 20.851562 C 25.6875 20.972656 25.6875 21.09375 25.6875 21.21875 C 25.6875 21.554688 25.6875 21.890625 25.6875 22.226562 C 25.6875 22.257812 25.6875 22.257812 25.6875 22.292969 C 25.6875 22.324219 25.6875 22.324219 25.6875 22.359375 C 25.6875 22.402344 25.6875 22.445312 25.6875 22.488281 C 25.6875 22.511719 25.6875 22.53125 25.6875 22.554688 C 25.6875 22.90625 25.6875 23.257812 25.6875 23.609375 C 25.6875 23.972656 25.691406 24.332031 25.691406 24.695312 C 25.691406 24.898438 25.691406 25.101562 25.691406 25.300781 C 25.691406 25.492188 25.691406 25.683594 25.691406 25.875 C 25.691406 25.945312 25.691406 26.015625 25.691406 26.085938 C 25.691406 26.179688 25.691406 26.277344 25.691406 26.371094 C 25.691406 26.414062 25.691406 26.414062 25.691406 26.457031 C 25.691406 26.609375 25.675781 26.71875 25.589844 26.851562 C 25.472656 26.921875 25.355469 26.917969 25.222656 26.917969 C 25.1875 26.917969 25.1875 26.917969 25.15625 26.917969 C 25.085938 26.917969 25.015625 26.917969 24.945312 26.917969 C 24.894531 26.917969 24.847656 26.917969 24.796875 26.917969 C 24.695312 26.917969 24.589844 26.917969 24.488281 26.917969 C 24.355469 26.917969 24.226562 26.917969 24.09375 26.921875 C 23.992188 26.921875 23.890625 26.921875 23.789062 26.921875 C 23.738281 26.921875 23.691406 26.921875 23.640625 26.921875 C 23.574219 26.921875 23.507812 26.921875 23.4375 26.921875 C 23.378906 26.921875 23.378906 26.921875 23.320312 26.921875 C 23.183594 26.90625 23.109375 26.867188 23.023438 26.761719 C 22.960938 26.632812 22.96875 26.515625 22.96875 26.375 C 22.96875 26.347656 22.96875 26.316406 22.96875 26.285156 C 22.96875 26.1875 22.96875 26.085938 22.96875 25.984375 C 22.96875 25.914062 22.96875 25.84375 22.96875 25.769531 C 22.96875 25.597656 22.96875 25.421875 22.96875 25.25 C 22.96875 25.105469 22.96875 24.964844 22.96875 24.824219 C 22.96875 24.804688 22.96875 24.78125 22.96875 24.761719 C 22.96875 24.722656 22.96875 24.679688 22.96875 24.640625 C 22.96875 24.253906 22.96875 23.871094 22.96875 23.488281 C 22.96875 23.15625 22.96875 22.828125 22.96875 22.496094 C 22.96875 22.113281 22.96875 21.730469 22.96875 21.347656 C 22.96875 21.308594 22.96875 21.269531 22.96875 21.226562 C 22.96875 21.207031 22.96875 21.1875 22.96875 21.164062 C 22.96875 21.023438 22.96875 20.882812 22.96875 20.742188 C 22.96875 20.550781 22.96875 20.359375 22.96875 20.167969 C 22.96875 20.101562 22.96875 20.03125 22.96875 19.960938 C 22.96875 19.863281 22.96875 19.769531 22.96875 19.671875 C 22.96875 19.644531 22.96875 19.617188 22.96875 19.589844 C 22.96875 19.445312 22.972656 19.34375 23.070312 19.230469 C 23.179688 19.15625 23.257812 19.160156 23.382812 19.160156 Z M 23.382812 19.160156 "/>
<path style=" stroke:none;fill-rule:nonzero;fill:rgb(7.843138%,7.843138%,7.843138%);fill-opacity:1;" d="M 29.460938 8.609375 C 29.460938 8.628906 29.460938 8.648438 29.460938 8.671875 C 29.480469 8.675781 29.503906 8.683594 29.527344 8.691406 C 29.691406 8.765625 29.800781 8.886719 29.910156 9.03125 C 29.921875 9.070312 29.929688 9.109375 29.941406 9.148438 C 29.96875 9.160156 30 9.167969 30.03125 9.179688 C 30.148438 9.402344 30.160156 9.644531 30.164062 9.890625 C 30.164062 9.917969 30.164062 9.941406 30.164062 9.96875 C 30.160156 10.304688 30.054688 10.539062 29.851562 10.800781 C 29.828125 10.828125 29.828125 10.828125 29.808594 10.859375 C 29.6875 11.019531 29.523438 11.113281 29.339844 11.191406 C 29.308594 11.191406 29.28125 11.191406 29.25 11.191406 C 29.25 11.210938 29.25 11.230469 29.25 11.25 C 29.070312 11.304688 28.898438 11.316406 28.710938 11.316406 C 28.691406 11.316406 28.667969 11.316406 28.644531 11.316406 C 28.457031 11.316406 28.457031 11.316406 28.375 11.285156 C 28.289062 11.25 28.234375 11.242188 28.140625 11.25 C 27.984375 11.347656 27.867188 11.472656 27.738281 11.601562 C 27.699219 11.640625 27.660156 11.679688 27.621094 11.71875 C 27.511719 11.824219 27.40625 11.929688 27.300781 12.035156 C 27.214844 12.125 27.125 12.214844 27.035156 12.300781 C 26.828125 12.511719 26.617188 12.71875 26.410156 12.929688 C 26.195312 13.144531 25.980469 13.359375 25.761719 13.574219 C 25.574219 13.757812 25.390625 13.941406 25.207031 14.128906 C 25.09375 14.238281 24.984375 14.347656 24.875 14.457031 C 24.769531 14.5625 24.664062 14.664062 24.5625 14.769531 C 24.523438 14.808594 24.484375 14.847656 24.449219 14.882812 C 24.234375 15.082031 24.234375 15.082031 24.140625 15.347656 C 24.15625 15.445312 24.179688 15.535156 24.210938 15.628906 C 24.242188 16.027344 24.1875 16.363281 23.941406 16.679688 C 23.925781 16.699219 23.914062 16.71875 23.898438 16.738281 C 23.753906 16.917969 23.574219 17.066406 23.339844 17.101562 C 23.339844 17.121094 23.339844 17.140625 23.339844 17.160156 C 22.996094 17.269531 22.6875 17.277344 22.339844 17.175781 C 22.253906 17.160156 22.222656 17.160156 22.140625 17.191406 C 22.082031 17.234375 22.082031 17.234375 22.027344 17.292969 C 22.003906 17.316406 21.980469 17.339844 21.957031 17.359375 C 21.921875 17.398438 21.921875 17.398438 21.886719 17.433594 C 21.859375 17.460938 21.832031 17.488281 21.808594 17.511719 C 21.738281 17.582031 21.667969 17.65625 21.597656 17.726562 C 21.523438 17.800781 21.449219 17.871094 21.375 17.945312 C 21.238281 18.085938 21.097656 18.226562 20.957031 18.367188 C 20.710938 18.617188 20.460938 18.867188 20.210938 19.117188 C 20.125 19.207031 20.035156 19.292969 19.949219 19.382812 C 19.882812 19.449219 19.8125 19.515625 19.746094 19.585938 C 19.710938 19.621094 19.710938 19.621094 19.671875 19.660156 C 19.652344 19.679688 19.628906 19.703125 19.605469 19.726562 C 19.585938 19.746094 19.566406 19.765625 19.546875 19.785156 C 19.46875 19.859375 19.414062 19.863281 19.308594 19.863281 C 19.285156 19.863281 19.261719 19.863281 19.234375 19.863281 C 19.171875 19.859375 19.171875 19.859375 19.078125 19.828125 C 19.078125 19.808594 19.078125 19.789062 19.078125 19.769531 C 19.0625 19.761719 19.042969 19.753906 19.023438 19.746094 C 18.960938 19.710938 18.960938 19.710938 18.929688 19.621094 C 18.910156 19.621094 18.890625 19.621094 18.871094 19.621094 C 18.863281 19.578125 18.859375 19.535156 18.851562 19.492188 C 18.851562 19.464844 18.847656 19.441406 18.84375 19.417969 C 18.839844 19.351562 18.839844 19.351562 18.871094 19.261719 C 18.890625 19.261719 18.910156 19.261719 18.929688 19.261719 C 18.933594 19.242188 18.933594 19.226562 18.9375 19.210938 C 18.96875 19.109375 19.035156 19.0625 19.109375 18.988281 C 19.132812 18.960938 19.160156 18.929688 19.183594 18.898438 C 19.253906 18.816406 19.324219 18.757812 19.410156 18.691406 C 19.460938 18.640625 19.511719 18.589844 19.558594 18.539062 C 19.597656 18.503906 19.597656 18.503906 19.636719 18.46875 C 19.710938 18.390625 19.710938 18.390625 19.785156 18.296875 C 19.855469 18.214844 19.925781 18.15625 20.011719 18.089844 C 20.085938 18.015625 20.15625 17.945312 20.21875 17.863281 C 20.285156 17.785156 20.351562 17.730469 20.429688 17.671875 C 20.480469 17.621094 20.53125 17.570312 20.578125 17.519531 C 20.605469 17.496094 20.628906 17.472656 20.65625 17.445312 C 20.734375 17.371094 20.734375 17.371094 20.804688 17.277344 C 20.875 17.195312 20.945312 17.136719 21.03125 17.070312 C 21.105469 16.996094 21.175781 16.925781 21.238281 16.84375 C 21.304688 16.765625 21.371094 16.710938 21.449219 16.648438 C 21.46875 16.621094 21.488281 16.589844 21.511719 16.558594 C 21.53125 16.558594 21.550781 16.558594 21.570312 16.558594 C 21.554688 16.457031 21.554688 16.457031 21.539062 16.351562 C 21.519531 16.351562 21.5 16.351562 21.480469 16.351562 C 21.449219 16.199219 21.445312 16.054688 21.445312 15.902344 C 21.445312 15.878906 21.445312 15.859375 21.441406 15.835938 C 21.441406 15.675781 21.464844 15.542969 21.511719 15.390625 C 21.53125 15.390625 21.550781 15.390625 21.570312 15.390625 C 21.574219 15.375 21.578125 15.355469 21.582031 15.339844 C 21.664062 15.050781 21.859375 14.859375 22.109375 14.699219 C 22.210938 14.648438 22.292969 14.609375 22.410156 14.609375 C 22.410156 14.589844 22.410156 14.570312 22.410156 14.550781 C 22.75 14.476562 23.066406 14.480469 23.398438 14.578125 C 23.398438 14.601562 23.398438 14.621094 23.398438 14.640625 C 23.542969 14.628906 23.617188 14.558594 23.714844 14.460938 C 23.730469 14.445312 23.746094 14.429688 23.761719 14.414062 C 23.816406 14.359375 23.867188 14.304688 23.921875 14.253906 C 23.960938 14.214844 23.996094 14.175781 24.035156 14.140625 C 24.140625 14.035156 24.242188 13.933594 24.34375 13.828125 C 24.453125 13.71875 24.5625 13.613281 24.667969 13.503906 C 24.851562 13.324219 25.03125 13.140625 25.214844 12.960938 C 25.421875 12.75 25.632812 12.539062 25.84375 12.328125 C 26.042969 12.128906 26.246094 11.925781 26.445312 11.722656 C 26.53125 11.636719 26.617188 11.550781 26.703125 11.464844 C 26.804688 11.363281 26.90625 11.261719 27.007812 11.160156 C 27.042969 11.125 27.082031 11.085938 27.117188 11.050781 C 27.167969 11 27.21875 10.949219 27.269531 10.898438 C 27.285156 10.882812 27.300781 10.867188 27.316406 10.851562 C 27.382812 10.785156 27.417969 10.742188 27.449219 10.648438 C 27.433594 10.597656 27.417969 10.546875 27.398438 10.496094 C 27.242188 10.066406 27.261719 9.671875 27.421875 9.238281 C 27.429688 9.21875 27.441406 9.199219 27.449219 9.179688 C 27.46875 9.179688 27.488281 9.179688 27.511719 9.179688 C 27.515625 9.152344 27.523438 9.125 27.53125 9.097656 C 27.574219 8.992188 27.617188 8.9375 27.703125 8.855469 C 27.722656 8.832031 27.746094 8.808594 27.769531 8.785156 C 27.835938 8.730469 27.875 8.710938 27.960938 8.699219 C 27.960938 8.679688 27.960938 8.660156 27.960938 8.640625 C 28.019531 8.617188 28.082031 8.589844 28.144531 8.566406 C 28.179688 8.554688 28.210938 8.539062 28.246094 8.527344 C 28.640625 8.386719 29.082031 8.449219 29.460938 8.609375 Z M 29.460938 8.609375 "/>
<path style=" stroke:none;fill-rule:nonzero;fill:rgb(8.627451%,8.627451%,8.627451%);fill-opacity:1;" d="M 14.984375 18.804688 C 15.222656 18.808594 15.457031 18.835938 15.691406 18.871094 C 15.691406 18.890625 15.691406 18.910156 15.691406 18.929688 C 15.710938 18.929688 15.730469 18.933594 15.75 18.933594 C 15.96875 18.949219 16.167969 18.992188 16.378906 19.050781 C 16.378906 19.070312 16.378906 19.089844 16.378906 19.109375 C 16.398438 19.113281 16.414062 19.117188 16.429688 19.121094 C 16.589844 19.152344 16.738281 19.199219 16.890625 19.261719 C 16.890625 19.28125 16.890625 19.300781 16.890625 19.320312 C 16.917969 19.324219 16.917969 19.324219 16.949219 19.328125 C 17.070312 19.359375 17.171875 19.414062 17.28125 19.46875 C 17.28125 19.488281 17.28125 19.507812 17.28125 19.53125 C 17.304688 19.539062 17.332031 19.546875 17.359375 19.554688 C 17.480469 19.597656 17.574219 19.644531 17.664062 19.734375 C 17.730469 19.800781 17.800781 19.859375 17.875 19.917969 C 18.019531 20.035156 18.15625 20.15625 18.285156 20.289062 C 18.3125 20.3125 18.3125 20.3125 18.34375 20.339844 C 18.4375 20.4375 18.492188 20.511719 18.539062 20.640625 C 18.570312 20.648438 18.597656 20.660156 18.628906 20.671875 C 18.679688 20.738281 18.726562 20.804688 18.769531 20.875 C 18.78125 20.894531 18.792969 20.914062 18.804688 20.929688 C 18.863281 21.023438 18.90625 21.105469 18.929688 21.210938 C 18.949219 21.210938 18.96875 21.210938 18.988281 21.210938 C 19.015625 21.261719 19.039062 21.316406 19.066406 21.371094 C 19.078125 21.398438 19.09375 21.429688 19.105469 21.460938 C 19.140625 21.539062 19.140625 21.539062 19.140625 21.628906 C 19.160156 21.628906 19.179688 21.628906 19.199219 21.628906 C 19.226562 21.703125 19.25 21.777344 19.273438 21.847656 C 19.28125 21.871094 19.289062 21.890625 19.296875 21.914062 C 19.328125 22 19.351562 22.074219 19.351562 22.171875 C 19.371094 22.171875 19.390625 22.171875 19.410156 22.171875 C 19.429688 22.25 19.449219 22.332031 19.46875 22.414062 C 19.476562 22.4375 19.480469 22.460938 19.488281 22.484375 C 19.515625 22.601562 19.539062 22.707031 19.53125 22.828125 C 19.550781 22.828125 19.570312 22.828125 19.589844 22.828125 C 19.632812 23.046875 19.65625 23.261719 19.65625 23.484375 C 19.65625 23.503906 19.65625 23.523438 19.65625 23.546875 C 19.652344 23.695312 19.652344 23.695312 19.621094 23.730469 C 19.558594 23.734375 19.492188 23.734375 19.429688 23.734375 C 19.410156 23.734375 19.390625 23.734375 19.371094 23.734375 C 19.304688 23.734375 19.234375 23.734375 19.167969 23.734375 C 19.121094 23.734375 19.070312 23.734375 19.023438 23.734375 C 18.894531 23.734375 18.761719 23.734375 18.628906 23.734375 C 18.492188 23.734375 18.355469 23.734375 18.21875 23.734375 C 17.988281 23.734375 17.761719 23.734375 17.53125 23.734375 C 17.265625 23.734375 16.996094 23.734375 16.730469 23.734375 C 16.503906 23.734375 16.273438 23.734375 16.046875 23.734375 C 15.910156 23.734375 15.773438 23.734375 15.636719 23.734375 C 15.507812 23.734375 15.382812 23.734375 15.253906 23.734375 C 15.207031 23.734375 15.160156 23.734375 15.113281 23.734375 C 15.046875 23.734375 14.984375 23.734375 14.917969 23.734375 C 14.882812 23.734375 14.847656 23.734375 14.808594 23.734375 C 14.730469 23.730469 14.730469 23.730469 14.699219 23.699219 C 14.695312 23.636719 14.695312 23.574219 14.695312 23.511719 C 14.695312 23.492188 14.695312 23.472656 14.695312 23.453125 C 14.695312 23.386719 14.695312 23.316406 14.695312 23.25 C 14.695312 23.203125 14.695312 23.15625 14.695312 23.109375 C 14.695312 22.976562 14.695312 22.847656 14.695312 22.714844 C 14.695312 22.582031 14.695312 22.445312 14.695312 22.308594 C 14.695312 22.078125 14.695312 21.851562 14.695312 21.621094 C 14.695312 21.359375 14.695312 21.09375 14.695312 20.828125 C 14.695312 20.601562 14.695312 20.375 14.695312 20.148438 C 14.695312 20.011719 14.695312 19.878906 14.695312 19.742188 C 14.695312 19.613281 14.695312 19.488281 14.695312 19.359375 C 14.695312 19.3125 14.695312 19.265625 14.695312 19.21875 C 14.695312 19.15625 14.695312 19.089844 14.695312 19.027344 C 14.695312 18.992188 14.695312 18.957031 14.695312 18.917969 C 14.703125 18.753906 14.847656 18.804688 14.984375 18.804688 Z M 14.984375 18.804688 "/>
<path style=" stroke:none;fill-rule:nonzero;fill:rgb(96.862745%,96.862745%,97.254902%);fill-opacity:1;" d="M 14.070312 6.898438 C 14.070312 6.917969 14.070312 6.941406 14.070312 6.960938 C 14.09375 6.964844 14.121094 6.964844 14.148438 6.96875 C 14.261719 6.992188 14.351562 7.03125 14.460938 7.078125 C 14.460938 7.101562 14.460938 7.121094 14.460938 7.140625 C 14.488281 7.148438 14.515625 7.15625 14.542969 7.164062 C 14.644531 7.203125 14.6875 7.242188 14.761719 7.320312 C 14.78125 7.332031 14.804688 7.34375 14.828125 7.359375 C 14.925781 7.417969 14.996094 7.488281 15.078125 7.570312 C 15.105469 7.597656 15.132812 7.625 15.160156 7.652344 C 15.359375 7.871094 15.359375 7.871094 15.359375 7.980469 C 15.378906 7.980469 15.398438 7.980469 15.421875 7.980469 C 15.585938 8.292969 15.585938 8.292969 15.601562 8.460938 C 15.621094 8.460938 15.640625 8.460938 15.660156 8.460938 C 15.667969 8.492188 15.675781 8.523438 15.683594 8.558594 C 15.695312 8.597656 15.707031 8.640625 15.71875 8.683594 C 15.726562 8.714844 15.726562 8.714844 15.734375 8.746094 C 15.753906 8.851562 15.753906 8.851562 15.808594 8.941406 C 15.824219 9.050781 15.832031 9.164062 15.84375 9.277344 C 15.847656 9.324219 15.847656 9.324219 15.851562 9.371094 C 15.875 9.6875 15.871094 9.996094 15.871094 10.320312 C 14.1875 10.320312 12.503906 10.320312 10.769531 10.320312 C 10.769531 9.648438 10.769531 9.648438 10.78125 9.398438 C 10.78125 9.371094 10.78125 9.34375 10.785156 9.316406 C 10.789062 9.160156 10.8125 9.027344 10.859375 8.878906 C 10.875 8.816406 10.894531 8.75 10.910156 8.6875 C 10.917969 8.65625 10.925781 8.625 10.933594 8.589844 C 10.9375 8.566406 10.945312 8.542969 10.949219 8.519531 C 10.96875 8.519531 10.988281 8.519531 11.011719 8.519531 C 11.011719 8.496094 11.015625 8.46875 11.015625 8.445312 C 11.046875 8.3125 11.101562 8.210938 11.167969 8.097656 C 11.1875 8.066406 11.1875 8.066406 11.203125 8.03125 C 11.269531 7.917969 11.332031 7.828125 11.429688 7.738281 C 11.464844 7.699219 11.496094 7.660156 11.53125 7.621094 C 11.621094 7.519531 11.710938 7.433594 11.820312 7.351562 C 11.84375 7.328125 11.871094 7.308594 11.898438 7.285156 C 12.085938 7.140625 12.085938 7.140625 12.179688 7.140625 C 12.179688 7.121094 12.179688 7.101562 12.179688 7.078125 C 12.253906 7.054688 12.324219 7.03125 12.398438 7.003906 C 12.417969 6.996094 12.4375 6.992188 12.460938 6.984375 C 12.5625 6.949219 12.640625 6.929688 12.75 6.929688 C 12.75 6.910156 12.75 6.890625 12.75 6.871094 C 13.210938 6.785156 13.617188 6.808594 14.070312 6.898438 Z M 14.070312 6.898438 "/>
<path style=" stroke:none;fill-rule:nonzero;fill:rgb(16.862746%,16.862746%,16.862746%);fill-opacity:1;" d="M 19.589844 23.339844 C 19.660156 23.480469 19.65625 23.546875 19.648438 23.699219 C 19.621094 23.730469 19.621094 23.730469 19.539062 23.734375 C 19.484375 23.734375 19.484375 23.734375 19.429688 23.734375 C 19.402344 23.734375 19.402344 23.734375 19.371094 23.734375 C 19.300781 23.734375 19.234375 23.734375 19.167969 23.734375 C 19.121094 23.734375 19.070312 23.734375 19.023438 23.734375 C 18.890625 23.734375 18.761719 23.734375 18.628906 23.734375 C 18.492188 23.734375 18.355469 23.734375 18.21875 23.734375 C 17.960938 23.734375 17.699219 23.734375 17.441406 23.730469 C 17.144531 23.730469 16.847656 23.730469 16.554688 23.730469 C 15.945312 23.730469 15.335938 23.730469 14.730469 23.730469 C 14.71875 23.710938 14.710938 23.691406 14.699219 23.671875 C 16.3125 23.671875 17.925781 23.671875 19.589844 23.671875 C 19.589844 23.5625 19.589844 23.453125 19.589844 23.339844 Z M 19.589844 23.339844 "/>
<path style=" stroke:none;fill-rule:nonzero;fill:rgb(32.549021%,32.549021%,32.549021%);fill-opacity:1;" d="M 14.984375 18.804688 C 15.222656 18.808594 15.457031 18.835938 15.691406 18.871094 C 15.691406 18.878906 15.691406 18.890625 15.691406 18.898438 C 15.558594 18.902344 15.425781 18.902344 15.296875 18.902344 C 15.25 18.902344 15.207031 18.902344 15.160156 18.90625 C 15.097656 18.90625 15.035156 18.90625 14.96875 18.90625 C 14.929688 18.90625 14.890625 18.90625 14.851562 18.90625 C 14.761719 18.898438 14.761719 18.898438 14.699219 18.839844 C 14.765625 18.773438 14.898438 18.804688 14.984375 18.804688 Z M 14.984375 18.804688 "/>
<path style=" stroke:none;fill-rule:nonzero;fill:rgb(5.490196%,5.490196%,5.490196%);fill-opacity:1;" d="M 25.378906 12.78125 C 25.398438 12.789062 25.417969 12.800781 25.441406 12.808594 C 25.066406 13.21875 25.066406 13.21875 24.871094 13.410156 C 24.839844 13.398438 24.8125 13.390625 24.78125 13.378906 C 24.976562 13.183594 25.175781 12.984375 25.378906 12.78125 Z M 25.378906 12.78125 "/>
<path style=" stroke:none;fill-rule:nonzero;fill:rgb(12.156863%,12.156863%,12.156863%);fill-opacity:1;" d="M 22.109375 14.699219 C 22.121094 14.71875 22.128906 14.738281 22.140625 14.761719 C 22.109375 14.773438 22.109375 14.773438 22.078125 14.789062 C 22.070312 14.808594 22.0625 14.824219 22.054688 14.84375 C 21.988281 14.972656 21.886719 15.066406 21.75 15.121094 C 21.75 14.996094 21.785156 14.96875 21.871094 14.878906 C 21.949219 14.816406 22.027344 14.757812 22.109375 14.699219 Z M 22.109375 14.699219 "/>
<path style=" stroke:none;fill-rule:nonzero;fill:rgb(5.098039%,5.098039%,5.490196%);fill-opacity:1;" d="M 25.859375 12.300781 C 25.890625 12.308594 25.917969 12.320312 25.949219 12.328125 C 25.816406 12.46875 25.679688 12.601562 25.53125 12.71875 C 25.511719 12.710938 25.492188 12.699219 25.46875 12.691406 C 25.597656 12.5625 25.726562 12.433594 25.859375 12.300781 Z M 25.859375 12.300781 "/>
<path style=" stroke:none;fill-rule:nonzero;fill:rgb(80.392158%,80.392158%,80.392158%);fill-opacity:1;" d="M 7.441406 13.738281 C 7.449219 13.738281 7.460938 13.738281 7.46875 13.738281 C 7.472656 13.828125 7.472656 13.914062 7.472656 14 C 7.472656 14.023438 7.476562 14.046875 7.476562 14.070312 C 7.476562 14.214844 7.464844 14.328125 7.410156 14.460938 C 7.398438 14.460938 7.390625 14.460938 7.378906 14.460938 C 7.382812 14.378906 7.386719 14.296875 7.394531 14.21875 C 7.394531 14.195312 7.394531 14.171875 7.398438 14.148438 C 7.40625 14.011719 7.417969 13.875 7.441406 13.738281 Z M 7.441406 13.738281 "/>
<path style=" stroke:none;fill-rule:nonzero;fill:rgb(10.196079%,10.588235%,10.588235%);fill-opacity:1;" d="M 22.53125 17.160156 C 22.667969 17.160156 22.808594 17.160156 22.949219 17.160156 C 22.949219 17.167969 22.949219 17.179688 22.949219 17.191406 C 22.890625 17.191406 22.832031 17.191406 22.769531 17.191406 C 22.769531 17.210938 22.769531 17.230469 22.769531 17.25 C 22.679688 17.238281 22.59375 17.230469 22.5 17.21875 C 22.511719 17.199219 22.519531 17.179688 22.53125 17.160156 Z M 22.53125 17.160156 "/>
<path style=" stroke:none;fill-rule:nonzero;fill:rgb(78.039217%,78.431374%,78.431374%);fill-opacity:1;" d="M 10.949219 8.519531 C 10.976562 8.609375 10.980469 8.683594 10.972656 8.773438 C 10.96875 8.796875 10.96875 8.820312 10.964844 8.84375 C 10.945312 8.921875 10.914062 8.96875 10.859375 9.03125 C 10.875 8.851562 10.894531 8.6875 10.949219 8.519531 Z M 10.949219 8.519531 "/>
<path style=" stroke:none;fill-rule:nonzero;fill:rgb(4.313726%,4.313726%,4.313726%);fill-opacity:1;" d="M 17.371094 28.050781 C 17.390625 28.058594 17.410156 28.070312 17.429688 28.078125 C 17.394531 28.113281 17.355469 28.148438 17.316406 28.183594 C 17.285156 28.210938 17.285156 28.210938 17.253906 28.242188 C 17.191406 28.289062 17.148438 28.308594 17.070312 28.320312 C 17.164062 28.222656 17.261719 28.132812 17.371094 28.050781 Z M 17.371094 28.050781 "/>
<path style=" stroke:none;fill-rule:nonzero;fill:rgb(12.156863%,11.764706%,11.764706%);fill-opacity:1;" d="M 11.070312 28.171875 C 11.164062 28.1875 11.226562 28.21875 11.300781 28.273438 C 11.320312 28.285156 11.339844 28.300781 11.359375 28.3125 C 11.378906 28.332031 11.378906 28.332031 11.398438 28.351562 C 11.398438 28.371094 11.398438 28.390625 11.398438 28.410156 C 11.28125 28.355469 11.171875 28.28125 11.070312 28.199219 C 11.070312 28.191406 11.070312 28.179688 11.070312 28.171875 Z M 11.070312 28.171875 "/>
<path style=" stroke:none;fill-rule:nonzero;fill:rgb(86.274511%,86.274511%,86.666667%);fill-opacity:1;" d="M 6.808594 18.210938 C 6.898438 18.320312 6.898438 18.320312 6.898438 18.421875 C 6.871094 18.433594 6.871094 18.433594 6.839844 18.449219 C 6.820312 18.527344 6.820312 18.527344 6.808594 18.601562 C 6.800781 18.601562 6.789062 18.601562 6.78125 18.601562 C 6.777344 18.464844 6.777344 18.34375 6.808594 18.210938 Z M 6.808594 18.210938 "/>
<path style=" stroke:none;fill-rule:nonzero;fill:rgb(29.411766%,29.019609%,29.411766%);fill-opacity:1;" d="M 5.339844 22.5 C 5.351562 22.5 5.359375 22.5 5.371094 22.5 C 5.398438 22.730469 5.398438 22.730469 5.398438 22.828125 C 5.378906 22.828125 5.359375 22.828125 5.339844 22.828125 C 5.332031 22.851562 5.320312 22.871094 5.308594 22.890625 C 5.320312 22.761719 5.328125 22.632812 5.339844 22.5 Z M 5.339844 22.5 "/>
<path style=" stroke:none;fill-rule:nonzero;fill:rgb(27.450982%,27.450982%,27.843139%);fill-opacity:1;" d="M 6.570312 13.738281 C 6.609375 13.738281 6.648438 13.738281 6.691406 13.738281 C 6.691406 13.789062 6.691406 13.839844 6.691406 13.890625 C 6.679688 13.871094 6.671875 13.851562 6.660156 13.828125 C 6.640625 13.828125 6.621094 13.828125 6.601562 13.828125 C 6.601562 13.878906 6.601562 13.929688 6.601562 13.980469 C 6.589844 13.980469 6.582031 13.980469 6.570312 13.980469 C 6.570312 13.902344 6.570312 13.820312 6.570312 13.738281 Z M 6.570312 13.738281 "/>
<path style=" stroke:none;fill-rule:nonzero;fill:rgb(75.294119%,74.901962%,74.901962%);fill-opacity:1;" d="M 16.199219 28.890625 C 16.15625 28.910156 16.15625 28.910156 16.113281 28.929688 C 16.019531 28.972656 16.019531 28.972656 15.960938 29.039062 C 15.960938 29.019531 15.960938 29 15.960938 28.980469 C 15.929688 28.96875 15.902344 28.960938 15.871094 28.949219 C 15.914062 28.933594 15.957031 28.917969 16 28.902344 C 16.027344 28.894531 16.050781 28.886719 16.074219 28.875 C 16.140625 28.859375 16.140625 28.859375 16.199219 28.890625 Z M 16.199219 28.890625 "/>
<path style=" stroke:none;fill-rule:nonzero;fill:rgb(86.666667%,86.274511%,86.274511%);fill-opacity:1;" d="M 17.398438 28.078125 C 17.417969 28.089844 17.441406 28.101562 17.460938 28.109375 C 17.390625 28.179688 17.320312 28.25 17.25 28.320312 C 17.230469 28.300781 17.210938 28.28125 17.191406 28.261719 C 17.257812 28.199219 17.328125 28.140625 17.398438 28.078125 Z M 17.398438 28.078125 "/>
<path style=" stroke:none;fill-rule:nonzero;fill:rgb(12.941177%,13.333334%,13.333334%);fill-opacity:1;" d="M 27.75 8.820312 C 27.78125 8.828125 27.808594 8.839844 27.839844 8.851562 C 27.808594 8.890625 27.78125 8.929688 27.75 8.96875 C 27.71875 8.960938 27.691406 8.949219 27.660156 8.941406 C 27.691406 8.902344 27.71875 8.859375 27.75 8.820312 Z M 27.75 8.820312 "/>
</g>
</svg>
