<svg width="270" height="57" viewBox="0 0 270 57" fill="none" xmlns="http://www.w3.org/2000/svg">
<path d="M48.1968 34.3954H65.717V41.7582H39.8667V1.55853H48.1968V34.3954Z" fill="white"/>
<path d="M72.1565 0.161255C73.4821 0.161255 74.5928 0.627026 75.4885 1.55857C76.4201 2.45428 76.8858 3.56497 76.8858 4.89062C76.8858 6.18045 76.4201 7.29113 75.4885 8.22268C74.5928 9.11839 73.4821 9.56625 72.1565 9.56625C70.8308 9.56625 69.7201 9.11839 68.8244 8.22268C67.9287 7.29113 67.4808 6.18045 67.4808 4.89062C67.4808 3.6008 67.9466 2.49011 68.8782 1.55857C69.8097 0.627026 70.9025 0.161255 72.1565 0.161255ZM76.0797 41.7582H68.2332V13.9731H76.0797V41.7582Z" fill="white"/>
<path d="M92.5258 13.4357C96.3237 13.4357 99.0825 14.5822 100.802 16.8752V13.9731H108.165V42.7793C108.165 46.7921 106.893 49.9987 104.349 52.3992C101.805 54.7997 98.4017 56 94.1381 56C89.9462 56 86.6499 55.0326 84.2494 53.0979C81.8489 51.199 80.38 48.6014 79.8425 45.3052L87.6352 45.0365C87.8144 46.398 88.4593 47.4549 89.57 48.2073C90.6807 48.9597 92.1138 49.3359 93.8694 49.3359C95.8758 49.3359 97.4523 48.8164 98.5988 47.7774C99.7811 46.7742 100.372 45.3052 100.372 43.3704V39.3935C98.545 41.364 95.9295 42.3493 92.5258 42.3493C88.5847 42.3493 85.3601 41.0237 82.8521 38.3724C80.38 35.721 79.1439 32.2278 79.1439 27.8925C79.1439 23.5573 80.38 20.064 82.8521 17.4127C85.3601 14.7614 88.5847 13.4357 92.5258 13.4357ZM93.8157 20.1536C91.8093 20.1536 90.1791 20.8343 88.9251 22.1958C87.7069 23.5573 87.0978 25.4562 87.0978 27.8925C87.0978 30.3289 87.7069 32.2278 88.9251 33.5893C90.1791 34.9507 91.8093 35.6315 93.8157 35.6315C95.7862 35.6315 97.3627 35.0045 98.545 33.7505C99.7632 32.4607 100.372 30.723 100.372 28.5374V27.2476C100.372 25.0621 99.7632 23.3423 98.545 22.0883C97.3627 20.7985 95.7862 20.1536 93.8157 20.1536Z" fill="white"/>
<path d="M120.119 0V16.3378C121.624 14.4031 123.971 13.4357 127.16 13.4357C130.42 13.4357 133.036 14.4389 135.006 16.4453C137.013 18.4517 138.016 21.2284 138.016 24.7754V41.7582H130.169V26.2802C130.169 24.5246 129.721 23.1631 128.826 22.1958C127.966 21.2284 126.784 20.7447 125.279 20.7447C123.738 20.7447 122.484 21.2642 121.517 22.3033C120.585 23.3065 120.119 24.65 120.119 26.334V41.7582H112.273V0H120.119Z" fill="white"/>
<path d="M151.785 20.7447L151.731 31.0633C151.731 32.4965 152.126 33.5534 152.914 34.2342C153.702 34.9149 154.705 35.2553 155.923 35.2553C156.533 35.2553 157.339 35.1657 158.342 34.9866V41.9731C156.837 42.1881 155.386 42.2956 153.989 42.2956C150.836 42.2956 148.346 41.5253 146.518 39.9846C144.727 38.4082 143.849 36.0614 143.885 32.9443L143.939 20.7447H138.887V13.9731H143.993L144.046 4.78308H151.893L151.839 13.9731H158.342V20.7447H151.785Z" fill="white"/>
<path d="M188.185 41.7582H180.822V38.9098C180.034 39.913 178.923 40.737 177.49 41.382C176.057 42.0269 174.409 42.3493 172.546 42.3493C168.605 42.3493 165.38 41.0237 162.872 38.3724C160.4 35.721 159.164 32.2278 159.164 27.8925C159.164 23.5573 160.4 20.064 162.872 17.4127C165.38 14.7614 168.605 13.4357 172.546 13.4357C176.057 13.4357 178.673 14.421 180.392 16.3916V0H188.185V41.7582ZM173.836 20.1536C171.829 20.1536 170.199 20.8343 168.945 22.1958C167.727 23.5573 167.118 25.4562 167.118 27.8925C167.118 30.3289 167.727 32.2278 168.945 33.5893C170.199 34.9149 171.829 35.5777 173.836 35.5777C175.806 35.5777 177.383 34.9507 178.565 33.6967C179.783 32.4427 180.392 30.7051 180.392 28.4837V27.2476C180.392 25.0621 179.783 23.3423 178.565 22.0883C177.383 20.7985 175.806 20.1536 173.836 20.1536Z" fill="white"/>
<path d="M203.621 13.4357C207.383 13.4357 210.25 14.3852 212.22 16.2841C214.191 18.183 215.176 20.9597 215.176 24.6142V41.7582H207.598V39.501C205.771 41.3999 203.406 42.3493 200.504 42.3493C197.638 42.3493 195.381 41.6507 193.733 40.2534C192.085 38.8202 191.261 36.778 191.261 34.1267C191.261 28.8241 194.969 26.0115 202.385 25.6891L207.33 25.4203V24.3455C207.33 21.4792 206.129 20.0461 203.729 20.0461C202.475 20.0461 201.508 20.4043 200.827 21.1209C200.182 21.8375 199.859 22.6974 199.859 23.7006L192.013 23.3781C192.013 20.7985 193.088 18.5054 195.238 16.499C197.423 14.4568 200.218 13.4357 203.621 13.4357ZM207.33 30.5797L203.138 30.8484C200.451 30.9559 199.107 31.9232 199.107 33.7505C199.107 35.4344 200.182 36.2764 202.332 36.2764C203.801 36.2764 205.001 35.8823 205.932 35.094C206.864 34.3058 207.33 33.1951 207.33 31.762V30.5797Z" fill="white"/>
<path d="M228.969 13.4357C232.372 13.4357 235.024 14.2598 236.923 15.9079C238.857 17.556 239.95 19.7236 240.201 22.4107L232.408 22.8407C232.301 20.5835 231.118 19.4549 228.861 19.4549C226.747 19.4549 225.69 20.2431 225.69 21.8196C225.69 22.0345 225.708 22.2316 225.744 22.4107C225.78 22.5899 225.852 22.7511 225.959 22.8944C226.102 23.0377 226.228 23.1631 226.335 23.2706C226.443 23.3781 226.622 23.4856 226.873 23.5931C227.124 23.7006 227.321 23.7901 227.464 23.8618C227.643 23.9335 227.894 24.023 228.216 24.1305C228.575 24.238 228.861 24.3276 229.076 24.3992C229.291 24.4351 229.614 24.5067 230.044 24.6142C230.509 24.7217 230.868 24.8113 231.118 24.8829C234.307 25.707 236.672 26.7102 238.212 27.8925C239.789 29.039 240.577 30.7767 240.577 33.1056C240.577 35.9718 239.574 38.229 237.568 39.8772C235.561 41.5253 232.767 42.3493 229.184 42.3493C225.637 42.3493 222.842 41.579 220.8 40.0384C218.793 38.4619 217.647 36.2226 217.36 33.3205L225.207 32.8906C225.314 35.1836 226.658 36.3301 229.237 36.3301C230.312 36.3301 231.154 36.1152 231.763 35.6852C232.408 35.2194 232.731 34.5924 232.731 33.8042C232.731 32.9802 232.39 32.3711 231.71 31.977C231.065 31.5829 229.721 31.135 227.679 30.6334C226.246 30.2751 225.117 29.9706 224.293 29.7198C223.505 29.469 222.627 29.1286 221.66 28.6987C220.728 28.2329 220.03 27.7313 219.564 27.1939C219.098 26.6564 218.686 25.9757 218.328 25.1516C218.005 24.2917 217.844 23.3065 217.844 22.1958C217.844 19.5086 218.829 17.3768 220.8 15.8004C222.77 14.2239 225.493 13.4357 228.969 13.4357Z" fill="white"/>
<path d="M251.264 0V16.3378C252.769 14.4031 255.116 13.4357 258.305 13.4357C261.565 13.4357 264.181 14.4389 266.151 16.4453C268.158 18.4517 269.161 21.2284 269.161 24.7754V41.7582H261.314V26.2802C261.314 24.5246 260.866 23.1631 259.971 22.1958C259.111 21.2284 257.929 20.7447 256.424 20.7447C254.883 20.7447 253.629 21.2642 252.662 22.3033C251.73 23.3065 251.264 24.65 251.264 26.334V41.7582H243.418V0H251.264Z" fill="white"/>
<path d="M16.5486 14.1866H26.528C28.1724 14.1866 29.1945 15.9461 28.3679 17.3379L12.7246 43.9496C12.3335 44.6148 11.6224 45 10.8758 45C9.51594 45 8.4849 43.7482 8.80488 42.4176L12.9024 25.3914L16.5486 14.1866Z" fill="url(#paint0_linear_299_25248)"/>
<path d="M19.9773 3.63852L16.4442 14.9789L12.7726 26.1621H2.14894C0.851195 26.1621 -0.151203 25.0438 0.0188467 23.7857L2.88284 2.81726C3.02604 1.77758 3.93894 1 5.01293 1H17.9009C19.3061 1 20.3353 2.31053 19.9773 3.63852Z" fill="url(#paint1_linear_299_25248)"/>
<defs>
<linearGradient id="paint0_linear_299_25248" x1="27.7187" y1="15.0612" x2="7.66977" y2="43.9908" gradientUnits="userSpaceOnUse">
<stop stop-color="#F1E659"/>
<stop offset="1" stop-color="#FCFD76"/>
</linearGradient>
<linearGradient id="paint1_linear_299_25248" x1="18" y1="1" x2="12.5" y2="31" gradientUnits="userSpaceOnUse">
<stop stop-color="#D6BF2B"/>
<stop offset="1" stop-color="#D6AE11"/>
</linearGradient>
</defs>
</svg>
