<svg width="500" height="101" viewBox="0 0 500 101" fill="none" xmlns="http://www.w3.org/2000/svg">
<path d="M89.21 61.8192H121.795V75.321H73.7178V1.60303H89.21V61.8192Z" fill="white"/>
<path d="M132.959 0C135.67 0 137.94 0.843378 139.771 2.53015C141.676 4.15203 142.628 6.16319 142.628 8.56357C142.628 10.8991 141.676 12.9102 139.771 14.597C137.94 16.2189 135.67 17.0298 132.959 17.0298C130.248 17.0298 127.976 16.2189 126.145 14.597C124.314 12.9102 123.398 10.8991 123.398 8.56357C123.398 6.22806 124.35 4.21691 126.255 2.53015C128.16 0.843378 130.395 0 132.959 0ZM140.98 75.3205H124.937V25.0094H140.98V75.3205Z" fill="white"/>
<path d="M171.822 22.4359C178.743 22.4359 183.77 24.5511 186.904 28.7813V23.4273H200.321V76.5711C200.321 83.9742 198.003 89.8899 193.367 94.3186C188.731 98.7472 182.529 100.962 174.76 100.962C167.121 100.962 161.115 99.1769 156.74 95.6076C152.365 92.1044 149.69 87.3121 148.71 81.2311L162.91 80.7353C163.236 83.2471 164.411 85.197 166.436 86.5851C168.46 87.9732 171.071 88.6672 174.271 88.6672C177.926 88.6672 180.8 87.7088 182.888 85.7919C185.043 83.9411 186.12 81.2311 186.12 77.6616V70.3247C182.79 73.9601 178.024 75.7778 171.822 75.7778C164.641 75.7778 158.764 73.3322 154.194 68.4409C149.69 63.5494 147.436 57.1049 147.436 49.1069C147.436 41.1089 149.69 34.6643 154.194 29.7729C158.764 24.8817 164.641 22.4359 171.822 22.4359ZM174.173 34.8296C170.516 34.8296 167.546 36.0854 165.26 38.5971C163.041 41.1089 161.931 44.6122 161.931 49.1069C161.931 53.6016 163.041 57.1049 165.26 59.6167C167.546 62.1283 170.516 63.3843 174.173 63.3843C177.764 63.3843 180.636 62.2276 182.79 59.9141C185.011 57.5345 186.12 54.3287 186.12 50.2966V47.9171C186.12 43.8851 185.011 40.7123 182.79 38.3989C180.636 36.0193 177.764 34.8296 174.173 34.8296Z" fill="white"/>
<path d="M221.872 0V29.469C224.777 25.9793 229.306 24.2344 235.46 24.2344C241.751 24.2344 246.799 26.0439 250.602 29.6629C254.474 33.2819 256.41 38.2903 256.41 44.6881V75.3205H241.267V47.4024C241.267 44.2357 240.402 41.78 238.675 40.0352C237.016 38.2903 234.734 37.4178 231.829 37.4178C228.856 37.4178 226.436 38.3549 224.57 40.2291C222.772 42.0386 221.872 44.4619 221.872 47.4994V75.3205H206.731V0H221.872Z" fill="white"/>
<path d="M281.385 36.4122L281.288 55.8083C281.288 58.5023 282.004 60.489 283.432 61.7687C284.86 63.0482 286.677 63.6881 288.884 63.6881C289.99 63.6881 291.45 63.5196 293.269 63.183V76.3156C290.541 76.7197 287.911 76.9218 285.38 76.9218C279.666 76.9218 275.153 75.4739 271.841 72.5777C268.595 69.6145 267.004 65.2033 267.069 59.3441L267.168 36.4122H258.012V23.6835H267.265L267.361 6.40894H281.581L281.484 23.6835H293.269V36.4122H281.385Z" fill="white"/>
<path d="M347.756 75.8494H334.339V70.6756C332.902 72.4979 330.879 73.9946 328.266 75.1661C325.655 76.3375 322.652 76.9231 319.258 76.9231C312.076 76.9231 306.199 74.5153 301.628 69.6995C297.124 64.8835 294.872 58.5384 294.872 50.6638C294.872 42.7894 297.124 36.4442 301.628 31.6283C306.199 26.8125 312.076 24.4046 319.258 24.4046C325.655 24.4046 330.423 26.1942 333.555 29.7736V0H347.756V75.8494ZM321.608 36.6069C317.951 36.6069 314.981 37.8434 312.696 40.3164C310.475 42.7893 309.366 46.2385 309.366 50.6638C309.366 55.0893 310.475 58.5384 312.696 61.0114C314.981 63.4192 317.951 64.6232 321.608 64.6232C325.198 64.6232 328.072 63.4843 330.225 61.2066C332.446 58.9288 333.555 55.7726 333.555 51.7377V49.4925C333.555 45.5227 332.446 42.3989 330.225 40.1211C328.072 37.7783 325.198 36.6069 321.608 36.6069Z" fill="white"/>
<path d="M378.96 24.0359C386.019 24.0359 391.398 25.7726 395.094 29.2457C398.792 32.7189 400.641 37.7977 400.641 44.482V75.8393H386.422V71.7108C382.994 75.184 378.557 76.9205 373.111 76.9205C367.734 76.9205 363.499 75.6427 360.407 73.087C357.316 70.4656 355.769 66.7303 355.769 61.8809C355.769 52.1821 362.727 47.0377 376.641 46.448L385.919 45.9564V43.9905C385.919 38.7479 383.666 36.1266 379.163 36.1266C376.81 36.1266 374.995 36.7818 373.717 38.0925C372.508 39.4033 371.902 40.976 371.902 42.811L357.18 42.221C357.18 37.5028 359.197 33.3086 363.231 29.6388C367.331 25.9036 372.574 24.0359 378.96 24.0359ZM385.919 55.3932L378.053 55.8847C373.012 56.0813 370.491 57.8505 370.491 61.1928C370.491 64.2727 372.508 65.8129 376.542 65.8129C379.298 65.8129 381.549 65.092 383.296 63.6502C385.045 62.2085 385.919 60.177 385.919 57.5558V55.3932Z" fill="white"/>
<path d="M424.68 24.0359C431.258 24.0359 436.383 25.5433 440.053 28.5576C443.792 31.5721 445.904 35.5368 446.389 40.4517L431.328 41.2382C431.121 37.1096 428.834 35.0454 424.472 35.0454C420.386 35.0454 418.343 36.487 418.343 39.3705C418.343 39.7636 418.378 40.1241 418.448 40.4517C418.517 40.7794 418.657 41.0742 418.863 41.3364C419.14 41.5985 419.383 41.8279 419.59 42.0244C419.799 42.221 420.145 42.4178 420.63 42.6144C421.115 42.811 421.496 42.9747 421.772 43.1059C422.118 43.2369 422.602 43.4006 423.226 43.5973C423.92 43.7939 424.472 43.9578 424.887 44.0887C425.303 44.1544 425.927 44.2853 426.758 44.482C427.657 44.6786 428.351 44.8425 428.834 44.9734C434.998 46.4808 439.569 48.3157 442.544 50.4781C445.593 52.5752 447.115 55.7535 447.115 60.0132C447.115 65.2557 445.178 69.3843 441.301 72.3989C437.421 75.4134 432.021 76.9205 425.096 76.9205C418.241 76.9205 412.839 75.5116 408.893 72.6938C405.013 69.8102 402.798 65.7144 402.244 60.4063L417.409 59.62C417.617 63.814 420.214 65.911 425.198 65.911C427.276 65.911 428.904 65.518 430.08 64.7315C431.328 63.8795 431.952 62.7327 431.952 61.291C431.952 59.7839 431.293 58.6698 429.978 57.949C428.732 57.2281 426.134 56.4089 422.188 55.4915C419.418 54.8362 417.236 54.2791 415.644 53.8204C414.121 53.3617 412.424 52.7391 410.554 51.9527C408.753 51.1008 407.404 50.1834 406.504 49.2004C405.602 48.2173 404.807 46.9723 404.114 45.4649C403.49 43.8921 403.179 42.0901 403.179 40.0586C403.179 35.1435 405.083 31.2444 408.893 28.361C412.7 25.4775 417.963 24.0359 424.68 24.0359Z" fill="white"/>
<path d="M466.576 0V29.469C469.387 25.9793 473.769 24.2344 479.726 24.2344C485.814 24.2344 490.699 26.0439 494.378 29.6629C498.126 33.2819 500 38.2903 500 44.6881V75.3205H485.345V47.4024C485.345 44.2357 484.508 41.78 482.836 40.0352C481.23 38.2903 479.024 37.4178 476.213 37.4178C473.335 37.4178 470.993 38.3549 469.187 40.2291C467.446 42.0386 466.576 44.4619 466.576 47.4994V75.3205H451.923V0H466.576Z" fill="white"/>
<path d="M30.4666 24.0359H48.9372C51.9808 24.0359 53.8726 27.3303 52.3426 29.9361L23.3889 79.7615C22.665 81.0069 21.3488 81.7282 19.967 81.7282C17.4501 81.7282 15.5418 79.3844 16.1339 76.8931L23.718 45.0148L30.4666 24.0359Z" fill="white"/>
<path d="M38.3241 6.30831L31.5462 26.5317L24.5028 46.4748H4.12248C1.63291 46.4748 -0.290065 44.4805 0.0361553 42.2369L5.53039 4.84376C5.8051 2.98969 7.55639 1.60303 9.61672 1.60303H34.3407C37.0365 1.60303 39.0109 3.9401 38.3241 6.30831Z" fill="white"/>
</svg>
