<svg width="134" height="29" viewBox="0 0 134 29" fill="none" xmlns="http://www.w3.org/2000/svg">
<path d="M12.8296 7.52989H7.96333L9.67429 2.00455C9.84766 1.35752 9.34923 0.718994 8.66877 0.718994H2.42758C1.90749 0.718994 1.4654 1.09785 1.39606 1.60441L0.00912677 11.8207C-0.0732222 12.4337 0.412203 12.9786 1.04066 12.9786H6.1853L4.18725 21.2581C4.03122 21.9051 4.53398 22.5138 5.19711 22.5138C5.56118 22.5138 5.90791 22.3265 6.09861 22.003L13.7267 9.06234C14.1298 8.3855 13.6314 7.52989 12.8296 7.52989Z" fill="url(#paint0_angular_733_31768)"/>
<path d="M24.0244 18.2278H32.7444V21.8923H19.8785V1.88459H24.0244V18.2278Z" fill="black"/>
<path d="M35.9493 1.18913C36.6091 1.18913 37.1619 1.42095 37.6077 1.88459C38.0714 2.33039 38.3032 2.88319 38.3032 3.54297C38.3032 4.18493 38.0714 4.73773 37.6077 5.20137C37.1619 5.64717 36.6091 5.87007 35.9493 5.87007C35.2895 5.87007 34.7368 5.64717 34.2909 5.20137C33.8451 4.73773 33.6222 4.18493 33.6222 3.54297C33.6222 2.90102 33.8541 2.34822 34.3177 1.88459C34.7813 1.42095 35.3252 1.18913 35.9493 1.18913ZM37.902 21.8923H33.9967V8.06343H37.902V21.8923Z" fill="black"/>
<path d="M46.0873 7.79595C47.9775 7.79595 49.3506 8.36657 50.2066 9.50783V8.06343H53.8711V22.4005C53.8711 24.3977 53.238 25.9937 51.9719 27.1884C50.7059 28.3832 49.0118 28.9805 46.8898 28.9805C44.8034 28.9805 43.1629 28.4991 41.9681 27.5361C40.7734 26.591 40.0422 25.2982 39.7748 23.6576L43.6532 23.5239C43.7424 24.2015 44.0634 24.7276 44.6162 25.1021C45.169 25.4765 45.8823 25.6638 46.756 25.6638C47.7546 25.6638 48.5393 25.4052 49.1099 24.8881C49.6983 24.3888 49.9926 23.6576 49.9926 22.6947V20.7153C49.0831 21.6961 47.7814 22.1865 46.0873 22.1865C44.1258 22.1865 42.5209 21.5267 41.2727 20.2071C40.0422 18.8875 39.427 17.1489 39.427 14.9912C39.427 12.8335 40.0422 11.0949 41.2727 9.77531C42.5209 8.45574 44.1258 7.79595 46.0873 7.79595ZM46.7293 11.1395C45.7307 11.1395 44.9193 11.4783 44.2952 12.1559C43.6889 12.8335 43.3858 13.7786 43.3858 14.9912C43.3858 16.2038 43.6889 17.1489 44.2952 17.8265C44.9193 18.5042 45.7307 18.843 46.7293 18.843C47.7101 18.843 48.4947 18.5309 49.0831 17.9068C49.6894 17.2648 49.9926 16.4 49.9926 15.3122V14.6702C49.9926 13.5825 49.6894 12.7265 49.0831 12.1024C48.4947 11.4605 47.7101 11.1395 46.7293 11.1395Z" fill="black"/>
<path d="M59.8209 1.10889V9.24035C60.5698 8.27741 61.7378 7.79595 63.3249 7.79595C64.9476 7.79595 66.2494 8.29525 67.2301 9.29385C68.2287 10.2924 68.728 11.6744 68.728 13.4398V21.8923H64.8228V14.1888C64.8228 13.315 64.5999 12.6374 64.1541 12.1559C63.7261 11.6744 63.1377 11.4337 62.3887 11.4337C61.6219 11.4337 60.9978 11.6923 60.5163 12.2094C60.0527 12.7087 59.8209 13.3774 59.8209 14.2155V21.8923H55.9156V1.10889H59.8209Z" fill="black"/>
<path d="M75.5812 11.4337L75.5545 16.5694C75.5545 17.2827 75.7506 17.8087 76.1429 18.1475C76.5353 18.4863 77.0346 18.6557 77.6409 18.6557C77.944 18.6557 78.3452 18.6111 78.8445 18.522V21.9993C78.0956 22.1063 77.3734 22.1597 76.6779 22.1597C75.1087 22.1597 73.8693 21.7764 72.9599 21.0096C72.0683 20.225 71.6314 19.057 71.6492 17.5056L71.676 11.4337H69.1617V8.06343H71.7027L71.7295 3.48948H75.6347L75.608 8.06343H78.8445V11.4337H75.5812Z" fill="black"/>
<path d="M93.6977 21.8923H90.0332V20.4746C89.6409 20.9739 89.0881 21.3841 88.3748 21.705C87.6615 22.026 86.8413 22.1865 85.914 22.1865C83.9525 22.1865 82.3476 21.5267 81.0993 20.2071C79.8689 18.8875 79.2537 17.1489 79.2537 14.9912C79.2537 12.8335 79.8689 11.0949 81.0993 9.77531C82.3476 8.45574 83.9525 7.79595 85.914 7.79595C87.6615 7.79595 88.9633 8.28633 89.8192 9.2671V1.10889H93.6977V21.8923ZM86.5559 11.1395C85.5574 11.1395 84.746 11.4783 84.1219 12.1559C83.5156 12.8335 83.2124 13.7786 83.2124 14.9912C83.2124 16.2038 83.5156 17.1489 84.1219 17.8265C84.746 18.4863 85.5574 18.8162 86.5559 18.8162C87.5367 18.8162 88.3213 18.5042 88.9098 17.88C89.5161 17.2559 89.8192 16.391 89.8192 15.2854V14.6702C89.8192 13.5825 89.5161 12.7265 88.9098 12.1024C88.3213 11.4605 87.5367 11.1395 86.5559 11.1395Z" fill="black"/>
<path d="M101.381 7.79595C103.253 7.79595 104.679 8.2685 105.66 9.2136C106.641 10.1587 107.131 11.5407 107.131 13.3596V21.8923H103.36V20.7688C102.45 21.7139 101.274 22.1865 99.8291 22.1865C98.4026 22.1865 97.2791 21.8388 96.4589 21.1433C95.6386 20.43 95.2284 19.4136 95.2284 18.094C95.2284 15.4549 97.0741 14.055 100.765 13.8945L103.226 13.7608V13.2258C103.226 11.7993 102.629 11.086 101.434 11.086C100.81 11.086 100.328 11.2643 99.9896 11.6209C99.6686 11.9776 99.5082 12.4056 99.5082 12.9049L95.6029 12.7444C95.6029 11.4605 96.1379 10.3192 97.2078 9.32059C98.2956 8.30416 99.6865 7.79595 101.381 7.79595ZM103.226 16.3286L101.14 16.4624C99.8024 16.5159 99.1337 16.9973 99.1337 17.9068C99.1337 18.7449 99.6686 19.1639 100.739 19.1639C101.47 19.1639 102.067 18.9678 102.531 18.5755C102.994 18.1832 103.226 17.6304 103.226 16.9171V16.3286Z" fill="black"/>
<path d="M113.996 7.79595C115.69 7.79595 117.01 8.20608 117.955 9.02636C118.918 9.84664 119.462 10.9255 119.586 12.2629L115.708 12.4769C115.654 11.3535 115.066 10.7917 113.943 10.7917C112.89 10.7917 112.364 11.1841 112.364 11.9687C112.364 12.0757 112.373 12.1737 112.391 12.2629C112.409 12.3521 112.445 12.4323 112.498 12.5036C112.57 12.575 112.632 12.6374 112.685 12.6909C112.739 12.7444 112.828 12.7979 112.953 12.8514C113.078 12.9049 113.176 12.9494 113.247 12.9851C113.336 13.0208 113.461 13.0653 113.622 13.1188C113.8 13.1723 113.943 13.2169 114.05 13.2526C114.157 13.2704 114.317 13.3061 114.531 13.3596C114.763 13.4131 114.941 13.4577 115.066 13.4933C116.653 13.9035 117.83 14.4028 118.597 14.9912C119.381 15.5618 119.774 16.4267 119.774 17.5858C119.774 19.0124 119.274 20.1358 118.276 20.9561C117.277 21.7764 115.886 22.1865 114.103 22.1865C112.338 22.1865 110.947 21.8031 109.93 21.0363C108.932 20.2517 108.361 19.1372 108.218 17.6928L112.124 17.4788C112.177 18.6201 112.846 19.1907 114.13 19.1907C114.665 19.1907 115.084 19.0837 115.387 18.8697C115.708 18.6379 115.868 18.3258 115.868 17.9335C115.868 17.5234 115.699 17.2202 115.36 17.0241C115.039 16.8279 114.371 16.605 113.354 16.3554C112.641 16.1771 112.079 16.0255 111.669 15.9007C111.277 15.7758 110.84 15.6064 110.358 15.3924C109.895 15.1606 109.547 14.911 109.315 14.6435C109.083 14.376 108.878 14.0372 108.7 13.6271C108.539 13.1991 108.459 12.7087 108.459 12.1559C108.459 10.8185 108.95 9.75748 109.93 8.97287C110.911 8.18825 112.266 7.79595 113.996 7.79595Z" fill="black"/>
<path d="M125.093 1.10889V9.24035C125.842 8.27741 127.01 7.79595 128.597 7.79595C130.22 7.79595 131.521 8.29525 132.502 9.29385C133.501 10.2924 134 11.6744 134 13.4398V21.8923H130.095V14.1888C130.095 13.315 129.872 12.6374 129.426 12.1559C128.998 11.6744 128.41 11.4337 127.661 11.4337C126.894 11.4337 126.27 11.6923 125.788 12.2094C125.325 12.7087 125.093 13.3774 125.093 14.2155V21.8923H121.188V1.10889H125.093Z" fill="black"/>
<defs>
<radialGradient id="paint0_angular_733_31768" cx="0" cy="0" r="1" gradientUnits="userSpaceOnUse" gradientTransform="translate(7.96333 7.44048) rotate(107.879) scale(8.10592 5.15831)">
<stop stop-color="#CFA200"/>
<stop offset="0.626235" stop-color="#EBDC4C"/>
<stop offset="1" stop-color="#FCFF79"/>
</radialGradient>
</defs>
</svg>
