<svg width="100" height="100" viewBox="0 0 100 100" fill="none" xmlns="http://www.w3.org/2000/svg">
<circle cx="50" cy="50" r="47" fill="#F7F7F7"/>
<circle cx="50" cy="50" r="47" fill="#F7F7F7"/>
<circle cx="50" cy="50" r="47" fill="#F7F7F7"/>
<path fill-rule="evenodd" clip-rule="evenodd" d="M59.2556 16.4403C58.948 16.7576 58.8287 16.9963 58.8287 17.295C58.8287 17.5936 58.948 17.8324 59.2556 18.1496L59.6826 18.5899H62.2374H64.7923L58.5793 24.9982L52.3661 31.4066L49.8455 28.8183C47.3286 26.234 47.324 26.2302 46.7683 26.2302H46.2116L34.6403 38.1763C26.6126 46.4638 23.0543 50.2215 23.021 50.446C22.8885 51.3425 23.3947 52 24.2177 52H24.7325L35.7516 40.6393L46.7706 29.2787L49.2522 31.8241C51.733 34.3687 52.088 34.6393 52.698 34.4517C52.8584 34.4023 56.0269 31.2365 59.7391 27.4164L66.4886 20.4709L66.4956 22.606C66.5039 25.0989 66.6046 25.5378 67.2495 25.8942C67.7822 26.1885 68.25 26.109 68.6969 25.6481L69 25.3355V21.1125C69 18.4637 68.9518 16.7965 68.8707 16.6404C68.5572 16.0364 68.2718 16 63.8453 16H59.6826L59.2556 16.4403Z" fill="#137CBD"/>
<line x1="26.5" y1="75.5" x2="71.5" y2="75.5" stroke="#A9AFB4" stroke-linecap="round"/>
<path opacity="0.7" d="M35 54C36.1046 54 37 54.8954 37 56L37 75L29 75L29 56C29 54.8954 29.8954 54 31 54L35 54Z" fill="#BFCCD6" fill-opacity="0.4"/>
<path opacity="0.7" d="M51 43C52.1046 43 53 43.8954 53 45L53 75L45 75L45 45C45 43.8954 45.8954 43 47 43L51 43Z" fill="#BFCCD6" fill-opacity="0.7"/>
<path opacity="0.7" d="M66 33C67.1046 33 68 33.8954 68 35L68 75L60 75L60 35C60 33.8954 60.8954 33 62 33L66 33Z" fill="#BFCCD6"/>
<path fill-rule="evenodd" clip-rule="evenodd" d="M67.4922 48.0209C65.1848 48.2122 63.1532 49.7712 62.3595 51.9596C61.4127 54.5702 62.3831 57.478 64.7154 59.0189C66.1774 59.9848 68.0445 60.2594 69.7153 59.7542C70.3635 59.5582 71.1073 59.183 71.598 58.8045L71.6803 58.741L74.2625 61.3192C77.1733 64.2254 76.9168 63.9961 77.2563 63.9955C77.4127 63.9953 77.4596 63.9868 77.5582 63.941C77.7213 63.8652 77.8507 63.7387 77.9301 63.5773C77.9909 63.4539 77.9969 63.4246 77.9962 63.2559C77.9947 62.9135 78.2259 63.1723 75.3208 60.2618L72.7433 57.6796L72.8754 57.4975C74.3239 55.5002 74.3819 52.7794 73.0199 50.7148C71.798 48.8625 69.6961 47.8382 67.4922 48.0209ZM68.6659 49.5522C69.623 49.7035 70.4926 50.1405 71.1643 50.8077C72.0276 51.6653 72.4916 52.7705 72.4945 53.9762C72.4954 54.3536 72.4752 54.5734 72.4081 54.9122C72.3113 55.4013 72.0592 56.0147 71.7781 56.445C71.0402 57.5745 69.8553 58.31 68.5116 58.4726C68.2423 58.5051 67.6868 58.4995 67.4108 58.4614C65.411 58.1855 63.8772 56.6732 63.5501 54.655C63.4991 54.3405 63.4988 53.6747 63.5494 53.3504C63.8692 51.3031 65.4945 49.7463 67.5445 49.5236C67.801 49.4957 68.4062 49.5112 68.6659 49.5522Z" fill="#8D9BA6" stroke="#8D9BA6"/>
</svg>
