<svg width="100" height="100" viewBox="0 0 100 100" fill="none" xmlns="http://www.w3.org/2000/svg">
<circle cx="50" cy="50" r="47" fill="#F7F7F7"/>
<circle cx="50" cy="50" r="47" fill="#F7F7F7"/>
<circle cx="50" cy="50" r="47" fill="#F7F7F7"/>
<rect x="12.5" y="25.5" width="77" height="50" rx="2.5" fill="white" stroke="#A6ADB2"/>
<rect opacity="0.7" x="25" y="59" width="28" height="2" rx="1" fill="#8D9BA6"/>
<rect opacity="0.7" x="25" y="65" width="28" height="2" rx="1" fill="#8D9BA6"/>
<rect x="21" y="32" width="32" height="22" fill="#EDF1F3"/>
<rect x="56" y="32" width="25" height="37" fill="#EDF1F3"/>
<circle cx="22" cy="60" r="1" fill="#8D9BA6"/>
<circle cx="22" cy="66" r="1" fill="#8D9BA6"/>
<path opacity="0.7" d="M46 34C46.5523 34 47 34.4477 47 35L47 52L43 52L43 35C43 34.4477 43.4477 34 44 34L46 34Z" fill="#137CBD"/>
<path opacity="0.7" d="M34 41C34.5523 41 35 41.4477 35 42L35 52L31 52L31 42C31 41.4477 31.4477 41 32 41L34 41Z" fill="#137CBD"/>
<path opacity="0.7" d="M40 37C40.5523 37 41 37.4477 41 38L41 52L37 52L37 38C37 37.4477 37.4477 37 38 37L40 37Z" fill="#137CBD"/>
<path opacity="0.7" d="M28 46C28.5523 46 29 46.4477 29 47L29 52L25 52L25 47C25 46.4477 25.4477 46 26 46L28 46Z" fill="#137CBD"/>
<path fill-rule="evenodd" clip-rule="evenodd" d="M75.4922 55.0209C73.1848 55.2122 71.1532 56.7712 70.3595 58.9596C69.4127 61.5702 70.3831 64.478 72.7154 66.0189C74.1774 66.9848 76.0445 67.2594 77.7153 66.7542C78.3635 66.5582 79.1073 66.183 79.598 65.8045L79.6803 65.741L82.2625 68.3192C85.1733 71.2254 84.9168 70.9961 85.2563 70.9955C85.4127 70.9953 85.4596 70.9868 85.5582 70.941C85.7213 70.8652 85.8507 70.7387 85.9301 70.5773C85.9909 70.4539 85.9969 70.4246 85.9962 70.2559C85.9947 69.9135 86.2259 70.1723 83.3208 67.2618L80.7433 64.6796L80.8754 64.4975C82.3239 62.5002 82.3819 59.7794 81.0199 57.7148C79.798 55.8625 77.6961 54.8382 75.4922 55.0209ZM76.6659 56.5522C77.623 56.7035 78.4926 57.1405 79.1643 57.8077C80.0276 58.6653 80.4916 59.7705 80.4945 60.9762C80.4954 61.3536 80.4752 61.5734 80.4081 61.9122C80.3113 62.4013 80.0592 63.0147 79.7781 63.445C79.0402 64.5745 77.8553 65.31 76.5116 65.4726C76.2423 65.5051 75.6868 65.4995 75.4108 65.4614C73.411 65.1855 71.8772 63.6732 71.5501 61.655C71.4991 61.3405 71.4988 60.6747 71.5494 60.3504C71.8692 58.3031 73.4945 56.7463 75.5445 56.5236C75.801 56.4957 76.4062 56.5112 76.6659 56.5522Z" fill="#8D9BA6" stroke="#8D9BA6"/>
</svg>
