<svg width="100" height="100" viewBox="0 0 100 100" fill="none" xmlns="http://www.w3.org/2000/svg">
<circle cx="51" cy="50" r="47" fill="#F7F7F7"/>
<circle cx="51" cy="50" r="47" fill="#F7F7F7"/>
<circle cx="51" cy="50" r="47" fill="#F7F7F7"/>
<path opacity="0.7" d="M3.5 38.6421C3.5 36.8401 4.75978 35.5 6.17466 35.5H91.8905C93.3054 35.5 94.5652 36.8401 94.5652 38.6421V55.0318C94.5652 56.8338 93.3054 58.1739 91.8905 58.1739H6.17466C4.75978 58.1739 3.5 56.8338 3.5 55.0318V38.6421Z" fill="white" stroke="#848D94"/>
<g opacity="0.7">
<path fill-rule="evenodd" clip-rule="evenodd" d="M23.1667 41.083H10.8913C10.3653 41.083 10.0145 41.494 10.0145 41.905L10.0145 51.7691C10.0145 52.2624 10.3653 52.5912 10.8913 52.5912H23.1667C23.6928 52.5912 24.0435 52.2624 24.0435 51.7691L24.0435 41.905C24.0435 41.494 23.6928 41.083 23.1667 41.083ZM15.2754 50.9471H11.7681L11.7681 49.3031H15.2754V50.9471ZM15.2754 48.4811H11.7681V46.8371H15.2754V48.4811ZM15.2754 46.0151H11.7681L11.7681 44.3711H15.2754L15.2754 46.0151ZM22.2899 50.9471H16.1522V49.3031H22.2899L22.2899 50.9471ZM22.2899 48.4811H16.1522V46.8371H22.2899V48.4811ZM22.2899 46.0151H16.1522V44.3711H22.2899V46.0151Z" fill="#5C7080"/>
</g>
<rect opacity="0.7" x="30.1812" y="44.645" width="50.8551" height="4.38406" rx="2.19203" fill="#BFCCD6"/>
<path fill-rule="evenodd" clip-rule="evenodd" d="M66.3873 49.051C60.763 49.5172 55.811 53.3173 53.8764 58.6516C51.5685 65.015 53.9338 72.1026 59.6188 75.8585C63.1823 78.2129 67.7336 78.8822 71.806 77.6508C73.3859 77.173 75.1991 76.2585 76.395 75.336L76.5956 75.1812L82.8899 81.4655C89.985 88.5494 89.3597 87.9905 90.1872 87.9891C90.5685 87.9885 90.6827 87.9678 90.9232 87.8561C91.3207 87.6714 91.6361 87.363 91.8297 86.9698C91.9778 86.6688 91.9925 86.5975 91.9907 86.1863C91.987 85.3516 92.5506 85.9824 85.4694 78.888L79.1869 72.5939L79.5087 72.1503C83.0394 67.2817 83.1808 60.6498 79.861 55.6174C76.8825 51.1024 71.7593 48.6056 66.3873 49.051ZM69.2482 52.7836C71.5811 53.1523 73.7008 54.2174 75.338 55.8438C77.4424 57.9342 78.5733 60.628 78.5804 63.5671C78.5827 64.4869 78.5332 65.0226 78.3698 65.8484C78.1339 67.0407 77.5193 68.5358 76.8341 69.5848C75.0356 72.3378 72.1473 74.1305 68.872 74.5268C68.2156 74.6063 66.8616 74.5926 66.1888 74.4998C61.3144 73.8272 57.5756 70.141 56.7783 65.2215C56.6541 64.455 56.6533 62.832 56.7767 62.0417C57.5563 57.0512 61.5179 53.2565 66.5148 52.7137C67.1399 52.6458 68.6152 52.6836 69.2482 52.7836Z" fill="#137CBD"/>
</svg>
