<svg width="89" height="19" viewBox="0 0 89 19" fill="none" xmlns="http://www.w3.org/2000/svg">
<path d="M8.42767 4.78569H5.23107L6.355 1.15612C6.46888 0.731087 6.14146 0.311646 5.69447 0.311646H1.59467C1.25302 0.311646 0.962616 0.560514 0.917063 0.893271L0.00599533 7.60433C-0.0480993 8.007 0.270774 8.36492 0.683602 8.36492H4.06309L2.75059 13.8037C2.64809 14.2287 2.97835 14.6286 3.41396 14.6286C3.65311 14.6286 3.88088 14.5055 4.00615 14.293L9.01702 5.79235C9.2818 5.34774 8.95439 4.78569 8.42767 4.78569Z" fill="url(#paint0_angular_190_23668)"/>
<path d="M15.8343 11.2453H21.5624V13.6525H13.1108V0.509553H15.8343V11.2453Z" fill="white"/>
<path d="M23.6677 0.0527118C24.1011 0.0527118 24.4643 0.204992 24.7571 0.509553C25.0617 0.802399 25.214 1.16553 25.214 1.59894C25.214 2.02064 25.0617 2.38377 24.7571 2.68833C24.4643 2.98118 24.1011 3.1276 23.6677 3.1276C23.2343 3.1276 22.8712 2.98118 22.5783 2.68833C22.2855 2.38377 22.1391 2.02064 22.1391 1.59894C22.1391 1.17724 22.2913 0.814112 22.5959 0.509553C22.9005 0.204992 23.2577 0.0527118 23.6677 0.0527118ZM24.9504 13.6525H22.3851V4.5684H24.9504V13.6525Z" fill="white"/>
<path d="M30.3273 4.3927C31.569 4.3927 32.471 4.76754 33.0332 5.51723V4.5684H35.4404V13.9863C35.4404 15.2983 35.0246 16.3467 34.1929 17.1315C33.3612 17.9163 32.2484 18.3088 30.8545 18.3088C29.4839 18.3088 28.4063 17.9925 27.6214 17.3599C26.8366 16.7391 26.3563 15.8898 26.1806 14.8122L28.7284 14.7243C28.787 15.1694 28.9978 15.515 29.3609 15.761C29.7241 16.007 30.1926 16.13 30.7666 16.13C31.4226 16.13 31.938 15.9601 32.3128 15.6204C32.6994 15.2924 32.8927 14.8122 32.8927 14.1796V12.8794C32.2953 13.5236 31.4401 13.8458 30.3273 13.8458C29.0388 13.8458 27.9846 13.4124 27.1646 12.5455C26.3563 11.6787 25.9522 10.5366 25.9522 9.11924C25.9522 7.70186 26.3563 6.55976 27.1646 5.69293C27.9846 4.82611 29.0388 4.3927 30.3273 4.3927ZM30.749 6.58904C30.0931 6.58904 29.5601 6.81161 29.1501 7.25673C28.7518 7.70186 28.5527 8.3227 28.5527 9.11924C28.5527 9.91578 28.7518 10.5366 29.1501 10.9817C29.5601 11.4269 30.0931 11.6494 30.749 11.6494C31.3933 11.6494 31.9087 11.4444 32.2953 11.0345C32.6935 10.6128 32.8927 10.0446 32.8927 9.33009V8.90839C32.8927 8.19384 32.6935 7.63158 32.2953 7.22159C31.9087 6.79989 31.3933 6.58904 30.749 6.58904Z" fill="white"/>
<path d="M39.3488 0V5.34152C39.8408 4.70897 40.6081 4.3927 41.6506 4.3927C42.7166 4.3927 43.5717 4.72068 44.2159 5.37666C44.8719 6.03264 45.1999 6.94046 45.1999 8.10013V13.6525H42.6346V8.59211C42.6346 8.01814 42.4881 7.57301 42.1953 7.25673C41.9142 6.94046 41.5276 6.78232 41.0356 6.78232C40.5319 6.78232 40.1219 6.95217 39.8057 7.29188C39.5011 7.61986 39.3488 8.05913 39.3488 8.60969V13.6525H36.7835V0H39.3488Z" fill="white"/>
<path d="M49.7017 6.78232L49.6842 10.1559C49.6842 10.6245 49.813 10.97 50.0707 11.1926C50.3284 11.4152 50.6564 11.5264 51.0547 11.5264C51.2538 11.5264 51.5174 11.4972 51.8454 11.4386V13.7228C51.3534 13.7931 50.879 13.8282 50.4221 13.8282C49.3913 13.8282 48.5772 13.5764 47.9798 13.0727C47.3941 12.5573 47.1071 11.79 47.1188 10.7709L47.1364 6.78232H45.4847V4.5684H47.154L47.1715 1.5638H49.7369L49.7193 4.5684H51.8454V6.78232H49.7017Z" fill="white"/>
<path d="M61.6024 13.6525H59.1952V12.7212C58.9375 13.0492 58.5743 13.3187 58.1058 13.5295C57.6372 13.7404 57.0984 13.8458 56.4893 13.8458C55.2007 13.8458 54.1465 13.4124 53.3265 12.5455C52.5183 11.6787 52.1141 10.5366 52.1141 9.11924C52.1141 7.70186 52.5183 6.55976 53.3265 5.69293C54.1465 4.82611 55.2007 4.3927 56.4893 4.3927C57.6372 4.3927 58.4923 4.71483 59.0546 5.35909V0H61.6024V13.6525ZM56.911 6.58904C56.255 6.58904 55.722 6.81161 55.312 7.25673C54.9138 7.70186 54.7146 8.3227 54.7146 9.11924C54.7146 9.91578 54.9138 10.5366 55.312 10.9817C55.722 11.4152 56.255 11.6319 56.911 11.6319C57.5552 11.6319 58.0706 11.4269 58.4572 11.0169C58.8555 10.6069 59.0546 10.0388 59.0546 9.31252V8.90839C59.0546 8.19384 58.8555 7.63158 58.4572 7.22159C58.0706 6.79989 57.5552 6.58904 56.911 6.58904Z" fill="white"/>
<path d="M66.6492 4.3927C67.8791 4.3927 68.8162 4.70311 69.4605 5.32395C70.1048 5.94478 70.4269 6.85261 70.4269 8.04742V13.6525H67.9494V12.9145C67.352 13.5354 66.5789 13.8458 65.6301 13.8458C64.693 13.8458 63.955 13.6174 63.4161 13.1605C62.8773 12.692 62.6079 12.0243 62.6079 11.1574C62.6079 9.4238 63.8203 8.50426 66.245 8.39883L67.8615 8.31098V7.95957C67.8615 7.02246 67.4691 6.5539 66.6843 6.5539C66.2743 6.5539 65.9581 6.67104 65.7355 6.90532C65.5246 7.1396 65.4192 7.42073 65.4192 7.74872L62.8539 7.64329C62.8539 6.79989 63.2053 6.05021 63.9081 5.39423C64.6227 4.72654 65.5363 4.3927 66.6492 4.3927ZM67.8615 9.99778L66.491 10.0856C65.6125 10.1208 65.1732 10.437 65.1732 11.0345C65.1732 11.585 65.5246 11.8603 66.2275 11.8603C66.7077 11.8603 67.1001 11.7314 67.4047 11.4737C67.7093 11.216 67.8615 10.8529 67.8615 10.3843V9.99778Z" fill="white"/>
<path d="M74.9363 4.3927C76.0491 4.3927 76.9159 4.66211 77.5367 5.20095C78.1693 5.73979 78.5266 6.44848 78.6086 7.32702L76.0608 7.46758C76.0257 6.72961 75.6391 6.36062 74.9011 6.36062C74.21 6.36062 73.8644 6.61833 73.8644 7.13374C73.8644 7.20402 73.8703 7.26845 73.882 7.32702C73.8937 7.38559 73.9172 7.4383 73.9523 7.48515C73.9992 7.53201 74.0402 7.57301 74.0753 7.60815C74.1104 7.64329 74.169 7.67843 74.251 7.71357C74.333 7.74872 74.3974 7.778 74.4443 7.80143C74.5029 7.82486 74.5848 7.85414 74.6903 7.88928C74.8074 7.92442 74.9011 7.95371 74.9714 7.97714C75.0417 7.98885 75.1471 8.01228 75.2877 8.04742C75.44 8.08256 75.5571 8.11185 75.6391 8.13527C76.6816 8.40469 77.4547 8.73268 77.9584 9.11924C78.4739 9.49408 78.7316 10.0622 78.7316 10.8236C78.7316 11.7607 78.4036 12.4987 77.7476 13.0375C77.0916 13.5764 76.1779 13.8458 75.0066 13.8458C73.8469 13.8458 72.9332 13.5939 72.2655 13.0902C71.6095 12.5748 71.2347 11.8427 71.141 10.8939L73.7063 10.7533C73.7415 11.503 74.1807 11.8779 75.0241 11.8779C75.3755 11.8779 75.6508 11.8076 75.8499 11.667C76.0608 11.5147 76.1662 11.3097 76.1662 11.052C76.1662 10.7826 76.0549 10.5835 75.8324 10.4546C75.6215 10.3258 75.1823 10.1793 74.5146 10.0153C74.046 9.89821 73.677 9.79864 73.4076 9.71664C73.1499 9.63465 72.8629 9.52337 72.5466 9.3828C72.2421 9.23052 72.0137 9.06653 71.8614 8.89082C71.7091 8.71511 71.5744 8.49255 71.4572 8.22313C71.3518 7.94199 71.2991 7.61986 71.2991 7.25673C71.2991 6.37819 71.6212 5.68122 72.2655 5.16581C72.9098 4.6504 73.8 4.3927 74.9363 4.3927Z" fill="white"/>
<path d="M82.2257 0V5.34152C82.7177 4.70897 83.4849 4.3927 84.5274 4.3927C85.5934 4.3927 86.4485 4.72068 87.0928 5.37666C87.7487 6.03264 88.0767 6.94046 88.0767 8.10013V13.6525H85.5114V8.59211C85.5114 8.01814 85.365 7.57301 85.0721 7.25673C84.791 6.94046 84.4044 6.78232 83.9125 6.78232C83.4088 6.78232 82.9988 6.95217 82.6825 7.29188C82.3779 7.61986 82.2257 8.05913 82.2257 8.60969V13.6525H79.6603V0H82.2257Z" fill="white"/>
<defs>
<radialGradient id="paint0_angular_190_23668" cx="0" cy="0" r="1" gradientUnits="userSpaceOnUse" gradientTransform="translate(5.23107 4.72696) rotate(107.879) scale(5.32474 3.38847)">
<stop stop-color="#CFA200"/>
<stop offset="0.626235" stop-color="#EBDC4C"/>
<stop offset="1" stop-color="#FCFF79"/>
</radialGradient>
</defs>
</svg>
